<svg version="1.1" id="Layer_1" xmlns="http://www.w3.org/2000/svg" xmlns:xlink="http://www.w3.org/1999/xlink" x="0px" y="0px"
	 width="100%" viewBox="0 0 512 512" enable-background="new 0 0 512 512" xml:space="preserve">
<path fill="#" opacity="1.000000" stroke="none" 
	d="
M291.000000,513. 
	C194.023544,513.000000 97.547081,513.000000 1.035313,513.000000 
	C1.035313,342.398529 1.035313,171.797028 1.035313,1.097768 
	C171.559799,1.097768 342.119690,1.097768 512.839783,1.097768 
	C512.839783,171.666550 512.839783,342.333252 512.839783,513.000000 
	C439.130341,513.000000 365.315155,513.000000 291.000000,513.000000 
M248.036041,376.999512 
	C221.818466,376.999512 195.600876,376.999512 168.505447,376.999512 
	C170.171021,388.332092 171.699707,398.733307 173.092804,409.947357 
	C174.726318,420.775970 176.431427,431.594421 177.976181,442.435669 
	C180.167282,457.813110 182.240265,473.207367 184.375275,488.678253 
	C232.942368,488.678253 281.318237,488.678253 329.699615,488.678253 
	C331.525330,474.878998 333.239441,461.385345 335.113373,447.913910 
	C336.913208,434.975098 338.878540,422.059296 340.925537,408.281158 
	C342.395264,398.089386 343.864990,387.897614 345.436798,376.998047 
	C317.888977,376.998047 291.459686,376.998047 265.005859,376.061279 
	C265.016357,365.753448 265.026855,355.445618 265.963348,345.019318 
	C282.794830,345.012909 299.630981,345.228699 316.455170,344.875458 
	C322.086487,344.757233 327.925262,343.908752 333.259674,342.151154 
	C353.218506,335.575043 366.823456,322.128693 373.966644,302.346802 
	C376.410278,295.579498 377.994324,288.596497 376.565887,281.000000 
	C356.754639,281.000000 337.113098,280.800415 317.480316,281.126129 
	C311.859406,281.219360 306.080841,282.229889 300.691193,283.864044 
	C285.248718,288.546356 273.713348,298.479614 265.020386,311.043030 
	C265.045746,290.398132 265.071136,269.753235 265.968079,249.012146 
	C268.551880,248.676849 271.134369,248.331085 273.719696,248.007874 
	C298.175323,244.950455 318.867096,234.028961 336.294098,217.031723 
	C347.210968,206.384109 355.503723,193.785049 361.242249,179.468430 
	C370.245605,157.006622 371.550964,134.037201 366.220581,110.696625 
	C360.809692,87.003647 348.634003,67.362732 330.092560,51.408615 
	C318.165558,41.145935 304.732880,33.762524 289.988617,29.195765 
	C273.850983,24.197424 257.093506,23.706558 240.279236,25.964788 
	C215.908890,29.237825 195.139832,39.895054 177.732315,56.928185 
	C167.197540,67.236359 159.019211,79.331596 153.350815,93.119942 
	C142.735504,118.941566 141.892166,145.163834 150.015121,171.632721 
	C156.220505,191.853195 167.684769,208.695587 183.886047,222.510178 
	C202.725601,238.574356 224.363419,247.251678 248.980469,250.027328 
	C248.949661,265.344025 248.918854,280.660736 248.257767,295.703339 
	C235.912277,275.909668 218.236099,265.350952 194.761703,265.024628 
	C184.263977,264.878693 173.762558,265.000000 163.262817,265.000000 
	C154.645432,265.000000 146.028046,265.000000 137.272308,265.000000 
	C135.947266,276.302887 139.044312,286.159393 144.160049,295.420593 
	C155.919571,316.709198 173.899597,328.366394 198.390976,328.927551 
	C215.215149,329.312988 232.055008,329.014984 248.979599,329.956818 
	C248.976242,345.637238 248.972885,361.317627 248.036041,376.999512 
z"/>
<path fill="#FFD052" opacity="1.000000" stroke="none" 
	d="
M248.903183,249.108246 
	C224.363419,247.251678 202.725601,238.574356 183.886047,222.510178 
	C167.684769,208.695587 156.220505,191.853195 150.015121,171.632721 
	C141.892166,145.163834 142.735504,118.941566 153.350815,93.119942 
	C159.019211,79.331596 167.197540,67.236359 177.732315,56.928185 
	C195.139832,39.895054 215.908890,29.237825 240.279236,25.964788 
	C257.093506,23.706558 273.850983,24.197424 289.988617,29.195765 
	C304.732880,33.762524 318.165558,41.145935 330.092560,51.408615 
	C348.634003,67.362732 360.809692,87.003647 366.220581,110.696625 
	C371.550964,134.037201 370.245605,157.006622 361.242249,179.468430 
	C355.503723,193.785049 347.210968,206.384109 336.294098,217.031723 
	C318.867096,234.028961 298.175323,244.950455 273.719696,248.007874 
	C271.134369,248.331085 268.551880,248.676849 265.061188,249.025421 
	C259.070587,249.061874 253.986893,249.085068 248.903183,249.108246 
M230.288727,83.524452 
	C221.087433,89.076447 216.337357,97.010208 216.965118,107.966103 
	C217.183960,111.785370 216.995285,115.627724 217.001038,119.459518 
	C217.023712,134.538712 227.356369,144.973190 242.306229,144.997086 
	C252.302216,145.013062 262.299164,144.924286 272.293915,145.037109 
	C278.024780,145.101791 280.839233,147.977127 280.969574,153.711334 
	C281.083160,158.706696 281.107849,163.710342 280.955383,168.703735 
	C280.797485,173.873291 277.975098,176.865112 272.876343,176.938400 
	C262.216248,177.091629 251.550430,177.099655 240.890945,176.924744 
	C236.056244,176.845428 233.374603,173.852386 233.016037,168.972672 
	C232.429749,160.993759 232.429749,160.993637 224.287445,161.000153 
	C223.287857,161.000946 222.281006,161.082367 221.289993,160.991150 
	C218.003860,160.688644 217.189362,162.273209 216.919571,165.396179 
	C215.432449,182.609604 229.886993,194.518875 243.246994,192.984970 
	C247.438232,192.503738 249.139709,193.844513 249.110519,198.440765 
	C249.034851,210.361649 246.795105,208.874222 260.128876,208.997543 
	C260.462036,209.000626 260.796814,208.970932 261.128204,208.994232 
	C263.867645,209.186890 265.151825,207.954254 265.004913,205.176331 
	C264.925873,203.681290 264.998657,202.178329 264.999695,200.678940 
	C265.004913,193.050980 265.004547,193.050980 272.510834,192.999222 
	C283.705353,192.922028 293.229248,186.461243 295.757019,175.508499 
	C297.334351,168.674011 296.892578,161.322311 296.951660,154.199356 
	C297.073456,139.513397 286.511963,129.031250 271.852753,129.003647 
	C262.189972,128.985458 252.526962,129.032715 242.864334,128.988266 
	C235.643997,128.955063 233.058319,126.290016 233.006149,118.948326 
	C232.976547,114.783531 232.956055,110.617737 233.012466,106.453491 
	C233.102310,99.821831 235.825439,97.066833 242.461899,97.017555 
	C251.124634,96.953232 259.788208,96.999252 268.451416,97.000366 
	C279.075409,97.001732 280.340637,98.265251 281.087311,108.858917 
	C281.183990,110.231064 282.269592,112.594810 283.079102,112.675591 
	C287.032562,113.070107 291.055176,112.966873 295.034088,112.724373 
	C295.718414,112.682671 296.690887,111.195549 296.886688,110.243721 
	C299.568207,97.210037 289.680969,83.177521 276.399414,81.166206 
	C272.847656,80.628342 267.642151,81.711884 266.072998,79.749947 
	C264.139130,77.331955 265.448914,72.470955 264.863403,68.743248 
	C264.651459,67.393814 263.175995,65.392250 262.003143,65.176346 
	C250.710403,63.097458 249.160156,64.438171 248.999466,75.659248 
	C248.994690,75.992393 248.966125,76.328667 248.999435,76.658363 
	C249.326141,79.891624 247.841949,80.881653 244.656219,81.101654 
	C240.071991,81.418236 235.538086,82.463142 230.288727,83.524452 
M169.102310,128.932129 
	C167.848450,151.819901 173.264236,172.723236 187.510376,191.023056 
	C195.264664,200.983749 195.185944,200.951996 203.799728,191.738800 
	C205.887344,189.505859 206.301712,187.889328 204.020447,185.461929 
	C189.791763,170.321838 184.207367,152.063202 185.028152,131.595032 
	C185.414886,121.951134 185.454315,121.991058 175.296616,120.266838 
	C172.078842,119.720634 170.076981,120.446053 169.956650,124.128624 
	C169.913879,125.437996 169.491333,126.734962 169.102310,128.932129 
M328.125732,136.344147 
	C328.158417,142.609955 328.075409,148.879807 328.293304,155.139160 
	C328.359894,157.051712 328.955750,160.410049 329.818176,160.584076 
	C334.184296,161.465042 338.716431,161.565750 343.197845,161.712875 
	C343.431183,161.720520 343.959686,159.643356 343.967010,158.534271 
	C344.023560,149.945419 344.780975,141.264252 343.803925,132.786575 
	C342.016510,117.277939 335.828186,103.290535 325.721710,91.330177 
	C318.695251,83.014854 318.626373,83.408936 310.973145,91.301262 
	C307.923004,94.446701 308.681488,95.999474 311.229156,98.906921 
	C320.402710,109.375870 326.421783,121.444351 328.125732,136.344147 
M197.243515,92.161713 
	C194.759247,90.228302 192.445740,87.978195 189.713333,86.505013 
	C188.484131,85.842285 185.593323,86.098610 184.880112,87.029114 
	C182.274231,90.428940 180.257462,94.282013 178.039124,97.976555 
	C176.473969,100.583244 177.436310,102.129822 179.973022,103.516495 
	C189.894821,108.940186 189.909393,108.991463 195.642822,99.532982 
	C196.502991,98.113937 197.478149,96.731094 198.083740,95.205894 
	C198.371414,94.481361 197.914368,93.461121 197.243515,92.161713 
M333.903320,179.518845 
	C331.305450,178.413620 328.777252,177.051590 326.078186,176.319382 
	C324.861053,175.989151 322.601562,176.457504 322.021820,177.348648 
	C319.523315,181.189102 317.472137,185.320587 315.037842,189.746536 
	C318.906647,192.429932 322.372070,196.661072 326.252563,197.084030 
	C331.672089,197.674744 332.209137,190.955948 334.671509,187.326492 
	C336.108795,185.208023 338.986145,182.240753 333.903320,179.518845 
z"/>
<path fill="#AA7D54" opacity="1.000000" stroke="none" 
	d="
M340.771179,409.133362 
	C338.878540,422.059296 336.913208,434.975098 335.113373,447.913910 
	C333.239441,461.385345 331.525330,474.878998 329.699615,488.678253 
	C281.318237,488.678253 232.942368,488.678253 184.375275,488.678253 
	C182.240265,473.207367 180.167282,457.813110 177.976181,442.435669 
	C176.431427,431.594421 174.726318,420.775970 173.613434,409.520630 
	C186.107666,409.062622 198.081284,408.997955 210.054871,409.006012 
	C253.626968,409.035309 297.199066,409.088928 340.771179,409.133362 
M217.001465,444.312775 
	C216.459595,448.112213 218.248978,449.164185 221.857361,449.056519 
	C235.073486,448.662140 232.586426,450.924347 233.076614,438.163910 
	C233.241348,433.875763 231.612122,432.866486 227.621658,432.917480 
	C217.001541,433.053345 216.999481,432.892029 217.001465,444.312775 
M262.165161,433.031433 
	C259.011902,433.023865 255.854385,433.114838 252.706619,432.979553 
	C249.866898,432.857483 249.086121,434.162811 248.950958,436.847931 
	C248.334991,449.084473 249.669342,450.421906 261.829987,448.949158 
	C262.755615,448.837067 263.906891,448.593140 264.482300,447.973267 
	C265.969757,446.370911 264.762085,435.025726 262.165161,433.031433 
M296.998566,437.687164 
	C297.540436,433.887634 295.750885,432.835846 292.142609,432.943512 
	C278.926361,433.337891 281.413635,431.075653 280.923340,443.836151 
	C280.758606,448.124359 282.387970,449.133545 286.378387,449.082489 
	C296.998474,448.946716 297.000549,449.108002 296.998566,437.687164 
z"/>
<path fill="#A6E641" opacity="1.000000" stroke="none" 
	d="
M265.112122,311.977325 
	C273.713348,298.479614 285.248718,288.546356 300.691193,283.864044 
	C306.080841,282.229889 311.859406,281.219360 317.480316,281.126129 
	C337.113098,280.800415 356.754639,281.000000 376.565887,281.000000 
	C377.994324,288.596497 376.410278,295.579498 373.966644,302.346802 
	C366.823456,322.128693 353.218506,335.575043 333.259674,342.151154 
	C327.925262,343.908752 322.086487,344.757233 316.455170,344.875458 
	C299.630981,345.228699 282.794830,345.012909 265.056915,345.034424 
	C256.298645,344.906830 256.007080,344.724487 257.645721,336.685272 
	C258.770569,331.166626 260.371307,325.736053 261.956360,320.323792 
	C262.789856,317.477692 264.046539,314.755493 265.112122,311.977325 
z"/>
<path fill="#A6E641" opacity="1.000000" stroke="none" 
	d="
M248.887848,329.022491 
	C232.055008,329.014984 215.215149,329.312988 198.390976,328.927551 
	C173.899597,328.366394 155.919571,316.709198 144.160049,295.420593 
	C139.044312,286.159393 135.947266,276.302887 137.272308,265.000000 
	C146.028046,265.000000 154.645432,265.000000 163.262817,265.000000 
	C173.762558,265.000000 184.263977,264.878693 194.761703,265.024628 
	C218.236099,265.350952 235.912277,275.909668 248.610748,296.307739 
	C248.938416,307.615570 248.913132,318.319031 248.887848,329.022491 
z"/>
<path fill="#654A32" opacity="1.000000" stroke="none" 
	d="
M340.848328,408.707275 
	C297.199066,409.088928 253.626968,409.035309 210.054871,409.006012 
	C198.081284,408.997955 186.107666,409.062622 173.681229,409.114227 
	C171.699707,398.733307 170.171021,388.332092 168.505447,376.999512 
	C195.600876,376.999512 221.818466,376.999512 248.971786,376.999359 
	C254.948502,376.998810 259.989471,376.998444 265.030426,376.998047 
	C291.459686,376.998047 317.888977,376.998047 345.436798,376.998047 
	C343.864990,387.897614 342.395264,398.089386 340.848328,408.707275 
z"/>
<path fill="#AA7D54" opacity="1.000000" stroke="none" 
	d="
M265.018127,376.529663 
	C259.989471,376.998444 254.948502,376.998810 249.438538,376.998627 
	C248.972885,361.317627 248.976242,345.637238 248.933716,329.489655 
	C248.913132,318.319031 248.938416,307.615570 248.925873,296.444763 
	C248.918854,280.660736 248.949661,265.344025 248.941833,249.567795 
	C253.986893,249.085068 259.070587,249.061874 264.625397,249.073517 
	C265.071136,269.753235 265.045746,290.398132 265.066254,311.510193 
	C264.046539,314.755493 262.789856,317.477692 261.956360,320.323792 
	C260.371307,325.736053 258.770569,331.166626 257.645721,336.685272 
	C256.007080,344.724487 256.298645,344.906830 264.593933,345.093658 
	C265.026855,355.445618 265.016357,365.753448 265.018127,376.529663 
z"/>
<path fill="#F2B33D" opacity="1.000000" stroke="none" 
	d="
M230.635712,83.360825 
	C235.538086,82.463142 240.071991,81.418236 244.656219,81.101654 
	C247.841949,80.881653 249.326141,79.891624 248.999435,76.658363 
	C248.966125,76.328667 248.994690,75.992393 248.999466,75.659248 
	C249.160156,64.438171 250.710403,63.097458 262.003143,65.176346 
	C263.175995,65.392250 264.651459,67.393814 264.863403,68.743248 
	C265.448914,72.470955 264.139130,77.331955 266.072998,79.749947 
	C267.642151,81.711884 272.847656,80.628342 276.399414,81.166206 
	C289.680969,83.177521 299.568207,97.210037 296.886688,110.243721 
	C296.690887,111.195549 295.718414,112.682671 295.034088,112.724373 
	C291.055176,112.966873 287.032562,113.070107 283.079102,112.675591 
	C282.269592,112.594810 281.183990,110.231064 281.087311,108.858917 
	C280.340637,98.265251 279.075409,97.001732 268.451416,97.000366 
	C259.788208,96.999252 251.124634,96.953232 242.461899,97.017555 
	C235.825439,97.066833 233.102310,99.821831 233.012466,106.453491 
	C232.956055,110.617737 232.976547,114.783531 233.006149,118.948326 
	C233.058319,126.290016 235.643997,128.955063 242.864334,128.988266 
	C252.526962,129.032715 262.189972,128.985458 271.852753,129.003647 
	C286.511963,129.031250 297.073456,139.513397 296.951660,154.199356 
	C296.892578,161.322311 297.334351,168.674011 295.757019,175.508499 
	C293.229248,186.461243 283.705353,192.922028 272.510834,192.999222 
	C265.004547,193.050980 265.004913,193.050980 264.999695,200.678940 
	C264.998657,202.178329 264.925873,203.681290 265.004913,205.176331 
	C265.151825,207.954254 263.867645,209.186890 261.128204,208.994232 
	C260.796814,208.970932 260.462036,209.000626 260.128876,208.997543 
	C246.795105,208.874222 249.034851,210.361649 249.110519,198.440765 
	C249.139709,193.844513 247.438232,192.503738 243.246994,192.984970 
	C229.886993,194.518875 215.432449,182.609604 216.919571,165.396179 
	C217.189362,162.273209 218.003860,160.688644 221.289993,160.991150 
	C222.281006,161.082367 223.287857,161.000946 224.287445,161.000153 
	C232.429749,160.993637 232.429749,160.993759 233.016037,168.972672 
	C233.374603,173.852386 236.056244,176.845428 240.890945,176.924744 
	C251.550430,177.099655 262.216248,177.091629 272.876343,176.938400 
	C277.975098,176.865112 280.797485,173.873291 280.955383,168.703735 
	C281.107849,163.710342 281.083160,158.706696 280.969574,153.711334 
	C280.839233,147.977127 278.024780,145.101791 272.293915,145.037109 
	C262.299164,144.924286 252.302216,145.013062 242.306229,144.997086 
	C227.356369,144.973190 217.023712,134.538712 217.001038,119.459518 
	C216.995285,115.627724 217.183960,111.785370 216.965118,107.966103 
	C216.337357,97.010208 221.087433,89.076447 230.635712,83.360825 
z"/>
<path fill="#F2B33D" opacity="1.000000" stroke="none" 
	d="
M169.172241,128.484863 
	C169.491333,126.734962 169.913879,125.437996 169.956650,124.128624 
	C170.076981,120.446053 172.078842,119.720634 175.296616,120.266838 
	C185.454315,121.991058 185.414886,121.951134 185.028152,131.595032 
	C184.207367,152.063202 189.791763,170.321838 204.020447,185.461929 
	C206.301712,187.889328 205.887344,189.505859 203.799728,191.738800 
	C195.185944,200.951996 195.264664,200.983749 187.510376,191.023056 
	C173.264236,172.723236 167.848450,151.819901 169.172241,128.484863 
z"/>
<path fill="#F2B33D" opacity="1.000000" stroke="none" 
	d="
M328.083801,135.902115 
	C326.421783,121.444351 320.402710,109.375870 311.229156,98.906921 
	C308.681488,95.999474 307.923004,94.446701 310.973145,91.301262 
	C318.626373,83.408936 318.695251,83.014854 325.721710,91.330177 
	C335.828186,103.290535 342.016510,117.277939 343.803925,132.786575 
	C344.780975,141.264252 344.023560,149.945419 343.967010,158.534271 
	C343.959686,159.643356 343.431183,161.720520 343.197845,161.712875 
	C338.716431,161.565750 334.184296,161.465042 329.818176,160.584076 
	C328.955750,160.410049 328.359894,157.051712 328.293304,155.139160 
	C328.075409,148.879807 328.158417,142.609955 328.083801,135.902115 
z"/>
<path fill="#F2B43E" opacity="1.000000" stroke="none" 
	d="
M197.519104,92.368279 
	C197.914368,93.461121 198.371414,94.481361 198.083740,95.205894 
	C197.478149,96.731094 196.502991,98.113937 195.642822,99.532982 
	C189.909393,108.991463 189.894821,108.940186 179.973022,103.516495 
	C177.436310,102.129822 176.473969,100.583244 178.039124,97.976555 
	C180.257462,94.282013 182.274231,90.428940 184.880112,87.029114 
	C185.593323,86.098610 188.484131,85.842285 189.713333,86.505013 
	C192.445740,87.978195 194.759247,90.228302 197.519104,92.368279 
z"/>
<path fill="#F2B43E" opacity="1.000000" stroke="none" 
	d="
M334.240295,179.678833 
	C338.986145,182.240753 336.108795,185.208023 334.671509,187.326492 
	C332.209137,190.955948 331.672089,197.674744 326.252563,197.084030 
	C322.372070,196.661072 318.906647,192.429932 315.037842,189.746536 
	C317.472137,185.320587 319.523315,181.189102 322.021820,177.348648 
	C322.601562,176.457504 324.861053,175.989151 326.078186,176.319382 
	C328.777252,177.051590 331.305450,178.413620 334.240295,179.678833 
z"/>
<path fill="#654A32" opacity="1.000000" stroke="none" 
	d="
M217.000854,443.839050 
	C216.999481,432.892029 217.001541,433.053345 227.621658,432.917480 
	C231.612122,432.866486 233.241348,433.875763 233.076614,438.163910 
	C232.586426,450.924347 235.073486,448.662140 221.857361,449.056519 
	C218.248978,449.164185 216.459595,448.112213 217.000854,443.839050 
z"/>
<path fill="#654A32" opacity="1.000000" stroke="none" 
	d="
M262.620056,433.076416 
	C264.762085,435.025726 265.969757,446.370911 264.482300,447.973267 
	C263.906891,448.593140 262.755615,448.837067 261.829987,448.949158 
	C249.669342,450.421906 248.334991,449.084473 248.950958,436.847931 
	C249.086121,434.162811 249.866898,432.857483 252.706619,432.979553 
	C255.854385,433.114838 259.011902,433.023865 262.620056,433.076416 
z"/>
<path fill="#654A32" opacity="1.000000" stroke="none" 
	d="
M296.999146,438.160889 
	C297.000549,449.108002 296.998474,448.946716 286.378387,449.082489 
	C282.387970,449.133545 280.758606,448.124359 280.923340,443.836151 
	C281.413635,431.075653 278.926361,433.337891 292.142609,432.943512 
	C295.750885,432.835846 297.540436,433.887634 296.999146,438.160889 
z"/>
</svg>