<svg version="1.1" id="Layer_1" xmlns="http://www.w3.org/2000/svg" xmlns:xlink="http://www.w3.org/1999/xlink" x="0px" y="0px"
	 width="100%" viewBox="0 0 512 512" enable-background="new 0 0 512 512" xml:space="preserve">
<path fill="#3E342C" opacity="1.000000" stroke="none" 
	d="
M513.000000,296.000000 
	C513.000000,303.354248 513.000000,310.708496 512.643066,318.534363 
	C507.725891,320.703003 503.081329,322.206848 498.629547,324.152039 
	C494.270966,326.056549 490.006622,328.240814 485.934662,330.690765 
	C484.956665,331.279205 484.209167,333.603607 484.547638,334.789520 
	C485.905914,339.548706 487.786194,344.156067 489.376282,348.852478 
	C495.930267,368.209564 495.075714,380.062592 478.117004,388.992432 
	C473.130371,391.618225 471.793976,394.796814 470.942413,399.479187 
	C468.111084,415.047516 458.367889,424.391663 442.705597,425.734711 
	C438.228821,426.118622 436.207977,427.898254 434.690186,431.557770 
	C430.058746,442.724487 421.677002,449.502563 409.820557,451.453339 
	C404.690643,452.297363 399.352570,451.815338 394.122314,452.145233 
	C392.404510,452.253571 390.481293,452.648254 389.087372,453.570251 
	C386.612885,455.207092 384.486420,457.365417 382.187195,459.272797 
	C371.960938,467.756256 360.518524,470.886688 347.865967,465.926086 
	C343.270020,464.124146 340.137329,465.198883 336.584930,467.848602 
	C326.697327,475.223694 315.850372,478.456177 303.809570,473.887329 
	C299.975952,472.432678 297.466766,473.525116 294.463013,475.828430 
	C285.963501,482.345917 276.665588,485.894897 265.585358,483.134918 
	C263.415741,482.594452 260.152649,483.958862 258.190033,485.475128 
	C245.364868,495.383728 230.944244,498.846222 215.539993,494.557251 
	C210.322983,493.104675 206.760010,493.829407 202.755997,496.107483 
	C193.589569,501.322693 183.714859,504.200439 173.596069,500.752686 
	C166.231750,498.243408 160.423264,500.065460 153.842743,502.736816 
	C141.182312,507.876282 129.513733,506.380981 119.981384,495.517853 
	C119.135658,494.554047 117.180779,493.790741 115.969574,494.040924 
	C104.882500,496.330902 94.495461,495.216888 85.016212,488.555450 
	C83.860626,487.743378 82.449203,487.295288 80.852661,486.533630 
	C79.207695,490.833496 77.495056,494.776672 76.200592,498.852692 
	C75.041100,502.503632 72.415550,503.949219 69.405342,502.500946 
	C68.063156,501.855194 67.275627,498.347534 67.587700,496.349915 
	C68.134712,492.848572 69.723282,489.509949 70.872017,486.113556 
	C62.651150,483.368683 57.289349,485.433777 53.830643,492.348328 
	C53.011463,493.985992 52.164673,495.609833 51.334484,497.242004 
	C49.838627,500.182983 47.715847,502.476227 44.250839,500.762573 
	C40.591942,498.953094 41.941895,495.783325 43.068718,492.960968 
	C43.894897,490.891602 44.841476,488.870270 45.791870,486.696075 
	C34.396080,484.557159 34.395977,484.557098 28.907917,493.068970 
	C28.727821,493.348297 28.613594,493.808075 28.371536,493.887482 
	C26.492579,494.503479 24.156166,495.978180 22.814638,495.353790 
	C21.437029,494.712555 20.393782,492.007263 20.368736,490.189178 
	C20.344315,488.416382 21.792500,486.623291 22.581549,484.867188 
	C10.104888,476.819183 10.104888,476.819183 14.575896,464.128876 
	C13.450791,463.597900 12.286448,463.062378 11.134297,462.501831 
	C8.610166,461.273773 6.197150,459.807922 7.466662,456.458160 
	C8.727700,453.130768 11.212088,452.930573 14.412787,453.932098 
	C23.057112,456.637054 25.224852,455.618652 30.452965,446.834625 
	C28.035723,445.752838 25.695175,444.597809 23.273602,443.649719 
	C20.449894,442.544220 18.974451,440.359070 20.490580,437.876373 
	C21.402376,436.383270 24.267561,435.009247 25.964371,435.296692 
	C29.323906,435.865784 32.435596,437.768799 35.743221,438.828705 
	C37.365311,439.348511 39.611561,439.944916 40.853386,439.238129 
	C44.243835,437.308502 47.250538,434.704559 51.327240,431.688599 
	C46.807106,429.198120 43.030727,427.523956 39.780651,425.134064 
	C38.409767,424.126007 37.331177,421.445435 37.654099,419.832275 
	C37.891232,418.647675 40.568665,417.388947 42.263397,417.221008 
	C43.875526,417.061249 45.695026,418.128265 47.296993,418.913635 
	C50.541332,420.504181 53.700211,422.269012 56.826138,423.925842 
	C57.523300,423.129578 57.960648,422.814148 58.137489,422.390076 
	C58.515747,421.483002 58.761509,420.520416 59.057606,419.579346 
	C62.251343,409.429108 66.968994,400.444122 77.592117,396.251617 
	C80.713646,395.019714 81.261368,392.763123 81.017738,389.887024 
	C80.530190,384.131622 82.554451,379.223999 85.686493,374.473877 
	C90.565323,367.074524 98.100212,364.029419 106.020477,362.038239 
	C111.169075,360.743835 114.049812,358.126343 115.237411,352.559113 
	C113.617264,352.097473 111.869499,351.026886 110.295769,351.240204 
	C95.537666,353.240906 81.175438,351.197174 67.038445,347.149933 
	C46.581955,341.293488 30.752127,329.348236 19.511169,311.130585 
	C10.701485,296.853180 6.307935,281.137207 3.022273,264.947754 
	C2.739105,263.552521 1.692153,262.312256 0.999997,261.000000 
	C1.000000,243.312439 1.000000,225.624878 1.372131,207.390625 
	C2.113096,206.326080 2.710970,205.851425 2.817899,205.284210 
	C8.109282,177.215958 19.060408,151.493927 36.372566,128.857788 
	C42.608459,120.704170 50.261768,112.876862 58.880562,107.471474 
	C73.820656,98.101593 90.863983,98.751419 107.586388,102.529175 
	C112.001961,103.526688 114.836792,103.020950 118.006805,99.687828 
	C124.425247,92.939140 132.549530,90.032196 141.934357,91.090950 
	C148.554901,91.837852 154.100159,89.475670 156.045303,83.443733 
	C159.680161,72.172050 162.221817,59.952225 151.077423,49.808880 
	C138.264160,38.146576 146.461792,21.243301 155.320755,13.882318 
	C166.209702,4.834617 179.509155,7.813798 189.460480,17.073792 
	C207.735672,34.079357 220.958435,54.292934 226.325272,78.946426 
	C227.856613,85.980957 229.609909,90.267448 238.295685,90.998085 
	C249.342773,91.927353 258.396606,99.058342 267.752380,104.747040 
	C269.527863,105.826607 272.700012,106.424744 274.359070,105.566261 
	C281.583740,101.827827 288.851349,99.204308 297.139465,100.764870 
	C298.031555,100.932838 299.311310,100.782021 299.957458,100.239052 
	C304.924408,96.065536 309.779175,91.758514 314.871063,87.316399 
	C304.627655,84.422531 295.487213,80.484177 288.208252,72.790634 
	C279.833191,63.938522 274.466644,53.305729 269.412170,42.482048 
	C268.617645,40.780678 268.821167,37.057423 269.880493,36.403744 
	C271.550598,35.373165 274.722534,35.382671 276.578583,36.311298 
	C281.907928,38.977695 286.804596,42.492588 292.039185,45.368427 
	C300.407440,49.965889 309.063354,53.731449 318.982941,53.029930 
	C324.774597,52.620342 330.576630,52.072926 336.373108,52.083321 
	C344.956787,52.098713 353.539642,52.554508 362.704529,52.840992 
	C362.635895,51.855976 362.866516,50.181309 362.362030,48.769302 
	C359.909607,41.905865 357.132538,35.156757 354.761322,28.267057 
	C354.079468,26.285976 353.476105,23.306723 354.456024,21.992382 
	C355.478180,20.621429 358.647888,19.873465 360.540436,20.312229 
	C366.323212,21.652863 372.237061,23.074711 377.563995,25.596777 
	C387.843811,30.463810 393.977051,38.445141 392.973083,50.520142 
	C392.245667,59.268864 391.665375,68.040565 390.563141,76.744232 
	C389.539978,84.823387 391.564026,89.461594 398.228394,92.242645 
	C397.641418,76.395180 400.562103,61.843243 414.094543,51.604683 
	C415.899780,50.238850 419.196350,49.317001 421.073303,50.051739 
	C422.600525,50.649586 423.636566,53.983692 423.831635,56.197697 
	C424.250153,60.947968 423.317383,65.879150 424.155487,70.516174 
	C425.428345,77.558342 427.736145,84.413467 429.644104,91.495674 
	C431.301971,90.862816 431.655975,90.826530 431.857452,90.632172 
	C432.454895,90.055794 433.105316,89.487053 433.535431,88.791862 
	C437.432434,82.493271 443.142792,79.356262 450.454956,78.895599 
	C454.422394,78.645668 458.387939,78.349686 462.348053,78.002617 
	C467.985748,77.508499 473.662415,77.068451 477.948334,72.635529 
	C481.618011,68.840019 485.095947,64.831024 489.029358,61.333324 
	C490.485474,60.038559 493.128296,59.207291 494.982910,59.540268 
	C496.203766,59.759472 497.838104,62.443344 497.826843,64.013077 
	C497.724915,78.207024 494.102448,90.975128 481.820770,99.743935 
	C478.915192,101.818451 475.826813,103.636955 473.363556,105.224541 
	C479.347565,111.295586 485.618408,116.924492 491.002563,123.301964 
	C498.046173,131.645096 500.919556,141.960403 502.978302,152.517593 
	C503.225861,153.786942 504.513702,155.421936 505.683807,155.822311 
	C507.987183,156.610458 510.546539,156.650497 513.000000,157.000000 
	C513.000000,167.354233 513.000000,177.708450 512.622559,188.616150 
	C511.734863,191.339737 511.160522,193.497040 510.724060,195.681885 
	C505.608124,221.291382 495.693787,244.723907 479.297516,265.240112 
	C478.628143,266.077667 478.307220,267.193787 477.373932,269.098663 
	C489.123840,262.197327 494.445465,263.173615 500.993744,273.732330 
	C504.885773,280.008057 507.648224,286.981293 510.990051,293.604889 
	C511.447083,294.510712 512.319763,295.206787 513.000000,296.000000 
M24.979460,467.007996 
	C32.633530,464.414581 40.287601,461.821167 48.613220,459.000244 
	C46.155766,455.544189 44.194687,452.786224 41.950474,449.630096 
	C35.720142,455.571198 29.975384,461.049255 24.516045,466.947998 
	C24.540115,467.102417 24.564186,467.256866 24.588251,467.411285 
	C24.703747,467.319275 24.819242,467.227264 24.934763,467.135223 
	C24.695217,466.934448 24.455673,466.733643 24.979460,467.007996 
M486.330719,77.275826 
	C480.391663,82.831596 473.434509,86.010284 465.247284,86.377029 
	C460.923401,86.570717 456.593781,86.734161 452.283142,87.102867 
	C445.193176,87.709312 441.548401,90.647491 439.804047,96.770615 
	C446.274658,98.064232 452.747131,99.396591 459.241394,100.612770 
	C460.153992,100.783669 461.218628,100.526527 462.135681,100.229294 
	C469.537598,97.830284 476.521454,94.472137 481.322113,88.212021 
	C483.822571,84.951393 485.040070,80.706909 486.923584,76.871101 
	C486.923584,76.871101 486.908569,76.940468 486.330719,77.275826 
M336.276306,437.952393 
	C323.242218,444.314697 309.944000,448.304840 295.722443,442.017120 
	C291.531921,453.670044 294.964386,461.317322 305.888092,465.510315 
	C315.186157,469.079315 330.582031,465.046265 336.528839,457.449799 
	C336.906036,456.967957 337.243622,456.285736 337.238281,455.700043 
	C337.184113,449.774200 337.054565,443.848999 337.160278,438.113525 
	C337.234070,438.045349 337.307892,437.977142 337.381714,437.908966 
	C337.313934,437.859802 337.246185,437.810669 337.178375,437.761536 
	C337.125244,437.849670 337.072113,437.937805 336.276306,437.952393 
M72.976318,339.764923 
	C73.270599,339.671051 73.564880,339.577179 73.859154,339.483307 
	C73.652061,339.245209 73.444962,339.007111 72.905457,338.190643 
	C60.417194,326.709869 50.538090,313.308838 43.131084,297.221375 
	C40.828609,289.457397 38.304142,281.746674 36.416580,273.883118 
	C36.052193,272.365082 38.180508,270.248657 39.158928,268.408295 
	C40.815136,269.612701 42.699928,270.611511 44.039574,272.100708 
	C44.810596,272.957825 44.558941,274.659637 45.007870,275.893860 
	C48.050526,284.258972 51.157246,292.600769 54.407829,301.608215 
	C62.331013,316.595245 73.755844,328.498077 86.707710,339.236206 
	C91.817352,343.472504 97.095825,343.295013 103.375893,342.765411 
	C100.499924,338.706543 97.401581,335.353119 95.477859,331.424500 
	C90.082626,320.406219 85.172028,309.150696 80.061188,297.202728 
	C79.718903,295.919281 79.395668,294.630371 79.031586,293.353149 
	C65.815750,246.990601 65.802040,201.383484 87.037659,157.068771 
	C90.914940,148.977631 95.112427,141.023514 99.581482,133.247177 
	C100.405983,131.812515 103.247887,131.537247 105.158623,130.726837 
	C105.689522,132.726303 106.414253,134.702881 106.654221,136.736679 
	C106.747917,137.530777 105.750244,138.452713 105.251961,139.317764 
	C84.049950,176.126266 72.851364,215.169861 80.134926,257.885956 
	C82.553474,272.070068 86.750244,285.950989 90.117226,300.717621 
	C94.276955,312.925507 99.364372,324.717896 107.783791,334.627899 
	C111.068932,338.494659 115.328049,341.582520 119.386414,344.709961 
	C120.414337,345.502014 122.700974,345.703369 123.840088,345.100586 
	C126.568382,343.656952 128.958298,341.573853 131.789047,339.529083 
	C122.800323,328.523407 117.581787,315.960022 113.176544,302.152802 
	C112.937439,301.013336 112.635979,299.882904 112.469154,298.732971 
	C111.204262,290.014343 109.919815,281.298096 108.745216,272.567139 
	C108.361595,269.715698 108.745476,266.921509 112.431450,266.765015 
	C116.030960,266.612244 116.643578,269.355103 116.852097,272.195587 
	C116.937439,273.358276 116.834351,274.549377 117.042923,275.686096 
	C118.598160,284.161804 120.210091,292.627136 121.848618,301.867340 
	C124.870293,313.258728 129.964508,323.644043 137.061752,333.041168 
	C140.937027,338.172211 148.049866,337.344025 151.468781,331.963165 
	C154.287689,327.526642 157.437653,322.941071 161.485397,319.743927 
	C165.694901,316.419006 166.953812,313.352814 166.180115,308.094116 
	C164.417938,296.116730 163.434753,284.024780 162.245453,271.049591 
	C162.347931,259.735229 161.881485,248.381165 162.667938,237.114563 
	C164.463684,211.389069 166.780945,185.698196 169.072784,160.009888 
	C170.166702,147.748734 171.699966,135.527039 173.001480,123.283997 
	C173.310410,120.378098 174.122131,117.789238 177.659683,118.101891 
	C180.947266,118.392448 181.345505,120.939812 181.104080,123.668167 
	C181.030746,124.497078 181.018921,125.331696 180.936600,126.159492 
	C178.104019,154.637207 174.911774,183.085220 172.562637,211.602676 
	C171.157776,228.656830 171.071976,245.819656 170.275940,263.793793 
	C171.562378,279.432617 172.848816,295.071442 174.147125,310.854614 
	C181.128540,309.778595 187.037216,309.094757 192.827240,307.856262 
	C194.940659,307.404175 196.958588,305.858215 198.693787,304.418121 
	C202.477142,301.278198 206.073273,297.910065 209.699432,294.584503 
	C211.096603,293.303162 213.144760,292.089539 213.566650,290.493561 
	C215.887848,281.712738 217.797348,272.823059 220.023361,263.108887 
	C220.298645,258.791840 220.644836,254.477737 220.824265,250.156708 
	C220.943741,247.279495 222.054703,244.757355 225.048431,245.355408 
	C226.597778,245.664917 228.492676,248.307495 228.759598,250.113525 
	C229.287354,253.684570 228.792114,257.406830 228.412979,261.792755 
	C226.768082,271.384186 225.123184,280.975616 223.452667,290.716431 
	C227.610123,291.573212 230.801025,291.217255 233.163223,286.296906 
	C237.824951,276.586761 246.289291,271.390259 256.804535,270.059052 
	C264.230682,269.118958 271.120148,268.121216 273.429382,259.395905 
	C273.741394,258.217010 275.111572,257.354706 275.798401,256.227966 
	C276.465942,255.132889 277.410614,253.848602 277.329224,252.712173 
	C276.714294,244.126755 275.876465,235.557327 275.177032,226.104675 
	C271.375214,194.214645 263.779327,163.279953 252.145569,133.320343 
	C248.943344,125.073837 243.394943,119.291885 235.653412,115.410950 
	C232.979263,114.070358 230.224930,112.876770 227.454865,111.744057 
	C224.621002,110.585251 222.730057,108.810425 224.171555,105.652222 
	C225.527786,102.680786 228.199890,103.008362 230.597397,104.229973 
	C237.517487,107.755981 244.363754,111.426880 251.801514,115.336555 
	C253.922333,114.114632 256.874603,112.413673 259.937561,110.648941 
	C241.625031,96.821640 220.897522,94.510162 205.939850,104.423073 
	C208.869827,109.051559 212.133255,113.502907 214.669785,118.335762 
	C225.562607,139.089813 228.210144,161.690445 228.752487,184.653275 
	C228.790588,186.265732 226.550461,189.048203 224.999619,189.343613 
	C222.010803,189.912949 221.024979,187.393860 220.786057,184.514557 
	C219.960266,174.562286 219.409882,164.554306 217.895721,154.699493 
	C215.440979,138.722839 210.294922,123.698448 200.087234,110.751350 
	C197.655609,107.667152 195.311493,107.034691 191.232117,107.417404 
	C182.380722,108.247826 173.373352,108.174614 164.494034,107.552834 
	C161.218353,107.323448 158.860016,107.481865 156.342499,109.485710 
	C142.035599,120.873451 131.943665,135.358185 125.097870,152.151184 
	C122.527603,158.456146 120.833977,165.120651 118.215591,171.402374 
	C117.559402,172.976593 114.873123,173.704636 113.119843,174.821564 
	C112.308632,172.912582 111.326561,171.051804 110.767822,169.071594 
	C110.534660,168.245255 111.179573,167.158203 111.463173,166.200928 
	C118.709854,141.740204 130.543884,120.120964 150.618881,103.615929 
	C142.016235,98.075562 132.955292,97.541550 126.978233,103.761681 
	C120.020676,111.002197 111.479263,114.179771 102.403435,117.195694 
	C81.766396,124.053452 65.164635,136.332428 56.470024,156.696045 
	C51.482430,168.377472 48.689968,181.008667 45.121643,193.274078 
	C44.304707,196.082138 44.170918,199.352753 40.320980,198.982925 
	C35.899437,198.558182 36.502449,194.933487 37.051624,192.030762 
	C38.226177,185.822433 39.457375,179.601288 41.139793,173.516571 
	C49.139706,144.583649 65.531982,122.746719 94.206642,111.438782 
	C94.952179,111.144768 95.566719,110.518578 97.059662,109.477203 
	C78.500404,107.670944 62.981846,111.154877 50.739235,124.885063 
	C36.903492,140.401962 27.062298,158.243042 19.614428,177.479172 
	C6.849005,210.449356 5.830086,243.991058 15.174257,278.716003 
	C16.478115,282.651794 17.604403,286.657196 19.114647,290.512115 
	C28.921453,315.544281 45.616768,333.123932 72.976318,339.764923 
M284.914734,51.450794 
	C284.747437,51.794346 284.580139,52.137897 284.677185,53.123466 
	C292.288483,67.867088 304.091644,76.998077 320.589539,79.639435 
	C324.482605,80.262718 328.716980,81.256706 332.375366,80.363739 
	C342.477661,77.897896 352.440216,75.634895 362.499420,78.565155 
	C364.700806,75.996445 366.637909,73.736137 368.690063,71.341545 
	C364.912628,65.136719 359.667938,61.154392 352.197327,60.863647 
	C347.049835,60.663311 341.840698,60.421833 336.739136,60.958950 
	C318.631195,62.865448 301.132629,61.835197 284.914734,51.450794 
M341.864868,160.298035 
	C339.200500,155.314270 336.803162,150.163986 333.819489,145.379318 
	C326.196625,133.155258 317.337921,121.953362 305.434662,113.524979 
	C298.081451,108.318375 290.364777,107.391335 281.872223,111.721024 
	C285.349609,114.663010 288.809906,117.006165 291.554535,120.004448 
	C314.778931,145.375366 324.581818,176.413284 329.002411,209.663483 
	C329.385895,212.548172 329.583252,215.810654 325.524750,216.061386 
	C321.675171,216.299225 321.272034,213.263092 320.937469,210.257553 
	C318.574585,189.032898 312.465149,168.898499 302.715271,149.928848 
	C297.296051,139.385040 291.132111,129.246536 281.477631,121.900597 
	C273.330750,115.701775 264.156891,116.098564 257.483246,121.738945 
	C263.364716,141.004700 269.555328,159.596863 274.632507,178.488266 
	C278.205109,191.781342 280.263641,205.481354 282.930267,219.868668 
	C283.902039,229.218719 284.873810,238.568756 285.788300,247.367569 
	C293.468414,246.661102 300.528381,245.681351 307.608002,245.508820 
	C310.833557,245.430191 312.915680,244.843155 315.314178,242.451294 
	C326.785156,231.011902 339.690857,223.759460 356.535675,230.554443 
	C356.902985,230.702591 357.422211,230.474121 358.444427,230.353775 
	C357.940582,224.642944 357.584045,219.027008 356.927246,213.446426 
	C354.775879,195.167191 350.632568,177.438873 341.864868,160.298035 
M409.275360,232.675873 
	C411.341248,235.775894 413.910828,236.167923 417.488983,235.102234 
	C433.060181,230.464645 443.007568,234.697220 450.454224,249.220886 
	C452.948700,254.086014 454.518890,259.418091 456.667999,264.470215 
	C457.733795,266.975677 459.154053,269.330383 460.506073,271.930450 
	C461.761658,271.238647 462.421661,271.032593 462.864624,270.602844 
	C464.537781,268.979492 466.248535,267.375061 467.751923,265.599823 
	C477.611511,253.957108 485.841125,241.246658 491.865143,227.223618 
	C499.158752,210.245102 503.599060,192.561157 504.009735,173.161972 
	C505.276428,165.013092 505.276428,165.009720 496.895142,165.009506 
	C451.288940,165.008347 405.682770,165.008957 360.076569,165.008957 
	C358.124817,165.008957 356.173065,165.008957 353.099457,165.008957 
	C362.131042,186.468201 365.209167,208.354172 367.001221,231.129898 
	C369.636993,229.735092 371.105225,229.006821 372.527496,228.197739 
	C382.908661,222.292282 393.163910,222.742874 403.317139,228.772232 
	C405.175232,229.875656 407.024017,230.994736 409.275360,232.675873 
M410.968597,156.813156 
	C411.900635,154.582565 413.531128,152.389999 413.654938,150.115417 
	C414.712433,130.687393 408.171753,114.213196 393.798950,100.972343 
	C393.013153,100.248436 392.012787,99.757462 390.784515,98.939880 
	C390.410370,100.172493 390.151459,100.922211 389.955017,101.687958 
	C385.280457,119.907730 372.331177,130.945007 356.758148,139.561966 
	C355.438751,140.292007 352.697021,139.875839 351.487000,138.905777 
	C350.599579,138.194336 350.821808,135.641449 351.138245,134.024460 
	C351.411133,132.629929 352.517639,131.399460 353.251282,130.094025 
	C359.235107,119.446175 362.472809,108.026649 362.679108,95.806549 
	C362.827820,86.997131 360.863037,84.955353 351.913574,85.243393 
	C338.727600,85.667793 326.840759,90.095207 316.216431,97.848793 
	C313.335876,99.951004 310.720673,102.416862 307.715027,104.941490 
	C325.893311,117.868950 338.154236,134.680664 347.711700,153.628143 
	C349.100464,156.381332 350.897064,156.923798 353.621307,156.912430 
	C372.434814,156.833954 391.248749,156.862946 410.968597,156.813156 
M422.826813,108.119484 
	C419.814697,109.370575 416.802551,110.621674 413.333405,112.062599 
	C420.638519,126.347931 423.468689,140.827179 421.296661,156.434845 
	C445.717041,156.434845 469.718750,156.434845 493.701752,156.434845 
	C494.661713,132.056854 466.333954,96.308762 422.826813,108.119484 
M223.229172,392.056519 
	C226.281754,401.768158 230.948868,410.461456 239.200546,416.789673 
	C244.790024,421.076263 251.071304,422.868256 257.961517,420.739410 
	C266.441559,418.119385 273.098816,412.788727 278.952637,406.110596 
	C262.540802,392.073578 255.904099,374.602478 258.986877,352.442688 
	C252.364716,352.970978 245.856964,352.894867 239.604630,354.121124 
	C228.814209,356.237457 222.957260,362.543274 221.922394,373.503082 
	C221.371796,379.334106 222.610718,385.334045 223.229172,392.056519 
M383.933533,310.693451 
	C367.163239,301.851654 352.082916,307.602081 348.283173,324.287659 
	C344.835297,339.428101 352.573029,359.675140 365.239258,368.655762 
	C376.785645,376.842438 390.002716,374.197510 397.528381,362.194244 
	C401.620361,355.667633 401.568665,355.421326 396.629944,349.641998 
	C395.121979,347.877350 393.717346,345.997223 392.475800,344.036743 
	C386.120178,334.001007 383.832642,322.957794 383.933533,310.693451 
M183.014694,412.333710 
	C185.761124,419.465881 189.860352,425.639252 195.963577,430.343567 
	C201.079025,434.286438 206.837799,436.340118 213.258041,434.783112 
	C220.990768,432.907867 227.364975,428.477356 233.660355,423.191010 
	C218.183273,408.759064 211.526184,391.276001 213.701355,369.827362 
	C207.975250,370.777039 202.678238,371.254425 197.602280,372.578888 
	C186.174072,375.560883 180.326904,382.630280 180.217758,394.463409 
	C180.165176,400.163391 181.865646,405.879547 183.014694,412.333710 
M392.723999,318.444031 
	C393.580414,330.790649 397.871796,341.526978 408.134491,348.999939 
	C414.615875,353.719452 421.960388,354.753174 429.371948,351.163757 
	C436.678894,347.625031 439.952026,341.278534 440.232880,333.395599 
	C440.668030,321.181549 436.529419,310.460876 428.509430,301.412476 
	C423.230713,295.456909 416.439575,292.487823 408.328003,294.645264 
	C399.910095,296.884155 395.354370,302.945557 393.304382,311.068085 
	C392.782379,313.136444 392.880066,315.361206 392.723999,318.444031 
M302.871460,370.526276 
	C298.156189,360.719055 297.645813,350.454742 300.200592,338.445526 
	C293.581329,339.301117 287.613464,339.394257 282.047394,340.936890 
	C271.335999,343.905518 266.155670,351.126404 266.114594,362.268982 
	C266.072723,373.622894 269.768280,383.852844 276.826660,392.707550 
	C288.100525,406.850555 308.973083,404.869720 317.463135,390.005524 
	C312.491394,383.480347 307.822052,377.352051 302.871460,370.526276 
M348.292755,362.134521 
	C341.476746,350.857635 338.199066,338.738464 339.719116,325.540222 
	C323.115631,322.240234 309.124359,330.932404 307.072144,345.902954 
	C305.547302,357.026642 308.416656,367.038513 315.712402,375.614563 
	C326.211273,387.955719 343.095947,391.074371 357.502594,373.601227 
	C354.549286,369.943268 351.635162,366.333862 348.292755,362.134521 
M145.396225,397.936310 
	C140.486542,403.261993 139.064743,409.666931 140.526184,416.501495 
	C141.630463,421.665741 143.207321,426.825867 145.321625,431.660828 
	C155.745270,455.497406 177.469818,449.547760 189.770508,436.135895 
	C176.146133,423.556915 170.533905,407.852875 172.108368,389.577423 
	C162.713470,388.352966 152.945831,391.340668 145.396225,397.936310 
M473.996033,301.613037 
	C472.267212,298.209320 470.834564,294.612122 468.759094,291.434845 
	C458.973175,276.454041 441.338257,277.629059 432.995056,293.899902 
	C443.114258,304.956848 448.400787,318.057587 448.715179,333.172791 
	C448.735931,334.170685 449.720337,335.759308 450.588104,336.036987 
	C463.146423,340.055603 476.257263,333.844910 476.942474,321.378510 
	C477.287231,315.106445 475.220551,308.701813 473.996033,301.613037 
M182.585342,22.708811 
	C181.535339,22.132572 180.485352,21.556334 179.453369,20.989975 
	C178.553680,25.587263 177.589844,29.625055 177.055130,33.718895 
	C176.864212,35.180576 177.346252,37.006489 178.140991,38.279030 
	C189.584717,56.602898 190.528351,75.784172 183.115524,95.721992 
	C182.576508,97.171753 182.239578,98.696655 181.758972,100.358574 
	C196.479919,100.335022 198.395630,98.248146 196.566177,84.959076 
	C196.520782,84.629356 196.455185,84.302383 196.397842,83.974335 
	C195.863586,80.918732 196.075745,77.892738 199.741837,77.353638 
	C203.224243,76.841545 204.097549,79.650452 204.423447,82.511475 
	C204.884384,86.557846 205.345520,90.604195 205.842621,94.966934 
	C210.926788,93.486359 215.339508,92.201317 220.103073,90.814102 
	C215.709167,63.620014 203.047653,41.437817 182.585342,22.708811 
M332.446411,294.702942 
	C334.154480,302.120331 337.947571,308.293732 343.381348,313.867279 
	C350.867828,301.217987 361.781342,296.770447 374.299316,298.475708 
	C373.045380,291.811249 370.419891,284.981018 370.913391,278.384033 
	C371.365082,272.345245 369.332214,270.218994 364.608826,268.201447 
	C348.997009,261.533020 335.396973,268.001465 332.400391,283.947510 
	C331.798828,287.148651 332.268616,290.551117 332.446411,294.702942 
M405.080414,411.790680 
	C411.738129,406.918640 414.765839,399.891876 417.090179,392.020508 
	C408.556671,387.078491 404.962769,379.021454 403.077942,370.933655 
	C397.666840,374.109589 392.659058,378.463531 386.892975,380.034576 
	C381.143311,381.601227 374.633453,380.378082 367.445679,380.378082 
	C368.502716,385.793854 368.953430,391.293518 370.681335,396.357391 
	C375.849518,411.503387 390.798309,418.303894 405.080414,411.790680 
M326.423920,302.856750 
	C325.265442,296.080078 324.106934,289.303406 322.930359,282.421051 
	C304.502258,282.947754 297.165985,287.775818 292.381805,303.900146 
	C289.204254,314.609528 294.450012,325.574097 303.352081,329.917053 
	C308.340027,326.387299 312.548920,322.443024 317.520874,320.162537 
	C322.472198,317.891541 328.189392,317.290344 333.596069,315.950714 
	C331.361206,311.892151 329.065887,307.723755 326.423920,302.856750 
M360.854675,390.718842 
	C360.445740,388.551208 360.036774,386.383575 359.599823,384.067413 
	C344.793945,393.416168 344.793945,393.416168 327.702545,393.357635 
	C324.116516,407.121735 328.170563,416.817474 340.117249,423.049103 
	C352.325714,429.417267 365.093048,426.741699 374.584595,415.719513 
	C367.104767,409.337708 362.456207,401.314209 360.854675,390.718842 
M412.397034,360.076019 
	C411.639221,361.073883 410.090637,362.230743 410.254028,363.043365 
	C411.196899,367.732758 411.958710,372.602203 413.885345,376.918060 
	C417.169983,384.275909 423.629181,387.599670 431.503143,387.929657 
	C439.384796,388.260010 445.225159,384.631775 449.134338,377.868774 
	C454.399170,368.760498 452.666199,356.435608 445.000336,348.042542 
	C433.677979,360.221924 426.066010,363.156952 412.397034,360.076019 
M388.795776,263.073547 
	C375.464325,272.995087 375.260834,291.081970 388.473694,300.614685 
	C396.273651,288.221252 407.409119,283.613403 421.697388,286.948822 
	C422.417938,268.340973 405.123047,255.559036 388.795776,263.073547 
M227.202042,437.765228 
	C218.893295,442.492188 210.203796,445.158203 199.869049,441.891907 
	C200.329071,446.334900 200.499512,449.961792 201.116028,453.511200 
	C202.293488,460.290131 206.392227,464.473938 213.139755,465.885010 
	C226.617813,468.703613 237.698746,463.494415 248.486633,455.374176 
	C239.986420,449.626953 238.277588,440.793945 236.820526,431.594604 
	C233.380295,433.798309 230.599060,435.579895 227.202042,437.765228 
M173.289047,375.133331 
	C174.048523,376.198700 174.807999,377.264069 175.950226,378.866333 
	C184.036682,365.227264 197.317215,364.053833 210.046600,361.932190 
	C207.828979,357.464996 205.269104,353.639099 204.025421,349.424774 
	C202.807983,345.299377 202.931610,340.778259 202.391052,335.724396 
	C195.885727,337.509888 189.154175,338.234955 183.525558,341.115326 
	C167.390839,349.371948 161.058197,361.024872 173.289047,375.133331 
M322.289673,434.963501 
	C326.207794,433.272766 330.125885,431.582001 335.022064,429.469208 
	C323.965729,423.037231 318.239624,414.205780 318.333954,401.267975 
	C308.896179,408.102875 299.456085,412.042969 288.602112,410.267487 
	C285.661133,424.340881 288.890198,431.166229 300.058777,435.026093 
	C307.180786,437.487457 314.345734,438.046509 322.289673,434.963501 
M269.483398,337.951050 
	C276.425476,335.129547 283.367584,332.308044 290.494019,329.411621 
	C282.869598,321.154388 281.447540,310.621552 285.306641,298.868469 
	C273.739075,301.810181 263.549194,304.999725 257.072479,314.948547 
	C249.500183,326.580231 251.539368,336.171417 263.479218,343.525085 
	C265.284210,341.813660 267.089203,340.102234 269.483398,337.951050 
M322.646759,246.165207 
	C314.615875,254.939911 316.449249,262.693390 328.456696,270.735992 
	C339.764313,258.262329 340.696930,257.878601 360.028534,257.578705 
	C359.688538,252.103470 359.347321,246.608368 358.994019,240.919312 
	C348.917938,234.423798 338.542145,234.326721 328.342133,241.780075 
	C326.600525,243.052689 324.895386,244.375183 322.646759,246.165207 
M417.850311,410.498901 
	C409.699890,421.488861 398.712891,424.704498 384.903839,421.562439 
	C384.903839,426.174896 384.704437,430.126038 384.952515,434.048859 
	C385.289581,439.378632 388.320892,442.986389 393.568787,443.528748 
	C410.656525,445.294739 423.609344,440.916656 428.053711,424.410797 
	C424.582794,419.288361 421.555573,414.820740 417.850311,410.498901 
M253.177490,306.704803 
	C260.276428,297.283661 271.249176,294.594696 281.320862,291.183197 
	C277.383453,286.510284 273.843475,282.161224 270.099243,277.995728 
	C269.389618,277.206268 267.786072,276.652588 266.738037,276.830902 
	C261.512604,277.720001 256.084076,278.234253 251.195435,280.104645 
	C242.469894,283.443115 238.156891,290.757416 237.115143,299.721100 
	C236.238419,307.264801 241.449112,311.358154 247.144394,315.197266 
	C249.138382,312.369690 250.937408,309.818573 253.177490,306.704803 
M478.608551,291.986908 
	C481.512299,300.877716 484.416046,309.768494 487.238586,318.410675 
	C491.488312,317.424164 496.838226,316.426697 501.994690,314.811676 
	C503.267914,314.412903 504.758606,311.980560 504.713867,310.527191 
	C504.302643,297.164917 499.890930,285.201294 491.093140,275.053802 
	C490.220428,274.047211 487.744812,273.307617 486.643402,273.814240 
	C481.588348,276.139343 476.757416,278.951691 471.952728,281.531860 
	C473.951477,284.671661 476.079620,288.014771 478.608551,291.986908 
M119.909584,445.507111 
	C128.929855,456.159576 137.844238,456.766846 145.575806,447.104645 
	C136.966400,436.522217 132.464371,424.266479 131.744293,410.725464 
	C121.363609,408.999207 114.908630,413.785248 113.815506,423.748505 
	C112.960648,431.540100 115.087769,438.538727 119.909584,445.507111 
M246.254669,438.001495 
	C247.563522,448.217010 261.988708,456.461395 270.360565,451.250519 
	C276.430054,447.472717 281.674713,442.369690 285.941284,438.939606 
	C282.831512,431.053741 280.408936,424.910431 277.949219,418.673004 
	C268.778717,425.884491 258.571747,431.844971 245.022369,428.948273 
	C245.425903,432.060883 245.759583,434.634705 246.254669,438.001495 
M245.343597,344.864044 
	C247.092361,344.707245 248.841141,344.550476 249.439743,344.496796 
	C247.649033,338.432251 246.084229,332.662292 244.162262,327.013855 
	C243.769714,325.860199 242.103989,324.497314 240.908737,324.375824 
	C236.793167,323.957306 232.618896,323.840302 228.479904,323.982941 
	C218.782211,324.317139 212.718063,329.792297 211.154617,339.303925 
	C209.893143,346.978424 213.829025,352.579651 218.524902,358.365234 
	C225.142426,349.466217 234.209412,345.977722 245.343597,344.864044 
M297.547302,280.925507 
	C304.268005,278.342590 310.988708,275.759674 317.006805,273.446808 
	C314.041534,267.479675 310.853241,261.063843 306.976227,253.262024 
	C302.530914,253.885422 296.497528,254.060333 290.888947,255.693741 
	C284.380310,257.589294 279.569489,262.253204 277.848816,269.033783 
	C277.275208,271.294312 277.628601,274.739807 279.035278,276.365845 
	C282.531250,280.407043 286.877655,283.712463 290.798676,287.237885 
	C293.360168,284.799561 295.165436,283.081085 297.547302,280.925507 
M369.543274,457.231934 
	C373.889557,454.117523 378.235809,451.003082 381.056610,448.981781 
	C378.761932,440.435608 376.921417,433.580902 375.086151,426.745758 
	C371.113159,428.731812 366.885193,431.541779 362.233093,432.977173 
	C357.471649,434.446259 352.294647,434.568542 346.687866,435.367523 
	C346.249603,437.444275 345.649200,440.175232 345.098877,442.916229 
	C342.196472,457.372467 351.375092,459.819702 361.686859,459.444336 
	C364.101562,459.356445 366.479095,458.246857 369.543274,457.231934 
M388.811798,254.036469 
	C395.447540,253.488663 402.083252,252.940857 409.285400,252.346298 
	C409.208160,252.943970 409.437775,252.153503 409.390961,251.379730 
	C408.802887,241.660263 399.196564,232.852829 388.410004,232.102707 
	C380.488190,231.551819 369.983917,237.799850 367.711151,244.414551 
	C365.661621,250.379654 369.397858,259.159821 375.290955,263.191071 
	C379.696533,260.132568 383.890503,257.220947 388.811798,254.036469 
M459.078522,382.608215 
	C457.060211,379.806671 456.246918,382.069336 455.266571,383.526672 
	C449.153717,392.613770 440.561157,396.599640 429.715302,396.002167 
	C428.307495,395.924622 426.891693,395.991547 424.622589,395.991547 
	C425.293549,400.233368 425.514954,403.875061 426.496124,407.299011 
	C427.891846,412.169556 430.780334,416.218414 436.199646,416.892242 
	C444.755737,417.956116 452.756653,416.102417 457.889282,408.691681 
	C463.379150,400.765045 465.648987,392.101166 459.078522,382.608215 
M153.014725,361.434509 
	C151.161423,362.161835 149.323105,362.930450 147.452286,363.609497 
	C138.623734,366.813995 132.490814,372.638336 129.707550,381.751190 
	C127.663208,388.444702 129.246201,394.103668 134.668762,399.076477 
	C141.608978,386.317291 153.580551,382.542755 166.074478,381.034515 
	C163.065262,374.124359 160.143936,367.415985 157.034393,360.275421 
	C156.539963,360.407684 155.144623,360.780975 153.014725,361.434509 
M181.976166,473.972992 
	C187.672745,472.056580 193.369339,470.140198 197.915237,468.610901 
	C195.406372,460.713593 193.201675,453.773773 190.944550,446.668884 
	C180.454163,454.006470 168.986450,458.899963 155.217514,453.999542 
	C154.986099,461.031647 156.986115,466.282959 162.575729,469.869904 
	C168.239990,473.504730 174.393127,474.992401 181.976166,473.972992 
M178.123184,58.534142 
	C175.998062,53.286320 173.872940,48.038498 171.634705,42.511341 
	C167.797485,45.084061 165.086121,46.901943 162.914474,48.357948 
	C169.311523,65.619080 169.907623,81.644989 157.139175,96.981133 
	C161.165909,98.110458 164.933624,99.105125 168.660736,100.233818 
	C171.226593,101.010857 172.650803,100.152878 173.633972,97.684654 
	C178.566620,85.301468 181.741058,72.730309 178.123184,58.534142 
M103.036293,422.616760 
	C99.340408,423.779510 95.100143,424.163391 92.071228,426.280396 
	C87.036690,429.799286 87.290146,433.474426 90.073212,438.863647 
	C92.548615,443.657074 95.059830,448.860565 95.625298,454.091705 
	C96.195198,459.363800 98.942688,460.931549 102.977791,461.735535 
	C109.159851,462.967377 113.855690,460.282440 117.766731,455.461243 
	C109.364029,446.840118 105.107704,436.736877 105.368675,424.802399 
	C105.383629,424.118622 104.388245,423.412750 103.036293,422.616760 
M157.712753,338.604309 
	C159.133698,341.549042 160.554642,344.493744 161.753128,346.977448 
	C168.238770,342.140381 173.352676,337.165405 179.432251,334.115112 
	C185.645615,330.997681 192.806412,329.768585 199.319824,327.783722 
	C197.648438,323.981262 195.997360,320.225006 194.304886,316.374542 
	C178.361877,315.574554 162.858566,324.629822 157.712753,338.604309 
M211.938004,483.184418 
	C214.414291,484.415161 216.766861,486.185791 219.387558,486.786255 
	C233.141220,489.937561 244.827408,485.544250 254.963531,476.661865 
	C253.603470,472.410675 252.322983,468.408173 250.889145,463.926392 
	C238.911362,471.971100 226.212891,477.112000 210.666473,473.606903 
	C210.991257,477.056061 211.246887,479.770813 211.938004,483.184418 
M216.336945,318.623199 
	C222.051056,317.316223 227.765152,316.009277 232.936310,314.826477 
	C231.274353,309.851990 229.527618,304.623718 227.685226,299.109161 
	C220.298172,299.382690 212.771240,300.244629 207.195984,306.613037 
	C201.420761,313.209900 201.889725,318.769623 208.598862,324.448029 
	C210.967468,322.620697 213.324020,320.802643 216.336945,318.623199 
M286.316284,456.063843 
	C286.053467,454.506897 285.790649,452.949951 285.486450,451.147797 
	C281.420654,453.842621 277.970215,456.897461 273.946320,458.584320 
	C269.785339,460.328644 265.067505,460.744537 260.417999,461.780609 
	C259.127563,469.111603 262.099854,473.603241 269.590912,474.966919 
	C278.707184,476.626404 285.587067,472.450439 291.536438,466.962006 
	C289.740173,463.301270 288.145660,460.051788 286.316284,456.063843 
M89.523270,475.994293 
	C88.661240,476.902557 87.799217,477.810822 86.740417,478.926422 
	C94.756821,485.075623 102.810516,488.754395 112.831551,485.598267 
	C116.204292,484.536011 118.686714,483.191803 118.404228,479.372528 
	C118.121971,475.556488 117.446587,471.769531 117.086578,469.050232 
	C109.172226,469.050232 102.091187,469.050232 94.386864,469.050232 
	C93.339157,470.581512 91.671936,473.018280 89.523270,475.994293 
M92.837036,406.855438 
	C90.263084,405.328430 87.496902,402.254028 85.148903,402.545746 
	C75.634087,403.727814 66.815903,415.903137 67.464569,425.787109 
	C69.570854,426.111694 71.712547,426.314301 73.789261,426.796661 
	C75.988029,427.307312 78.125015,428.084076 79.812256,428.599121 
	C82.337730,425.411041 84.241661,422.192810 86.917480,419.859863 
	C89.569511,417.547699 92.999504,416.127838 96.044220,414.342438 
	C95.046158,412.094269 94.043694,409.836151 92.837036,406.855438 
M384.007233,63.405220 
	C384.101501,57.767975 384.774658,52.066231 384.155365,46.508495 
	C383.209198,38.017307 375.364899,31.758804 367.397980,31.554302 
	C369.221344,41.634251 371.003784,51.882030 372.954987,62.097572 
	C373.844818,66.756187 377.751770,70.059578 382.733551,70.551750 
	C383.128601,68.478065 383.529724,66.372337 384.007233,63.405220 
M370.153442,83.155052 
	C371.681793,96.570648 370.554993,109.750359 365.624756,123.377342 
	C378.563965,114.538483 385.544098,97.943687 382.308990,84.277069 
	C381.763641,81.973244 379.496765,79.261406 377.342529,78.347458 
	C374.208344,77.017761 371.698608,79.233994 370.153442,83.155052 
M174.119568,482.301178 
	C171.098282,481.800934 168.076996,481.300690 164.914124,480.777008 
	C164.136520,486.120209 166.081680,489.401825 170.508377,491.146606 
	C181.952927,495.657318 192.375671,492.838470 202.204041,486.441681 
	C202.842270,486.026276 203.351685,484.810699 203.283508,484.022522 
	C203.058929,481.425720 202.541107,478.854309 202.266296,477.103821 
	C192.962265,478.914795 183.957413,480.667542 174.119568,482.301178 
M121.299423,369.848877 
	C122.197792,370.881287 123.096161,371.913727 124.482895,373.507385 
	C130.760468,359.955536 143.336807,356.489471 155.281281,351.864075 
	C153.851364,349.751862 152.927505,347.925659 151.567108,346.522766 
	C150.466110,345.387421 148.722641,343.880920 147.464737,344.048126 
	C136.736084,345.474243 127.573639,349.933319 122.234093,359.791107 
	C120.831230,362.381073 121.347725,366.010620 121.299423,369.848877 
M103.729813,394.400421 
	C98.517624,402.783478 100.129890,409.519043 108.512459,413.253571 
	C112.053200,406.424377 118.194290,403.176727 124.915253,402.160858 
	C123.114952,396.553528 121.422539,391.282227 119.604782,385.620514 
	C114.226944,387.129333 108.435310,388.923370 103.729813,394.400421 
M423.620605,99.415596 
	C423.552399,98.237854 423.737793,96.974792 423.374908,95.896187 
	C420.952972,88.696999 418.201111,81.601425 416.008301,74.335800 
	C415.004456,71.009659 415.025879,67.374077 414.533173,63.491821 
	C406.178345,72.826675 404.281372,92.566566 410.330872,104.030220 
	C414.515015,102.589531 418.720154,101.141609 423.620605,99.415596 
M148.814743,465.492432 
	C148.099091,463.017517 147.383438,460.542603 146.551590,457.665863 
	C140.023331,462.323425 133.160965,463.103546 126.078003,460.779541 
	C123.050674,470.825195 127.670776,478.086945 137.416672,477.990906 
	C142.919159,477.936707 148.401733,475.859985 154.191437,474.631012 
	C151.972717,471.002258 150.509293,468.608795 148.814743,465.492432 
M469.187042,361.690704 
	C475.680664,355.878082 477.735596,348.666290 476.518036,340.907196 
	C468.959167,342.843750 461.780304,344.682953 455.020111,346.414886 
	C456.994080,352.628113 459.170074,359.477203 461.502106,366.817352 
	C463.734283,365.353302 466.182343,363.747620 469.187042,361.690704 
M445.504364,265.940887 
	C438.244598,259.531372 430.034973,259.581421 421.919525,261.927704 
	C424.927765,268.852783 427.840210,275.557281 430.656189,282.039673 
	C433.552826,280.001434 436.448303,277.442017 439.786591,275.763123 
	C443.066925,274.113342 446.796967,273.357788 450.882599,272.030151 
	C449.200439,270.081573 447.618317,268.248901 445.504364,265.940887 
M127.949577,491.367004 
	C136.497971,498.945648 146.826935,498.825592 157.991867,490.923889 
	C157.327042,488.129242 156.648605,485.277374 155.852707,481.931793 
	C146.106720,486.193939 136.445847,488.662994 125.270538,482.780151 
	C126.222443,486.273712 126.838432,488.534454 127.949577,491.367004 
M102.132652,384.554596 
	C106.836304,382.154236 111.539955,379.753845 116.290390,377.329620 
	C114.927788,374.904541 113.482887,372.332977 112.066696,369.812531 
	C99.981087,370.858856 91.366074,377.450897 89.519562,386.908997 
	C88.786919,390.661713 89.730530,393.673035 92.582275,395.814758 
	C95.732773,392.019806 98.647568,388.508789 102.132652,384.554596 
M158.566513,40.974968 
	C167.895569,36.442310 172.367050,28.747356 169.955643,20.718409 
	C169.568359,19.428925 167.300354,17.612930 166.210968,17.803928 
	C159.463379,18.986944 151.980759,29.737356 153.142487,36.470013 
	C153.542328,38.787312 153.657333,42.278812 158.566513,40.974968 
M426.731995,241.611084 
	C416.000336,242.830292 415.359009,243.786789 418.430237,253.401642 
	C426.861328,253.401642 435.171509,253.401642 443.299774,253.401642 
	C440.409607,247.202515 436.394928,241.340439 426.731995,241.611084 
M469.042419,382.728577 
	C480.369843,381.221436 488.663422,370.786499 482.964844,359.177429 
	C477.031769,364.524139 470.857056,370.088562 464.416931,375.892181 
	C465.479095,377.525452 466.996735,379.859192 469.042419,382.728577 
M73.778404,448.986603 
	C77.259583,447.741180 80.740768,446.495758 84.347984,445.205231 
	C78.577385,435.503540 71.905281,432.542236 63.679966,435.459015 
	C66.807152,439.856293 69.946526,444.270721 73.778404,448.986603 
M77.753113,466.828888 
	C77.753113,469.069824 77.753113,471.310760 77.753113,473.785370 
	C86.550331,470.199677 90.152184,461.579315 86.665482,452.983032 
	C83.209213,454.330078 79.753662,455.676849 76.386406,456.989197 
	C76.878761,460.403473 77.280373,463.188507 77.753113,466.828888 
M59.612423,469.135742 
	C59.839523,471.706696 60.066628,474.277679 60.289867,476.804962 
	C69.542015,476.909393 70.226715,476.206940 69.558014,467.391846 
	C69.377174,465.007843 69.022095,462.637054 68.608749,459.065857 
	C65.086060,462.871490 57.266716,460.110046 59.612423,469.135742 
M32.322399,476.677185 
	C38.715504,476.677185 45.108604,476.677185 52.114975,476.677185 
	C51.754158,473.357819 51.408844,470.181122 51.006226,466.477234 
	C42.882000,469.563782 35.431427,472.394409 26.802227,475.672821 
	C29.275410,476.139526 30.402367,476.352203 32.322399,476.677185 
M55.326324,455.034027 
	C58.634300,454.251953 61.942280,453.469910 66.557640,452.378784 
	C62.273762,447.319916 59.014721,443.471313 55.564522,439.396973 
	C52.883579,441.367218 50.794510,442.902496 48.638767,444.486786 
	C50.890614,448.014313 52.933506,451.214508 55.326324,455.034027 
z"/>
<path fill="#" opacity="1." stroke="none" 
	d="
M513.,156.531342 
	C510.546539,156.650497 507.987183,156.610458 505.683807,155.822311 
	C504.513702,155.421936 503.225861,153.786942 502.978302,152.517593 
	C500.919556,141.960403 498.046173,131.645096 491.002563,123.301964 
	C485.618408,116.924492 479.347565,111.295586 473.363556,105.224541 
	C475.826813,103.636955 478.915192,101.818451 481.820770,99.743935 
	C494.102448,90.975128 497.724915,78.207024 497.826843,64.013077 
	C497.838104,62.443344 496.203766,59.759472 494.982910,59.540268 
	C493.128296,59.207291 490.485474,60.038559 489.029358,61.333324 
	C485.095947,64.831024 481.618011,68.840019 477.948334,72.635529 
	C473.662415,77.068451 467.985748,77.508499 462.348053,78.002617 
	C458.387939,78.349686 454.422394,78.645668 450.454956,78.895599 
	C443.142792,79.356262 437.432434,82.493271 433.535431,88.791862 
	C433.105316,89.487053 432.454895,90.055794 431.857452,90.632172 
	C431.655975,90.826530 431.301971,90.862816 429.644104,91.495674 
	C427.736145,84.413467 425.428345,77.558342 424.155487,70.516174 
	C423.317383,65.879150 424.250153,60.947968 423.831635,56.197697 
	C423.636566,53.983692 422.600525,50.649586 421.073303,50.051739 
	C419.196350,49.317001 415.899780,50.238850 414.094543,51.604683 
	C400.562103,61.843243 397.641418,76.395180 398.228394,92.242645 
	C391.564026,89.461594 389.539978,84.823387 390.563141,76.744232 
	C391.665375,68.040565 392.245667,59.268864 392.973083,50.520142 
	C393.977051,38.445141 387.843811,30.463810 377.563995,25.596777 
	C372.237061,23.074711 366.323212,21.652863 360.540436,20.312229 
	C358.647888,19.873465 355.478180,20.621429 354.456024,21.992382 
	C353.476105,23.306723 354.079468,26.285976 354.761322,28.267057 
	C357.132538,35.156757 359.909607,41.905865 362.362030,48.769302 
	C362.866516,50.181309 362.635895,51.855976 362.704529,52.840992 
	C353.539642,52.554508 344.956787,52.098713 336.373108,52.083321 
	C330.576630,52.072926 324.774597,52.620342 318.982941,53.029930 
	C309.063354,53.731449 300.407440,49.965889 292.039185,45.368427 
	C286.804596,42.492588 281.907928,38.977695 276.578583,36.311298 
	C274.722534,35.382671 271.550598,35.373165 269.880493,36.403744 
	C268.821167,37.057423 268.617645,40.780678 269.412170,42.482048 
	C274.466644,53.305729 279.833191,63.938522 288.208252,72.790634 
	C295.487213,80.484177 304.627655,84.422531 314.871063,87.316399 
	C309.779175,91.758514 304.924408,96.065536 299.957458,100.239052 
	C299.311310,100.782021 298.031555,100.932838 297.139465,100.764870 
	C288.851349,99.204308 281.583740,101.827827 274.359070,105.566261 
	C272.700012,106.424744 269.527863,105.826607 267.752380,104.747040 
	C258.396606,99.058342 249.342773,91.927353 238.295685,90.998085 
	C229.609909,90.267448 227.856613,85.980957 226.325272,78.946426 
	C220.958435,54.292934 207.735672,34.079357 189.460480,17.073792 
	C179.509155,7.813798 166.209702,4.834617 155.320755,13.882318 
	C146.461792,21.243301 138.264160,38.146576 151.077423,49.808880 
	C162.221817,59.952225 159.680161,72.172050 156.045303,83.443733 
	C154.100159,89.475670 148.554901,91.837852 141.934357,91.090950 
	C132.549530,90.032196 124.425247,92.939140 118.006805,99.687828 
	C114.836792,103.020950 112.001961,103.526688 107.586388,102.529175 
	C90.863983,98.751419 73.820656,98.101593 58.880562,107.471474 
	C50.261768,112.876862 42.608459,120.704170 36.372566,128.857788 
	C19.060408,151.493927 8.109282,177.215958 2.817899,205.284210 
	C2.710970,205.851425 2.113096,206.326080 1.372131,206.921967 
	C1.000000,138.367691 1.000000,69.735397 1.000000,1.051545 
	C171.546875,1.051545 342.093781,1.051545 513.000000,1.051545 
	C513.000000,52.687004 513.000000,104.374847 513.000000,156.531342 
z"/>
<path fill="#000000" opacity="1.000000" stroke="none" 
	d="
M0.,261.468658 
	C1.692153,262.312256 2.739105,263.552521 3.022273,264.947754 
	C6.307935,281.137207 10.701485,296.853180 19.511169,311.130585 
	C30.752127,329.348236 46.581955,341.293488 67.038445,347.149933 
	C81.175438,351.197174 95.537666,353.240906 110.295769,351.240204 
	C111.869499,351.026886 113.617264,352.097473 115.237411,352.559113 
	C114.049812,358.126343 111.169075,360.743835 106.020477,362.038239 
	C98.100212,364.029419 90.565323,367.074524 85.686493,374.473877 
	C82.554451,379.223999 80.530190,384.131622 81.017738,389.887024 
	C81.261368,392.763123 80.713646,395.019714 77.592117,396.251617 
	C66.968994,400.444122 62.251343,409.429108 59.057606,419.579346 
	C58.761509,420.520416 58.515747,421.483002 58.137489,422.390076 
	C57.960648,422.814148 57.523300,423.129578 56.826138,423.925842 
	C53.700211,422.269012 50.541332,420.504181 47.296993,418.913635 
	C45.695026,418.128265 43.875526,417.061249 42.263397,417.221008 
	C40.568665,417.388947 37.891232,418.647675 37.654099,419.832275 
	C37.331177,421.445435 38.409767,424.126007 39.780651,425.134064 
	C43.030727,427.523956 46.807106,429.198120 51.327240,431.688599 
	C47.250538,434.704559 44.243835,437.308502 40.853386,439.238129 
	C39.611561,439.944916 37.365311,439.348511 35.743221,438.828705 
	C32.435596,437.768799 29.323906,435.865784 25.964371,435.296692 
	C24.267561,435.009247 21.402376,436.383270 20.490580,437.876373 
	C18.974451,440.359070 20.449894,442.544220 23.273602,443.649719 
	C25.695175,444.597809 28.035723,445.752838 30.452965,446.834625 
	C25.224852,455.618652 23.057112,456.637054 14.412787,453.932098 
	C11.212088,452.930573 8.727700,453.130768 7.466662,456.458160 
	C6.197150,459.807922 8.610166,461.273773 11.134297,462.501831 
	C12.286448,463.062378 13.450791,463.597900 14.575896,464.128876 
	C10.104888,476.819183 10.104888,476.819183 22.581549,484.867188 
	C21.792500,486.623291 20.344315,488.416382 20.368736,490.189178 
	C20.393782,492.007263 21.437029,494.712555 22.814638,495.353790 
	C24.156166,495.978180 26.492579,494.503479 28.371536,493.887482 
	C28.613594,493.808075 28.727821,493.348297 28.907917,493.068970 
	C34.395977,484.557098 34.396080,484.557159 45.791870,486.696075 
	C44.841476,488.870270 43.894897,490.891602 43.068718,492.960968 
	C41.941895,495.783325 40.591942,498.953094 44.250839,500.762573 
	C47.715847,502.476227 49.838627,500.182983 51.334484,497.242004 
	C52.164673,495.609833 53.011463,493.985992 53.830643,492.348328 
	C57.289349,485.433777 62.651150,483.368683 70.872017,486.113556 
	C69.723282,489.509949 68.134712,492.848572 67.587700,496.349915 
	C67.275627,498.347534 68.063156,501.855194 69.405342,502.500946 
	C72.415550,503.949219 75.041100,502.503632 76.200592,498.852692 
	C77.495056,494.776672 79.207695,490.833496 80.852661,486.533630 
	C82.449203,487.295288 83.860626,487.743378 85.016212,488.555450 
	C94.495461,495.216888 104.882500,496.330902 115.969574,494.040924 
	C117.180779,493.790741 119.135658,494.554047 119.981384,495.517853 
	C129.513733,506.380981 141.182312,507.876282 153.842743,502.736816 
	C160.423264,500.065460 166.231750,498.243408 173.596069,500.752686 
	C183.714859,504.200439 193.589569,501.322693 202.755997,496.107483 
	C206.760010,493.829407 210.322983,493.104675 215.539993,494.557251 
	C230.944244,498.846222 245.364868,495.383728 258.190033,485.475128 
	C260.152649,483.958862 263.415741,482.594452 265.585358,483.134918 
	C276.665588,485.894897 285.963501,482.345917 294.463013,475.828430 
	C297.466766,473.525116 299.975952,472.432678 303.809570,473.887329 
	C315.850372,478.456177 326.697327,475.223694 336.584930,467.848602 
	C340.137329,465.198883 343.270020,464.124146 347.865967,465.926086 
	C360.518524,470.886688 371.960938,467.756256 382.187195,459.272797 
	C384.486420,457.365417 386.612885,455.207092 389.087372,453.570251 
	C390.481293,452.648254 392.404510,452.253571 394.122314,452.145233 
	C399.352570,451.815338 404.690643,452.297363 409.820557,451.453339 
	C421.677002,449.502563 430.058746,442.724487 434.690186,431.557770 
	C436.207977,427.898254 438.228821,426.118622 442.705597,425.734711 
	C458.367889,424.391663 468.111084,415.047516 470.942413,399.479187 
	C471.793976,394.796814 473.130371,391.618225 478.117004,388.992432 
	C495.075714,380.062592 495.930267,368.209564 489.376282,348.852478 
	C487.786194,344.156067 485.905914,339.548706 484.547638,334.789520 
	C484.209167,333.603607 484.956665,331.279205 485.934662,330.690765 
	C490.006622,328.240814 494.270966,326.056549 498.629547,324.152039 
	C503.081329,322.206848 507.725891,320.703003 512.643066,319.002991 
	C513.000000,383.637115 513.000000,448.274261 513.000000,512.955688 
	C342.440887,512.955688 171.881729,512.955688 1.000000,512.955688 
	C1.000000,429.312714 1.000000,345.625031 0.999997,261.468658 
z"/>
<path fill="#000000" opacity="1.000000" stroke="none" 
	d="
M513.000000,295.531342 
	C512.319763,295.206787 511.447083,294.510712 510.990051,293.604889 
	C507.648224,286.981293 504.885773,280.008057 500.993744,273.732330 
	C494.445465,263.173615 489.123840,262.197327 477.373932,269.098663 
	C478.307220,267.193787 478.628143,266.077667 479.297516,265.240112 
	C495.693787,244.723907 505.608124,221.291382 510.724060,195.681885 
	C511.160522,193.497040 511.734863,191.339737 512.622559,189.084808 
	C513.000000,224.354233 513.000000,259.708466 513.000000,295.531342 
z"/>
<path fill="#F59452" opacity="1.000000" stroke="none" 
	d="
M54.243263,300.950104 
	C51.157246,292.600769 48.050526,284.258972 45.007870,275.893860 
	C44.558941,274.659637 44.810596,272.957825 44.039574,272.100708 
	C42.699928,270.611511 40.815136,269.612701 39.158928,268.408295 
	C38.180508,270.248657 36.052193,272.365082 36.416580,273.883118 
	C38.304142,281.746674 40.828609,289.457397 42.830845,297.537689 
	C32.706707,295.300385 25.665735,288.827209 19.239189,281.434753 
	C18.085871,280.108093 16.553120,279.111267 15.195556,277.962158 
	C5.830086,243.991058 6.849005,210.449356 19.614428,177.479172 
	C27.062298,158.243042 36.903492,140.401962 50.739235,124.885063 
	C62.981846,111.154877 78.500404,107.670944 97.059662,109.477203 
	C95.566719,110.518578 94.952179,111.144768 94.206642,111.438782 
	C65.531982,122.746719 49.139706,144.583649 41.139793,173.516571 
	C39.457375,179.601288 38.226177,185.822433 37.051624,192.030762 
	C36.502449,194.933487 35.899437,198.558182 40.320980,198.982925 
	C44.170918,199.352753 44.304707,196.082138 45.121643,193.274078 
	C48.689968,181.008667 51.482430,168.377472 56.470024,156.696045 
	C65.164635,136.332428 81.766396,124.053452 102.403435,117.195694 
	C111.479263,114.179771 120.020676,111.002197 126.978233,103.761681 
	C132.955292,97.541550 142.016235,98.075562 150.618881,103.615929 
	C130.543884,120.120964 118.709854,141.740204 111.463173,166.200928 
	C111.179573,167.158203 110.534660,168.245255 110.767822,169.071594 
	C111.326561,171.051804 112.308632,172.912582 113.119843,174.821564 
	C114.873123,173.704636 117.559402,172.976593 118.215591,171.402374 
	C120.833977,165.120651 122.527603,158.456146 125.097870,152.151184 
	C131.943665,135.358185 142.035599,120.873451 156.342499,109.485710 
	C158.860016,107.481865 161.218353,107.323448 164.494034,107.552834 
	C173.373352,108.174614 182.380722,108.247826 191.232117,107.417404 
	C195.311493,107.034691 197.655609,107.667152 200.087234,110.751350 
	C210.294922,123.698448 215.440979,138.722839 217.895721,154.699493 
	C219.409882,164.554306 219.960266,174.562286 220.786057,184.514557 
	C221.024979,187.393860 222.010803,189.912949 224.999619,189.343613 
	C226.550461,189.048203 228.790588,186.265732 228.752487,184.653275 
	C228.210144,161.690445 225.562607,139.089813 214.669785,118.335762 
	C212.133255,113.502907 208.869827,109.051559 205.939850,104.423073 
	C220.897522,94.510162 241.625031,96.821640 259.937561,110.648941 
	C256.874603,112.413673 253.922333,114.114632 251.801514,115.336555 
	C244.363754,111.426880 237.517487,107.755981 230.597397,104.229973 
	C228.199890,103.008362 225.527786,102.680786 224.171555,105.652222 
	C222.730057,108.810425 224.621002,110.585251 227.454865,111.744057 
	C230.224930,112.876770 232.979263,114.070358 235.653412,115.410950 
	C243.394943,119.291885 248.943344,125.073837 252.145569,133.320343 
	C263.779327,163.279953 271.375214,194.214645 274.816956,226.652878 
	C269.124939,233.486298 264.244080,240.237198 258.352112,245.944244 
	C250.136566,253.901993 240.369156,259.502228 228.719849,261.066559 
	C228.792114,257.406830 229.287354,253.684570 228.759598,250.113525 
	C228.492676,248.307495 226.597778,245.664917 225.048431,245.355408 
	C222.054703,244.757355 220.943741,247.279495 220.824265,250.156708 
	C220.644836,254.477737 220.298645,258.791840 219.514709,263.552124 
	C202.736343,266.637756 186.535706,266.118225 170.393265,262.933624 
	C171.071976,245.819656 171.157776,228.656830 172.562637,211.602676 
	C174.911774,183.085220 178.104019,154.637207 180.936600,126.159492 
	C181.018921,125.331696 181.030746,124.497078 181.104080,123.668167 
	C181.345505,120.939812 180.947266,118.392448 177.659683,118.101891 
	C174.122131,117.789238 173.310410,120.378098 173.001480,123.283997 
	C171.699966,135.527039 170.166702,147.748734 169.072784,160.009888 
	C166.780945,185.698196 164.463684,211.389069 162.667938,237.114563 
	C161.881485,248.381165 162.347931,259.735229 161.862656,271.619812 
	C156.445343,277.837555 151.729904,283.816437 146.295517,289.048553 
	C139.510162,295.581299 131.408585,300.011536 121.804245,301.095703 
	C120.210091,292.627136 118.598160,284.161804 117.042923,275.686096 
	C116.834351,274.549377 116.937439,273.358276 116.852097,272.195587 
	C116.643578,269.355103 116.030960,266.612244 112.431450,266.765015 
	C108.745476,266.921509 108.361595,269.715698 108.745216,272.567139 
	C109.919815,281.298096 111.204262,290.014343 112.469154,298.732971 
	C112.635979,299.882904 112.937439,301.013336 112.748001,302.562500 
	C104.924324,301.971649 97.529182,300.971069 90.134041,299.970520 
	C86.750244,285.950989 82.553474,272.070068 80.134926,257.885956 
	C72.851364,215.169861 84.049950,176.126266 105.251961,139.317764 
	C105.750244,138.452713 106.747917,137.530777 106.654221,136.736679 
	C106.414253,134.702881 105.689522,132.726303 105.158630,130.726837 
	C103.247887,131.537247 100.405983,131.812515 99.581482,133.247177 
	C95.112427,141.023514 90.914940,148.977631 87.037659,157.068771 
	C65.802040,201.383484 65.815750,246.990601 79.031586,293.353149 
	C79.395668,294.630371 79.718903,295.919281 79.672707,297.677185 
	C70.937241,299.084442 62.590248,300.017273 54.243263,300.950104 
z"/>
<path fill="#7F5D46" opacity="1.000000" stroke="none" 
	d="
M408.877106,232.106567 
	C407.024017,230.994736 405.175232,229.875656 403.317139,228.772232 
	C393.163910,222.742874 382.908661,222.292282 372.527496,228.197739 
	C371.105225,229.006821 369.636993,229.735092 367.001221,231.129898 
	C365.209167,208.354172 362.131042,186.468201 353.099457,165.008957 
	C356.173065,165.008957 358.124817,165.008957 360.076569,165.008957 
	C405.682770,165.008957 451.288940,165.008347 496.895142,165.009506 
	C505.276428,165.009720 505.276428,165.013092 503.662109,173.694214 
	C502.300934,175.511642 501.182678,176.728302 500.290070,178.092606 
	C491.597626,191.378174 481.660400,203.461853 468.691101,212.932297 
	C450.825867,225.977798 430.517517,231.029510 408.877106,232.106567 
z"/>
<path fill="#F49452" opacity="1.000000" stroke="none" 
	d="
M282.998260,218.999664 
	C280.263641,205.481354 278.205109,191.781342 274.632507,178.488266 
	C269.555328,159.596863 263.364716,141.004700 257.483246,121.738945 
	C264.156891,116.098564 273.330750,115.701775 281.477631,121.900597 
	C291.132111,129.246536 297.296051,139.385040 302.715271,149.928848 
	C312.465149,168.898499 318.574585,189.032898 320.937469,210.257553 
	C321.272034,213.263092 321.675171,216.299225 325.524750,216.061386 
	C329.583252,215.810654 329.385895,212.548172 329.002411,209.663483 
	C324.581818,176.413284 314.778931,145.375366 291.554535,120.004448 
	C288.809906,117.006165 285.349609,114.663010 281.872223,111.721024 
	C290.364777,107.391335 298.081451,108.318375 305.434662,113.524979 
	C317.337921,121.953362 326.196625,133.155258 333.819489,145.379318 
	C336.803162,150.163986 339.200500,155.314270 341.735596,160.960388 
	C342.070312,170.550598 343.030548,179.485550 342.903015,188.404953 
	C342.554169,212.809082 326.247162,226.718796 302.452606,223.125092 
	C295.909393,222.136856 289.479919,220.395477 282.998260,218.999664 
z"/>
<path fill="#DF5B62" opacity="1.000000" stroke="none" 
	d="
M410.515564,156.835281 
	C391.248749,156.862946 372.434814,156.833954 353.621307,156.912430 
	C350.897064,156.923798 349.100464,156.381332 347.711700,153.628143 
	C338.154236,134.680664 325.893311,117.868950 307.715027,104.941490 
	C310.720673,102.416862 313.335876,99.951004 316.216431,97.848793 
	C326.840759,90.095207 338.727600,85.667793 351.913574,85.243393 
	C360.863037,84.955353 362.827820,86.997131 362.679108,95.806549 
	C362.472809,108.026649 359.235107,119.446175 353.251282,130.094025 
	C352.517639,131.399460 351.411133,132.629929 351.138245,134.024460 
	C350.821808,135.641449 350.599579,138.194336 351.487000,138.905777 
	C352.697021,139.875839 355.438751,140.292007 356.758148,139.561966 
	C372.331177,130.945007 385.280457,119.907730 389.955017,101.687958 
	C390.151459,100.922211 390.410370,100.172493 390.784515,98.939880 
	C392.012787,99.757462 393.013153,100.248436 393.798950,100.972343 
	C408.171753,114.213196 414.712433,130.687393 413.654938,150.115417 
	C413.531128,152.389999 411.900635,154.582565 410.515564,156.835281 
z"/>
<path fill="#D04B61" opacity="1.000000" stroke="none" 
	d="
M423.220154,108.022285 
	C466.333954,96.308762 494.661713,132.056854 493.701752,156.434845 
	C469.718750,156.434845 445.717041,156.434845 421.296661,156.434845 
	C423.468689,140.827179 420.638519,126.347931 413.333405,112.062599 
	C416.802551,110.621674 419.814697,109.370575 423.220154,108.022285 
z"/>
<path fill="#FDBF5A" opacity="1.000000" stroke="none" 
	d="
M223.135529,391.657135 
	C222.610718,385.334045 221.371796,379.334106 221.922394,373.503082 
	C222.957260,362.543274 228.814209,356.237457 239.604630,354.121124 
	C245.856964,352.894867 252.364716,352.970978 258.986877,352.442688 
	C255.904099,374.602478 262.540802,392.073578 278.952637,406.110596 
	C273.098816,412.788727 266.441559,418.119385 257.961517,420.739410 
	C251.071304,422.868256 244.790024,421.076263 239.200546,416.789673 
	C230.948868,410.461456 226.281754,401.768158 223.135529,391.657135 
z"/>
<path fill="#6D503D" opacity="1.000000" stroke="none" 
	d="
M409.076233,232.391220 
	C430.517517,231.029510 450.825867,225.977798 468.691101,212.932297 
	C481.660400,203.461853 491.597626,191.378174 500.290070,178.092606 
	C501.182678,176.728302 502.300934,175.511642 503.620972,174.101105 
	C503.599060,192.561157 499.158752,210.245102 491.865143,227.223618 
	C485.841125,241.246658 477.611511,253.957108 467.751923,265.599823 
	C466.248535,267.375061 464.537781,268.979492 462.864624,270.602844 
	C462.421661,271.032593 461.761658,271.238647 460.506073,271.930450 
	C459.154053,269.330383 457.733795,266.975677 456.667999,264.470215 
	C454.518890,259.418091 452.948700,254.086014 450.454224,249.220886 
	C443.007568,234.697220 433.060181,230.464645 417.488983,235.102234 
	C413.910828,236.167923 411.341248,235.775894 409.076233,232.391220 
z"/>
<path fill="#F7B032" opacity="1.000000" stroke="none" 
	d="
M384.235840,310.948059 
	C383.832642,322.957794 386.120178,334.001007 392.475800,344.036743 
	C393.717346,345.997223 395.121979,347.877350 396.629944,349.641998 
	C401.568665,355.421326 401.620361,355.667633 397.528381,362.194244 
	C390.002716,374.197510 376.785645,376.842438 365.239258,368.655762 
	C352.573029,359.675140 344.835297,339.428101 348.283173,324.287659 
	C352.082916,307.602081 367.163239,301.851654 384.235840,310.948059 
z"/>
<path fill="#F7B032" opacity="1.000000" stroke="none" 
	d="
M182.893494,411.961060 
	C181.865646,405.879547 180.165176,400.163391 180.217758,394.463409 
	C180.326904,382.630280 186.174072,375.560883 197.602280,372.578888 
	C202.678238,371.254425 207.975250,370.777039 213.701355,369.827362 
	C211.526184,391.276001 218.183273,408.759064 233.660355,423.191010 
	C227.364975,428.477356 220.990768,432.907867 213.258041,434.783112 
	C206.837799,436.340118 201.079025,434.286438 195.963577,430.343567 
	C189.860352,425.639252 185.761124,419.465881 182.893494,411.961060 
z"/>
<path fill="#FEBF5A" opacity="1.000000" stroke="none" 
	d="
M392.708496,317.979065 
	C392.880066,315.361206 392.782379,313.136444 393.304382,311.068085 
	C395.354370,302.945557 399.910095,296.884155 408.328003,294.645264 
	C416.439575,292.487823 423.230713,295.456909 428.509430,301.412476 
	C436.529419,310.460876 440.668030,321.181549 440.232880,333.395599 
	C439.952026,341.278534 436.678894,347.625031 429.371948,351.163757 
	C421.960388,354.753174 414.615875,353.719452 408.134491,348.999939 
	C397.871796,341.526978 393.580414,330.790649 392.708496,317.979065 
z"/>
<path fill="#F7AF32" opacity="1.000000" stroke="none" 
	d="
M303.012085,370.875000 
	C307.822052,377.352051 312.491394,383.480347 317.463135,390.005524 
	C308.973083,404.869720 288.100525,406.850555 276.826660,392.707550 
	C269.768280,383.852844 266.072723,373.622894 266.114594,362.268982 
	C266.155670,351.126404 271.335999,343.905518 282.047394,340.936890 
	C287.613464,339.394257 293.581329,339.301117 300.200592,338.445526 
	C297.645813,350.454742 298.156189,360.719055 303.012085,370.875000 
z"/>
<path fill="#FDBF5A" opacity="1.000000" stroke="none" 
	d="
M348.506897,362.429504 
	C351.635162,366.333862 354.549286,369.943268 357.502594,373.601227 
	C343.095947,391.074371 326.211273,387.955719 315.712402,375.614563 
	C308.416656,367.038513 305.547302,357.026642 307.072144,345.902954 
	C309.124359,330.932404 323.115631,322.240234 339.719116,325.540222 
	C338.199066,338.738464 341.476746,350.857635 348.506897,362.429504 
z"/>
<path fill="#DB854A" opacity="1.000000" stroke="none" 
	d="
M282.964264,219.434174 
	C289.479919,220.395477 295.909393,222.136856 302.452606,223.125092 
	C326.247162,226.718796 342.554169,212.809082 342.903015,188.404953 
	C343.030548,179.485550 342.070312,170.550598 341.786835,161.316345 
	C350.632568,177.438873 354.775879,195.167191 356.927246,213.446426 
	C357.584045,219.027008 357.940582,224.642944 358.444427,230.353775 
	C357.422211,230.474121 356.902985,230.702591 356.535675,230.554443 
	C339.690857,223.759460 326.785156,231.011902 315.314178,242.451294 
	C312.915680,244.843155 310.833557,245.430191 307.608002,245.508820 
	C300.528381,245.681351 293.468414,246.661102 285.788300,247.367569 
	C284.873810,238.568756 283.902039,229.218719 282.964264,219.434174 
z"/>
<path fill="#FDBF5A" opacity="1.000000" stroke="none" 
	d="
M145.653473,397.678192 
	C152.945831,391.340668 162.713470,388.352966 172.108368,389.577423 
	C170.533905,407.852875 176.146133,423.556915 189.770508,436.135895 
	C177.469818,449.547760 155.745270,455.497406 145.321625,431.660828 
	C143.207321,426.825867 141.630463,421.665741 140.526184,416.501495 
	C139.064743,409.666931 140.486542,403.261993 145.653473,397.678192 
z"/>
<path fill="#DB854A" opacity="1.000000" stroke="none" 
	d="
M170.334595,263.363708 
	C186.535706,266.118225 202.736343,266.637756 219.427078,263.983063 
	C217.797348,272.823059 215.887848,281.712738 213.566650,290.493561 
	C213.144760,292.089539 211.096603,293.303162 209.699432,294.584503 
	C206.073273,297.910065 202.477142,301.278198 198.693787,304.418121 
	C196.958588,305.858215 194.940659,307.404175 192.827240,307.856262 
	C187.037216,309.094757 181.128540,309.778595 174.147125,310.854614 
	C172.848816,295.071442 171.562378,279.432617 170.334595,263.363708 
z"/>
<path fill="#F7AF32" opacity="1.000000" stroke="none" 
	d="
M474.120178,301.985107 
	C475.220551,308.701813 477.287231,315.106445 476.942474,321.378510 
	C476.257263,333.844910 463.146423,340.055603 450.588104,336.036987 
	C449.720337,335.759308 448.735931,334.170685 448.715179,333.172791 
	C448.400787,318.057587 443.114258,304.956848 432.995056,293.899902 
	C441.338257,277.629059 458.973175,276.454041 468.759094,291.434845 
	C470.834564,294.612122 472.267212,298.209320 474.120178,301.985107 
z"/>
<path fill="#A6B674" opacity="1.000000" stroke="none" 
	d="
M182.874115,22.937672 
	C203.047653,41.437817 215.709167,63.620014 220.103073,90.814102 
	C215.339508,92.201317 210.926788,93.486359 205.842621,94.966934 
	C205.345520,90.604195 204.884384,86.557846 204.423447,82.511475 
	C204.097549,79.650452 203.224243,76.841545 199.741837,77.353638 
	C196.075745,77.892738 195.863586,80.918732 196.397842,83.974335 
	C196.455185,84.302383 196.520782,84.629356 196.566177,84.959076 
	C198.395630,98.248146 196.479919,100.335022 181.758972,100.358574 
	C182.239578,98.696655 182.576508,97.171753 183.115524,95.721992 
	C190.528351,75.784172 189.584717,56.602898 178.140991,38.279030 
	C177.346252,37.006489 176.864212,35.180576 177.055130,33.718895 
	C177.589844,29.625055 178.553680,25.587263 179.453369,20.989975 
	C180.485352,21.556334 181.535339,22.132572 182.874115,22.937672 
z"/>
<path fill="#DC854A" opacity="1.000000" stroke="none" 
	d="
M121.826431,301.481506 
	C131.408585,300.011536 139.510162,295.581299 146.295517,289.048553 
	C151.729904,283.816437 156.445343,277.837555 161.807434,272.084717 
	C163.434753,284.024780 164.417938,296.116730 166.180115,308.094116 
	C166.953812,313.352814 165.694901,316.419006 161.485397,319.743927 
	C157.437653,322.941071 154.287689,327.526642 151.468781,331.963165 
	C148.049866,337.344025 140.937027,338.172211 137.061752,333.041168 
	C129.964508,323.644043 124.870293,313.258728 121.826431,301.481506 
z"/>
<path fill="#FCBE59" opacity="1.000000" stroke="none" 
	d="
M332.345398,294.281860 
	C332.268616,290.551117 331.798828,287.148651 332.400391,283.947510 
	C335.396973,268.001465 348.997009,261.533020 364.608826,268.201447 
	C369.332214,270.218994 371.365082,272.345245 370.913391,278.384033 
	C370.419891,284.981018 373.045380,291.811249 374.299316,298.475708 
	C361.781342,296.770447 350.867828,301.217987 343.381348,313.867279 
	C337.947571,308.293732 334.154480,302.120331 332.345398,294.281860 
z"/>
<path fill="#FCBE59" opacity="1.000000" stroke="none" 
	d="
M404.747681,411.968933 
	C390.798309,418.303894 375.849518,411.503387 370.681335,396.357391 
	C368.953430,391.293518 368.502716,385.793854 367.445679,380.378082 
	C374.633453,380.378082 381.143311,381.601227 386.892975,380.034576 
	C392.659058,378.463531 397.666840,374.109589 403.077942,370.933655 
	C404.962769,379.021454 408.556671,387.078491 417.090179,392.020508 
	C414.765839,399.891876 411.738129,406.918640 404.747681,411.968933 
z"/>
<path fill="#F6AF32" opacity="1.000000" stroke="none" 
	d="
M326.597229,303.206055 
	C329.065887,307.723755 331.361206,311.892151 333.596069,315.950714 
	C328.189392,317.290344 322.472198,317.891541 317.520874,320.162537 
	C312.548920,322.443024 308.340027,326.387299 303.352081,329.917053 
	C294.450012,325.574097 289.204254,314.609528 292.381805,303.900146 
	C297.165985,287.775818 304.502258,282.947754 322.930359,282.421051 
	C324.106934,289.303406 325.265442,296.080078 326.597229,303.206055 
z"/>
<path fill="#F6AF32" opacity="1.000000" stroke="none" 
	d="
M360.906464,391.129028 
	C362.456207,401.314209 367.104767,409.337708 374.584595,415.719513 
	C365.093048,426.741699 352.325714,429.417267 340.117249,423.049103 
	C328.170563,416.817474 324.116516,407.121735 327.702545,393.357635 
	C344.793945,393.416168 344.793945,393.416168 359.599823,384.067413 
	C360.036774,386.383575 360.445740,388.551208 360.906464,391.129028 
z"/>
<path fill="#DB854A" opacity="1.000000" stroke="none" 
	d="
M228.566406,261.429657 
	C240.369156,259.502228 250.136566,253.901993 258.352112,245.944244 
	C264.244080,240.237198 269.124939,233.486298 274.782562,227.091980 
	C275.876465,235.557327 276.714294,244.126755 277.329224,252.712173 
	C277.410614,253.848602 276.465942,255.132889 275.798401,256.227966 
	C275.111572,257.354706 273.741394,258.217010 273.429382,259.395905 
	C271.120148,268.121216 264.230682,269.118958 256.804535,270.059052 
	C246.289291,271.390259 237.824951,276.586761 233.163223,286.296906 
	C230.801025,291.217255 227.610123,291.573212 223.452667,290.716431 
	C225.123184,280.975616 226.768082,271.384186 228.566406,261.429657 
z"/>
<path fill="#53B598" opacity="1.000000" stroke="none" 
	d="
M285.186920,51.796131 
	C301.132629,61.835197 318.631195,62.865448 336.739136,60.958950 
	C341.840698,60.421833 347.049835,60.663311 352.197327,60.863647 
	C359.667938,61.154392 364.912628,65.136719 368.690063,71.341545 
	C366.637909,73.736137 364.700806,75.996445 362.499420,78.565155 
	C352.440216,75.634895 342.477661,77.897896 332.375366,80.363739 
	C328.716980,81.256706 324.482605,80.262718 320.589539,79.639435 
	C304.091644,76.998077 292.288483,67.867088 284.742554,52.635666 
	C284.934235,52.030617 285.060577,51.913372 285.186920,51.796131 
z"/>
<path fill="#F6AF32" opacity="1.000000" stroke="none" 
	d="
M412.834595,360.176208 
	C426.066010,363.156952 433.677979,360.221924 445.000336,348.042542 
	C452.666199,356.435608 454.399170,368.760498 449.134338,377.868774 
	C445.225159,384.631775 439.384796,388.260010 431.503143,387.929657 
	C423.629181,387.599670 417.169983,384.275909 413.885345,376.918060 
	C411.958710,372.602203 411.196899,367.732758 410.254028,363.043365 
	C410.090637,362.230743 411.639221,361.073883 412.834595,360.176208 
z"/>
<path fill="#F7AF32" opacity="1.000000" stroke="none" 
	d="
M389.128571,262.897461 
	C405.123047,255.559036 422.417938,268.340973 421.697388,286.948822 
	C407.409119,283.613403 396.273651,288.221252 388.473694,300.614685 
	C375.260834,291.081970 375.464325,272.995087 389.128571,262.897461 
z"/>
<path fill="#FBBD59" opacity="1.000000" stroke="none" 
	d="
M227.509949,437.563354 
	C230.599060,435.579895 233.380295,433.798309 236.820526,431.594604 
	C238.277588,440.793945 239.986420,449.626953 248.486633,455.374176 
	C237.698746,463.494415 226.617813,468.703613 213.139755,465.885010 
	C206.392227,464.473938 202.293488,460.290131 201.116028,453.511200 
	C200.499512,449.961792 200.329071,446.334900 199.869049,441.891907 
	C210.203796,445.158203 218.893295,442.492188 227.509949,437.563354 
z"/>
<path fill="#FCBE59" opacity="1.000000" stroke="none" 
	d="
M173.078674,374.844299 
	C161.058197,361.024872 167.390839,349.371948 183.525558,341.115326 
	C189.154175,338.234955 195.885727,337.509888 202.391052,335.724396 
	C202.931610,340.778259 202.807983,345.299377 204.025421,349.424774 
	C205.269104,353.639099 207.828979,357.464996 210.046600,361.932190 
	C197.317215,364.053833 184.036682,365.227264 175.950226,378.866333 
	C174.807999,377.264069 174.048523,376.198700 173.078674,374.844299 
z"/>
<path fill="#FCBE59" opacity="1.000000" stroke="none" 
	d="
M321.906647,435.080261 
	C314.345734,438.046509 307.180786,437.487457 300.058777,435.026093 
	C288.890198,431.166229 285.661133,424.340881 288.602112,410.267487 
	C299.456085,412.042969 308.896179,408.102875 318.333954,401.267975 
	C318.239624,414.205780 323.965729,423.037231 335.022064,429.469208 
	C330.125885,431.582001 326.207794,433.272766 321.906647,435.080261 
z"/>
<path fill="#FCBE59" opacity="1.000000" stroke="none" 
	d="
M269.188812,338.170929 
	C267.089203,340.102234 265.284210,341.813660 263.482513,343.528625 
	C251.539368,336.171417 249.500183,326.580231 257.072479,314.948547 
	C263.549194,304.999725 273.739075,301.810181 285.306641,298.868469 
	C281.447540,310.621552 282.869598,321.154388 290.494019,329.411621 
	C283.367584,332.308044 276.425476,335.129547 269.188812,338.170929 
z"/>
<path fill="#EC9B26" opacity="1.000000" stroke="none" 
	d="
M322.910095,245.919922 
	C324.895386,244.375183 326.600525,243.052689 328.342133,241.780075 
	C338.542145,234.326721 348.917938,234.423798 358.994019,240.919312 
	C359.347321,246.608368 359.688538,252.103470 360.028534,257.578705 
	C340.696930,257.878601 339.764313,258.262329 328.456696,270.735992 
	C316.449249,262.693390 314.615875,254.939911 322.910095,245.919922 
z"/>
<path fill="#ED9C26" opacity="1.000000" stroke="none" 
	d="
M418.189331,410.425995 
	C421.555573,414.820740 424.582794,419.288361 428.053711,424.410797 
	C423.609344,440.916656 410.656525,445.294739 393.568787,443.528748 
	C388.320892,442.986389 385.289581,439.378632 384.952515,434.048859 
	C384.704437,430.126038 384.903839,426.174896 384.903839,421.562439 
	C398.712891,424.704498 409.699890,421.488861 418.189331,410.425995 
z"/>
<path fill="#DB854A" opacity="1.000000" stroke="none" 
	d="
M54.325546,301.279175 
	C62.590248,300.017273 70.937241,299.084442 79.677246,298.070190 
	C85.172028,309.150696 90.082626,320.406219 95.477859,331.424500 
	C97.401581,335.353119 100.499924,338.706543 103.375893,342.765411 
	C97.095825,343.295013 91.817352,343.472504 86.707710,339.236206 
	C73.755844,328.498077 62.331013,316.595245 54.325546,301.279175 
z"/>
<path fill="#DA8549" opacity="1.000000" stroke="none" 
	d="
M15.184908,278.339081 
	C16.553120,279.111267 18.085871,280.108093 19.239189,281.434753 
	C25.665735,288.827209 32.706707,295.300385 42.915291,297.909058 
	C50.538090,313.308838 60.417194,326.709869 72.892555,338.670410 
	C72.763817,339.280426 72.647987,339.410736 72.532150,339.541046 
	C45.616768,333.123932 28.921453,315.544281 19.114647,290.512115 
	C17.604403,286.657196 16.478115,282.651794 15.184908,278.339081 
z"/>
<path fill="#DA854A" opacity="1.000000" stroke="none" 
	d="
M90.125633,300.344055 
	C97.529182,300.971069 104.924324,301.971649 112.770081,302.972351 
	C117.581787,315.960022 122.800323,328.523407 131.789047,339.529083 
	C128.958298,341.573853 126.568382,343.656952 123.840088,345.100586 
	C122.700974,345.703369 120.414337,345.502014 119.386414,344.709961 
	C115.328049,341.582520 111.068932,338.494659 107.783791,334.627899 
	C99.364372,324.717896 94.276955,312.925507 90.125633,300.344055 
z"/>
<path fill="#EC9B26" opacity="1.000000" stroke="none" 
	d="
M336.946228,437.923645 
	C337.054565,443.848999 337.184113,449.774200 337.238281,455.700043 
	C337.243622,456.285736 336.906036,456.967957 336.528839,457.449799 
	C330.582031,465.046265 315.186157,469.079315 305.888092,465.510315 
	C294.964386,461.317322 291.531921,453.670044 295.722443,442.017120 
	C309.944000,448.304840 323.242218,444.314697 336.628479,437.964294 
	C336.980621,437.976227 336.946228,437.923645 336.946228,437.923645 
z"/>
<path fill="#EC9B26" opacity="1.000000" stroke="none" 
	d="
M252.956970,306.986145 
	C250.937408,309.818573 249.138382,312.369690 247.144394,315.197266 
	C241.449112,311.358154 236.238419,307.264801 237.115143,299.721100 
	C238.156891,290.757416 242.469894,283.443115 251.195435,280.104645 
	C256.084076,278.234253 261.512604,277.720001 266.738037,276.830902 
	C267.786072,276.652588 269.389618,277.206268 270.099243,277.995728 
	C273.843475,282.161224 277.383453,286.510284 281.320862,291.183197 
	C271.249176,294.594696 260.276428,297.283661 252.956970,306.986145 
z"/>
<path fill="#FBD8AA" opacity="1.000000" stroke="none" 
	d="
M478.408173,291.672363 
	C476.079620,288.014771 473.951477,284.671661 471.952728,281.531860 
	C476.757416,278.951691 481.588348,276.139343 486.643402,273.814240 
	C487.744812,273.307617 490.220428,274.047211 491.093140,275.053802 
	C499.890930,285.201294 504.302643,297.164917 504.713867,310.527191 
	C504.758606,311.980560 503.267914,314.412903 501.994690,314.811676 
	C496.838226,316.426697 491.488312,317.424164 487.238586,318.410675 
	C484.416046,309.768494 481.512299,300.877716 478.408173,291.672363 
z"/>
<path fill="#F6AF32" opacity="1.000000" stroke="none" 
	d="
M119.681488,445.224396 
	C115.087769,438.538727 112.960648,431.540100 113.815506,423.748505 
	C114.908630,413.785248 121.363609,408.999207 131.744293,410.725464 
	C132.464371,424.266479 136.966400,436.522217 145.575806,447.104645 
	C137.844238,456.766846 128.929855,456.159576 119.681488,445.224396 
z"/>
<path fill="#F5AF32" opacity="1.000000" stroke="none" 
	d="
M246.173965,437.604980 
	C245.759583,434.634705 245.425903,432.060883 245.022369,428.948273 
	C258.571747,431.844971 268.778717,425.884491 277.949219,418.673004 
	C280.408936,424.910431 282.831512,431.053741 285.941284,438.939606 
	C281.674713,442.369690 276.430054,447.472717 270.360565,451.250519 
	C261.988708,456.461395 247.563522,448.217010 246.173965,437.604980 
z"/>
<path fill="#F6AF32" opacity="1.000000" stroke="none" 
	d="
M244.918854,344.897247 
	C234.209412,345.977722 225.142426,349.466217 218.524902,358.365234 
	C213.829025,352.579651 209.893143,346.978424 211.154617,339.303925 
	C212.718063,329.792297 218.782211,324.317139 228.479904,323.982941 
	C232.618896,323.840302 236.793167,323.957306 240.908737,324.375824 
	C242.103989,324.497314 243.769714,325.860199 244.162262,327.013855 
	C246.084229,332.662292 247.649033,338.432251 249.439743,344.496796 
	C248.841141,344.550476 247.092361,344.707245 244.918854,344.897247 
z"/>
<path fill="#E28D1A" opacity="1.000000" stroke="none" 
	d="
M297.259033,281.144043 
	C295.165436,283.081085 293.360168,284.799561 290.798676,287.237885 
	C286.877655,283.712463 282.531250,280.407043 279.035278,276.365845 
	C277.628601,274.739807 277.275208,271.294312 277.848816,269.033783 
	C279.569489,262.253204 284.380310,257.589294 290.888947,255.693741 
	C296.497528,254.060333 302.530914,253.885422 306.976227,253.262024 
	C310.853241,261.063843 314.041534,267.479675 317.006805,273.446808 
	C310.988708,275.759674 304.268005,278.342590 297.259033,281.144043 
z"/>
<path fill="#E28D1A" opacity="1.000000" stroke="none" 
	d="
M369.208496,457.419617 
	C366.479095,458.246857 364.101562,459.356445 361.686859,459.444336 
	C351.375092,459.819702 342.196472,457.372467 345.098877,442.916229 
	C345.649200,440.175232 346.249603,437.444275 346.687866,435.367523 
	C352.294647,434.568542 357.471649,434.446259 362.233093,432.977173 
	C366.885193,431.541779 371.113159,428.731812 375.086151,426.745758 
	C376.921417,433.580902 378.761932,440.435608 381.056610,448.981781 
	C378.235809,451.003082 373.889557,454.117523 369.208496,457.419617 
z"/>
<path fill="#E28C1A" opacity="1.000000" stroke="none" 
	d="
M388.448151,254.172897 
	C383.890503,257.220947 379.696533,260.132568 375.290955,263.191071 
	C369.397858,259.159821 365.661621,250.379654 367.711151,244.414551 
	C369.983917,237.799850 380.488190,231.551819 388.410004,232.102707 
	C399.196564,232.852829 408.802887,241.660263 409.390961,251.379730 
	C409.437775,252.153503 409.208160,252.943970 409.285400,252.346298 
	C402.083252,252.940857 395.447540,253.488663 388.448151,254.172897 
z"/>
<path fill="#E28C1A" opacity="1.000000" stroke="none" 
	d="
M459.303345,382.890930 
	C465.648987,392.101166 463.379150,400.765045 457.889282,408.691681 
	C452.756653,416.102417 444.755737,417.956116 436.199646,416.892242 
	C430.780334,416.218414 427.891846,412.169556 426.496124,407.299011 
	C425.514954,403.875061 425.293549,400.233368 424.622589,395.991547 
	C426.891693,395.991547 428.307495,395.924622 429.715302,396.002167 
	C440.561157,396.599640 449.153717,392.613770 455.266571,383.526672 
	C456.246918,382.069336 457.060211,379.806671 459.303345,382.890930 
z"/>
<path fill="#F5AE32" opacity="1.000000" stroke="none" 
	d="
M153.382004,361.294373 
	C155.144623,360.780975 156.539963,360.407684 157.034393,360.275421 
	C160.143936,367.415985 163.065262,374.124359 166.074478,381.034515 
	C153.580551,382.542755 141.608978,386.317291 134.668762,399.076477 
	C129.246201,394.103668 127.663208,388.444702 129.707550,381.751190 
	C132.490814,372.638336 138.623734,366.813995 147.452286,363.609497 
	C149.323105,362.930450 151.161423,362.161835 153.382004,361.294373 
z"/>
<path fill="#F6AF32" opacity="1.000000" stroke="none" 
	d="
M181.533752,474.030579 
	C174.393127,474.992401 168.239990,473.504730 162.575729,469.869904 
	C156.986115,466.282959 154.986099,461.031647 155.217514,453.999542 
	C168.986450,458.899963 180.454163,454.006470 190.944550,446.668884 
	C193.201675,453.773773 195.406372,460.713593 197.915237,468.610901 
	C193.369339,470.140198 187.672745,472.056580 181.533752,474.030579 
z"/>
<path fill="#879F5A" opacity="1.000000" stroke="none" 
	d="
M178.228058,58.935436 
	C181.741058,72.730309 178.566620,85.301468 173.633972,97.684654 
	C172.650803,100.152878 171.226593,101.010857 168.660736,100.233818 
	C164.933624,99.105125 161.165909,98.110458 157.139175,96.981133 
	C169.907623,81.644989 169.311523,65.619080 162.914474,48.357948 
	C165.086121,46.901943 167.797485,45.084061 171.634705,42.511341 
	C173.872940,48.038498 175.998062,53.286320 178.228058,58.935436 
z"/>
<path fill="#FBBD59" opacity="1.000000" stroke="none" 
	d="
M103.449684,422.666962 
	C104.388245,423.412750 105.383629,424.118622 105.368675,424.802399 
	C105.107704,436.736877 109.364029,446.840118 117.766731,455.461243 
	C113.855690,460.282440 109.159851,462.967377 102.977791,461.735535 
	C98.942688,460.931549 96.195198,459.363800 95.625298,454.091705 
	C95.059830,448.860565 92.548615,443.657074 90.073212,438.863647 
	C87.290146,433.474426 87.036690,429.799286 92.071228,426.280396 
	C95.100143,424.163391 99.340408,423.779510 103.449684,422.666962 
z"/>
<path fill="#EA9A26" opacity="1.000000" stroke="none" 
	d="
M157.783493,338.208069 
	C162.858566,324.629822 178.361877,315.574554 194.304886,316.374542 
	C195.997360,320.225006 197.648438,323.981262 199.319824,327.783722 
	C192.806412,329.768585 185.645615,330.997681 179.432251,334.115112 
	C173.352676,337.165405 168.238770,342.140381 161.753128,346.977448 
	C160.554642,344.493744 159.133698,341.549042 157.783493,338.208069 
z"/>
<path fill="#EB9B26" opacity="1.000000" stroke="none" 
	d="
M211.720261,482.834961 
	C211.246887,479.770813 210.991257,477.056061 210.666473,473.606903 
	C226.212891,477.112000 238.911362,471.971100 250.889145,463.926392 
	C252.322983,468.408173 253.603470,472.410675 254.963531,476.661865 
	C244.827408,485.544250 233.141220,489.937561 219.387558,486.786255 
	C216.766861,486.185791 214.414291,484.415161 211.720261,482.834961 
z"/>
<path fill="#52B397" opacity="1.000000" stroke="none" 
	d="
M486.837097,76.906845 
	C485.040070,80.706909 483.822571,84.951393 481.322113,88.212021 
	C476.521454,94.472137 469.537598,97.830284 462.135681,100.229294 
	C461.218628,100.526527 460.153992,100.783669 459.241394,100.612770 
	C452.747131,99.396591 446.274658,98.064232 439.804047,96.770615 
	C441.548401,90.647491 445.193176,87.709312 452.283142,87.102867 
	C456.593781,86.734161 460.923401,86.570717 465.247284,86.377029 
	C473.434509,86.010284 480.391663,82.831596 486.602783,77.102356 
	C486.874878,76.928879 486.837097,76.906845 486.837097,76.906845 
z"/>
<path fill="#E18C1A" opacity="1.000000" stroke="none" 
	d="
M216.008759,318.803894 
	C213.324020,320.802643 210.967468,322.620697 208.598862,324.448029 
	C201.889725,318.769623 201.420761,313.209900 207.195984,306.613037 
	C212.771240,300.244629 220.298172,299.382690 227.685226,299.109161 
	C229.527618,304.623718 231.274353,309.851990 232.936310,314.826477 
	C227.765152,316.009277 222.051056,317.316223 216.008759,318.803894 
z"/>
<path fill="#E28C1A" opacity="1.000000" stroke="none" 
	d="
M286.433716,456.433075 
	C288.145660,460.051788 289.740173,463.301270 291.536438,466.962006 
	C285.587067,472.450439 278.707184,476.626404 269.590912,474.966919 
	C262.099854,473.603241 259.127563,469.111603 260.417999,461.780609 
	C265.067505,460.744537 269.785339,460.328644 273.946320,458.584320 
	C277.970215,456.897461 281.420654,453.842621 285.486450,451.147797 
	C285.790649,452.949951 286.053467,454.506897 286.433716,456.433075 
z"/>
<path fill="#F5AE32" opacity="1.000000" stroke="none" 
	d="
M89.763992,475.724670 
	C91.671936,473.018280 93.339157,470.581512 94.386864,469.050232 
	C102.091187,469.050232 109.172226,469.050232 117.086578,469.050232 
	C117.446587,471.769531 118.121971,475.556488 118.404228,479.372528 
	C118.686714,483.191803 116.204292,484.536011 112.831551,485.598267 
	C102.810516,488.754395 94.756821,485.075623 86.740417,478.926422 
	C87.799217,477.810822 88.661240,476.902557 89.763992,475.724670 
z"/>
<path fill="#F5AE32" opacity="1.000000" stroke="none" 
	d="
M92.939133,407.216736 
	C94.043694,409.836151 95.046158,412.094269 96.044220,414.342438 
	C92.999504,416.127838 89.569511,417.547699 86.917480,419.859863 
	C84.241661,422.192810 82.337730,425.411041 79.812256,428.599121 
	C78.125015,428.084076 75.988029,427.307312 73.789261,426.796661 
	C71.712547,426.314301 69.570854,426.111694 67.464569,425.787109 
	C66.815903,415.903137 75.634087,403.727814 85.148903,402.545746 
	C87.496902,402.254028 90.263084,405.328430 92.939133,407.216736 
z"/>
<path fill="#4AAC8C" opacity="1.000000" stroke="none" 
	d="
M383.969055,63.835918 
	C383.529724,66.372337 383.128601,68.478065 382.733551,70.551750 
	C377.751770,70.059578 373.844818,66.756187 372.954987,62.097572 
	C371.003784,51.882030 369.221344,41.634251 367.397980,31.554302 
	C375.364899,31.758804 383.209198,38.017307 384.155365,46.508495 
	C384.774658,52.066231 384.101501,57.767975 383.969055,63.835918 
z"/>
<path fill="#6DC9AA" opacity="1.000000" stroke="none" 
	d="
M370.258728,82.753922 
	C371.698608,79.233994 374.208344,77.017761 377.342529,78.347458 
	C379.496765,79.261406 381.763641,81.973244 382.308990,84.277069 
	C385.544098,97.943687 378.563965,114.538483 365.624756,123.377342 
	C370.554993,109.750359 371.681793,96.570648 370.258728,82.753922 
z"/>
<path fill="#E08B1B" opacity="1.000000" stroke="none" 
	d="
M174.536072,482.360718 
	C183.957413,480.667542 192.962265,478.914795 202.266296,477.103821 
	C202.541107,478.854309 203.058929,481.425720 203.283508,484.022522 
	C203.351685,484.810699 202.842270,486.026276 202.204041,486.441681 
	C192.375671,492.838470 181.952927,495.657318 170.508377,491.146606 
	C166.081680,489.401825 164.136520,486.120209 164.914124,480.777008 
	C168.076996,481.300690 171.098282,481.800934 174.536072,482.360718 
z"/>
<path fill="#E08B1B" opacity="1.000000" stroke="none" 
	d="
M121.141113,369.505829 
	C121.347725,366.010620 120.831230,362.381073 122.234093,359.791107 
	C127.573639,349.933319 136.736084,345.474243 147.464737,344.048126 
	C148.722641,343.880920 150.466110,345.387421 151.567108,346.522766 
	C152.927505,347.925659 153.851364,349.751862 155.281281,351.864075 
	C143.336807,356.489471 130.760468,359.955536 124.482895,373.507385 
	C123.096161,371.913727 122.197792,370.881287 121.141113,369.505829 
z"/>
<path fill="#F9BC59" opacity="1.000000" stroke="none" 
	d="
M103.948189,394.099792 
	C108.435310,388.923370 114.226944,387.129333 119.604782,385.620514 
	C121.422539,391.282227 123.114952,396.553528 124.915253,402.160858 
	C118.194290,403.176727 112.053200,406.424377 108.512459,413.253571 
	C100.129890,409.519043 98.517624,402.783478 103.948189,394.099792 
z"/>
<path fill="#6DC9AA" opacity="1.000000" stroke="none" 
	d="
M423.272949,99.554642 
	C418.720154,101.141609 414.515015,102.589531 410.330872,104.030220 
	C404.281372,92.566566 406.178345,72.826675 414.533173,63.491821 
	C415.025879,67.374077 415.004456,71.009659 416.008301,74.335800 
	C418.201111,81.601425 420.952972,88.696999 423.374908,95.896187 
	C423.737793,96.974792 423.552399,98.237854 423.272949,99.554642 
z"/>
<path fill="#FBBD59" opacity="1.000000" stroke="none" 
	d="
M148.930298,465.853882 
	C150.509293,468.608795 151.972717,471.002258 154.191437,474.631012 
	C148.401733,475.859985 142.919159,477.936707 137.416672,477.990906 
	C127.670776,478.086945 123.050674,470.825195 126.078003,460.779541 
	C133.160965,463.103546 140.023331,462.323425 146.551590,457.665863 
	C147.383438,460.542603 148.099091,463.017517 148.930298,465.853882 
z"/>
<path fill="#F8BB58" opacity="1.000000" stroke="none" 
	d="
M468.908722,361.916321 
	C466.182343,363.747620 463.734283,365.353302 461.502106,366.817352 
	C459.170074,359.477203 456.994080,352.628113 455.020111,346.414886 
	C461.780304,344.682953 468.959167,342.843750 476.518036,340.907196 
	C477.735596,348.666290 475.680664,355.878082 468.908722,361.916321 
z"/>
<path fill="#FABC59" opacity="1.000000" stroke="none" 
	d="
M445.770294,266.178589 
	C447.618317,268.248901 449.200439,270.081573 450.882599,272.030151 
	C446.796967,273.357788 443.066925,274.113342 439.786591,275.763123 
	C436.448303,277.442017 433.552826,280.001434 430.656189,282.039673 
	C427.840210,275.557281 424.927765,268.852783 421.919525,261.927704 
	C430.034973,259.581421 438.244598,259.531372 445.770294,266.178589 
z"/>
<path fill="#E89926" opacity="1.000000" stroke="none" 
	d="
M127.701996,491.081085 
	C126.838432,488.534454 126.222443,486.273712 125.270538,482.780151 
	C136.445847,488.662994 146.106720,486.193939 155.852707,481.931793 
	C156.648605,485.277374 157.327042,488.129242 157.991867,490.923889 
	C146.826935,498.825592 136.497971,498.945648 127.701996,491.081085 
z"/>
<path fill="#E99926" opacity="1.000000" stroke="none" 
	d="
M101.847504,384.776184 
	C98.647568,388.508789 95.732773,392.019806 92.582275,395.814758 
	C89.730530,393.673035 88.786919,390.661713 89.519562,386.908997 
	C91.366074,377.450897 99.981087,370.858856 112.066696,369.812531 
	C113.482887,372.332977 114.927788,374.904541 116.290390,377.329620 
	C111.539955,379.753845 106.836304,382.154236 101.847504,384.776184 
z"/>
<path fill="#ECBE7B" opacity="1.000000" stroke="none" 
	d="
M158.214828,41.064140 
	C153.657333,42.278812 153.542328,38.787312 153.142487,36.470013 
	C151.980759,29.737356 159.463379,18.986944 166.210968,17.803928 
	C167.300354,17.612930 169.568359,19.428925 169.955643,20.718409 
	C172.367050,28.747356 167.895569,36.442310 158.214828,41.064140 
z"/>
<path fill="#E99926" opacity="1.000000" stroke="none" 
	d="
M427.134186,241.596680 
	C436.394928,241.340439 440.409607,247.202515 443.299774,253.401642 
	C435.171509,253.401642 426.861328,253.401642 418.430237,253.401642 
	C415.359009,243.786789 416.000336,242.830292 427.134186,241.596680 
z"/>
<path fill="#EA9A26" opacity="1.000000" stroke="none" 
	d="
M468.778412,382.460754 
	C466.996735,379.859192 465.479095,377.525452 464.416931,375.892181 
	C470.857056,370.088562 477.031769,364.524139 482.964844,359.177429 
	C488.663422,370.786499 480.369843,381.221436 468.778412,382.460754 
z"/>
<path fill="#F7D4A7" opacity="1.000000" stroke="none" 
	d="
M73.432152,448.835876 
	C69.946526,444.270721 66.807152,439.856293 63.679966,435.459015 
	C71.905281,432.542236 78.577385,435.503540 84.347984,445.205231 
	C80.740768,446.495758 77.259583,447.741180 73.432152,448.835876 
z"/>
<path fill="#EABD7A" opacity="1.000000" stroke="none" 
	d="
M77.717552,466.401215 
	C77.280373,463.188507 76.878761,460.403473 76.386406,456.989197 
	C79.753662,455.676849 83.209213,454.330078 86.665482,452.983032 
	C90.152184,461.579315 86.550331,470.199677 77.753113,473.785370 
	C77.753113,471.310760 77.753113,469.069824 77.717552,466.401215 
z"/>
<path fill="#F7D4A7" opacity="1.000000" stroke="none" 
	d="
M24.230619,466.527313 
	C29.975384,461.049255 35.720142,455.571198 41.950474,449.630096 
	C44.194687,452.786224 46.155766,455.544189 48.613220,459.000244 
	C40.287601,461.821167 32.633530,464.414581 24.639362,466.795837 
	C24.299263,466.583649 24.230616,466.527313 24.230619,466.527313 
z"/>
<path fill="#F7D4A6" opacity="1.000000" stroke="none" 
	d="
M59.516068,468.709656 
	C57.266716,460.110046 65.086060,462.871490 68.608749,459.065857 
	C69.022095,462.637054 69.377174,465.007843 69.558014,467.391846 
	C70.226715,476.206940 69.542015,476.909393 60.289867,476.804962 
	C60.066628,474.277679 59.839523,471.706696 59.516068,468.709656 
z"/>
<path fill="#E9BC79" opacity="1.000000" stroke="none" 
	d="
M31.925861,476.621033 
	C30.402367,476.352203 29.275410,476.139526 26.802227,475.672821 
	C35.431427,472.394409 42.882000,469.563782 51.006226,466.477234 
	C51.408844,470.181122 51.754158,473.357819 52.114975,476.677185 
	C45.108604,476.677185 38.715504,476.677185 31.925861,476.621033 
z"/>
<path fill="#EBBE7B" opacity="1.000000" stroke="none" 
	d="
M55.151360,454.724365 
	C52.933506,451.214508 50.890614,448.014313 48.638767,444.486786 
	C50.794510,442.902496 52.883579,441.367218 55.564522,439.396973 
	C59.014721,443.471313 62.273762,447.319916 66.557640,452.378784 
	C61.942280,453.469910 58.634300,454.251953 55.151360,454.724365 
z"/>
<path fill="#EC9B26" opacity="1.000000" stroke="none" 
	d="
M336.999786,438.001099 
	C337.072113,437.937805 337.125244,437.849670 337.178406,437.761536 
	C337.246185,437.810669 337.313934,437.859802 337.381714,437.908936 
	C337.307892,437.977142 337.234070,438.045349 337.053253,438.018585 
	C336.946228,437.923645 336.980621,437.976227 336.999786,438.001099 
z"/>
<path fill="#DA8549" opacity="1.000000" stroke="none" 
	d="
M73.058762,338.959564 
	C73.444962,339.007111 73.652061,339.245209 73.859161,339.483307 
	C73.564880,339.577179 73.270599,339.671051 72.754234,339.652985 
	C72.647987,339.410736 72.763817,339.280426 73.058762,338.959564 
z"/>
<path fill="#F7D4A7" opacity="1.000000" stroke="none" 
	d="
M24.257694,466.558228 
	C24.455673,466.733643 24.695217,466.934448 24.934750,467.135254 
	C24.819242,467.227264 24.703747,467.319275 24.588253,467.411285 
	C24.564186,467.256866 24.540115,467.102417 24.373329,466.737671 
	C24.230616,466.527313 24.299263,466.583649 24.257694,466.558228 
z"/>
<path fill="#52B397" opacity="1.000000" stroke="none" 
	d="
M486.891724,76.934677 
	C486.908569,76.940468 486.923584,76.871101 486.880341,76.888977 
	C486.837097,76.906845 486.874878,76.928879 486.891724,76.934677 
z"/>
<path fill="#53B598" opacity="1.000000" stroke="none" 
	d="
M284.610352,52.314659 
	C284.580139,52.137897 284.747437,51.794346 285.050842,51.623463 
	C285.060577,51.913372 284.934235,52.030617 284.610352,52.314659 
z"/>
</svg>