<svg xmlns="http://www.w3.org/2000/svg" width="500" height="182" viewBox="0 0 500 182" version="1.1"><path d="M 434.176 20.750 C 434.535 31.854, 434.924 34.229, 437.192 39.148 C 441.947 49.463, 452.202 57.107, 463.331 58.632 L 468 59.272 468 33.636 L 468 8 450.882 8 L 433.764 8 434.176 20.750 M 478 43 L 478 78 487 78 L 496 78 496 43 L 496 8 487 8 L 478 8 478 43 M 39 42.937 C 28.531 46.142, 17.551 55.372, 13.386 64.468 C 3.687 85.653, 11.814 108.887, 32.483 119.068 L 39.450 122.500 70.237 122.803 L 101.024 123.107 102.583 125.486 C 103.789 127.326, 103.893 128.332, 103.041 129.923 C 101.958 131.948, 101.212 131.984, 55.720 132.240 L 9.500 132.500 9.193 136.750 L 8.885 141 56.475 141 C 96.514 141, 104.634 140.762, 107.654 139.500 C 112.068 137.656, 112 137.655, 112 139.550 C 112 142.976, 108.737 147.216, 104.684 149.057 C 100.771 150.833, 97.530 150.958, 54.693 150.978 L 8.885 151 9.193 155.250 L 9.500 159.500 57 159.500 C 109.327 159.500, 107.230 159.733, 114.342 153.136 C 121.185 146.788, 123.271 135.372, 119.087 127.170 C 116.370 121.845, 109.849 116.451, 104.499 115.104 C 101.819 114.429, 89.220 114, 72.095 114 C 45.899 114, 43.702 113.860, 38.347 111.857 C 31.460 109.280, 24.493 102.698, 21.032 95.500 C 17.732 88.635, 17.550 76.599, 20.646 69.878 C 23.562 63.547, 29.379 57.369, 35.437 54.172 L 40.500 51.500 90 51 L 139.500 50.500 139.807 46.250 L 140.115 42 90.807 42.086 C 63.688 42.133, 40.375 42.516, 39 42.937 M 41.500 61.389 C 30.879 66.029, 25.176 77.723, 28.379 88.295 C 30.283 94.580, 34.125 99.489, 39.308 102.259 C 43.329 104.409, 44.784 104.520, 75 105 L 106.500 105.500 112.142 108.270 C 118.779 111.530, 125.344 118.273, 128.258 124.824 C 131.502 132.115, 131.273 142.883, 127.720 150.142 C 124.501 156.719, 117.804 163.276, 111.176 166.339 C 106.617 168.446, 105.282 168.507, 57.750 168.794 L 9 169.089 9 173.544 L 9 178 55.790 178 C 105.676 178, 108.681 177.754, 118.205 172.895 C 120.484 171.733, 124.767 168.364, 127.722 165.409 C 150.329 142.802, 138.572 103.672, 107.201 97.109 C 104.081 96.456, 90.846 96, 75.022 96 C 51.920 96, 47.922 95.779, 46.571 94.429 C 44.729 92.586, 44.629 91.562, 46.035 88.934 C 47.036 87.065, 48.620 87, 93.535 87 L 140 87 140 82.500 L 140 78 92.750 78.022 C 47.695 78.043, 45.296 78.137, 41.101 80.040 C 38.682 81.137, 36.518 81.851, 36.293 81.626 C 35.438 80.772, 38.855 74.396, 41.451 72 L 44.160 69.500 91.830 69 L 139.500 68.500 139.807 64.250 L 140.115 60 92.307 60.039 C 55.146 60.070, 43.832 60.370, 41.500 61.389 M 445.667 70.667 C 445.300 71.033, 445 76.208, 445 82.167 L 445 93 456.500 93 L 468 93 468 81.500 L 468 70 457.167 70 C 451.208 70, 446.033 70.300, 445.667 70.667" stroke="none" fill="#54381b" fill-rule="evenodd"/><path d="M 433.425 8.334 C 433.144 9.067, 433.067 13.455, 433.253 18.084 L 433.593 26.500 433.796 17.250 L 434 8 451 8 L 468 8 468 33.417 C 468 49.777, 467.635 59.014, 466.975 59.342 C 466.411 59.621, 466.524 59.734, 467.225 59.592 C 468.211 59.393, 468.560 53.403, 468.767 33.167 L 469.033 7 451.485 7 C 437.783 7, 433.825 7.292, 433.425 8.334 M 486.737 7.745 L 495.974 8.075 496.250 43.287 L 496.526 78.500 496.763 42.750 L 497 7 487.250 7.208 L 477.500 7.415 486.737 7.745 M 67.750 41.749 C 81.088 41.907, 102.913 41.907, 116.250 41.749 C 129.588 41.592, 118.675 41.463, 92 41.463 C 65.325 41.463, 54.413 41.592, 67.750 41.749 M 30.750 45.572 C 26.873 47.675, 27.312 48.401, 31.250 46.399 C 35.020 44.481, 35.687 43.985, 34.417 44.040 C 33.913 44.062, 32.263 44.751, 30.750 45.572 M 147.468 45.222 C 147.189 45.950, 147.082 56.660, 147.230 69.023 L 147.500 91.500 153.500 91.500 L 159.500 91.500 160 82.500 L 160.500 73.500 166.090 73.205 C 169.856 73.006, 172.044 73.348, 172.794 74.252 C 173.407 74.991, 174.042 79.173, 174.204 83.547 L 174.500 91.500 180.500 91.500 L 186.500 91.500 186.768 68.274 L 187.037 45.047 184.673 44.454 C 183.373 44.128, 180.552 44.005, 178.405 44.180 L 174.500 44.500 174 52.500 L 173.500 60.500 167 60.500 L 160.500 60.500 160 52.500 L 159.500 44.500 153.738 44.200 C 149.658 43.987, 147.828 44.286, 147.468 45.222 M 213.405 44.741 C 211.605 45.988, 191.749 89.786, 192.461 90.938 C 192.823 91.522, 195.536 92, 198.491 92 C 203.319 92, 204.080 91.696, 206 89 C 208.063 86.102, 208.404 86, 216 86 C 223.596 86, 223.937 86.102, 226 89 C 227.963 91.756, 228.618 92, 234.068 92 C 238.547 92, 240 91.650, 240 90.569 C 240 89.782, 235.350 79.094, 229.667 66.819 C 220.637 47.314, 219.029 44.467, 216.917 44.241 C 215.588 44.098, 214.007 44.323, 213.405 44.741 M 245.449 45.273 C 245.180 45.973, 245.082 56.660, 245.230 69.023 L 245.500 91.500 251.500 91.500 L 257.500 91.500 257.788 82.250 C 257.946 77.162, 258.434 73, 258.873 73 C 259.313 73, 261.288 74.800, 263.263 77 C 265.238 79.200, 267.648 81, 268.619 81 C 269.589 81, 272.062 79.200, 274.114 77 C 276.165 74.800, 278.087 73, 278.384 73 C 278.682 73, 279.054 77.162, 279.212 82.250 L 279.500 91.500 285.500 91.500 L 291.500 91.500 291.500 68.014 C 291.500 39.031, 291.854 39.436, 278.734 53.403 C 273.776 58.681, 269.238 63, 268.649 63 C 268.060 63, 263.511 58.720, 258.539 53.488 C 250 44.502, 246.570 42.350, 245.449 45.273 M 302.200 45.200 C 301.340 46.060, 301 52.551, 301 68.078 C 301 85.940, 301.259 89.970, 302.472 90.976 C 303.519 91.846, 307.834 92.097, 317.456 91.849 L 330.969 91.500 334.734 87.733 C 338.234 84.232, 338.500 83.552, 338.500 78.088 C 338.500 73.746, 338.011 71.669, 336.627 70.140 C 335.252 68.621, 334.943 67.329, 335.465 65.285 C 337.339 57.955, 337.185 54.549, 334.826 51.102 C 330.869 45.320, 327.084 44, 314.466 44 C 307.192 44, 302.989 44.411, 302.200 45.200 M 362.331 45.250 C 361.282 46.685, 361.756 45.695, 350.533 69.909 C 345.840 80.034, 342 89.147, 342 90.159 C 342 91.717, 342.820 92, 347.335 92 C 352.001 92, 353.004 91.624, 355.342 89 C 357.868 86.165, 358.434 86, 365.598 86 C 372.771 86, 373.323 86.162, 375.813 89 C 378.114 91.622, 379.111 92, 383.723 92 C 388.331 92, 389 91.747, 389 90.003 C 389 88.027, 370.764 47.661, 368.783 45.250 C 368.217 44.563, 366.740 44, 365.500 44 C 364.260 44, 362.834 44.563, 362.331 45.250 M 395.449 45.273 C 395.180 45.973, 395.082 56.660, 395.230 69.023 L 395.500 91.500 401.500 91.500 L 407.500 91.500 408 82.500 L 408.500 73.500 413.893 73.193 C 416.859 73.024, 419.768 73.368, 420.357 73.957 C 420.946 74.546, 421.669 78.734, 421.964 83.264 L 422.500 91.500 428.500 91.500 L 434.500 91.500 434.769 69.126 C 434.963 53.046, 434.707 46.352, 433.858 45.329 C 433.051 44.357, 431.068 44, 427.589 44.203 L 422.500 44.500 422 52.500 L 421.500 60.500 414.750 60.796 L 408 61.091 408 53.746 C 408 49.366, 407.516 45.916, 406.800 45.200 C 405.171 43.571, 396.079 43.629, 395.449 45.273 M 27.453 60.250 L 23.500 64.500 27.750 60.547 C 31.702 56.871, 32.460 56, 31.703 56 C 31.540 56, 29.627 57.913, 27.453 60.250 M 314.384 57.442 C 313.144 60.673, 314.766 62.131, 319.241 61.808 C 323.035 61.534, 323.500 61.227, 323.500 59 C 323.500 56.773, 323.035 56.466, 319.241 56.192 C 316.105 55.965, 314.824 56.295, 314.384 57.442 M 70.319 59.749 C 83.419 59.907, 104.569 59.907, 117.319 59.749 C 130.068 59.591, 119.350 59.461, 93.500 59.462 C 67.650 59.462, 57.218 59.591, 70.319 59.749 M 214.201 69.321 C 213.540 71.148, 213 72.899, 213 73.213 C 213 74.059, 217.952 75.147, 218.963 74.523 C 219.881 73.956, 217.161 66, 216.049 66 C 215.693 66, 214.861 67.494, 214.201 69.321 M 363.685 69.534 C 361.573 73.963, 361.514 73.661, 364.645 74.447 C 368.460 75.405, 369.398 73.887, 367.619 69.632 C 366.785 67.634, 365.937 66, 365.736 66 C 365.535 66, 364.612 67.590, 363.685 69.534 M 468.212 81.218 L 468 92.937 456.250 93.253 L 444.500 93.570 456.281 93.785 C 465.248 93.949, 468.183 93.686, 468.567 92.686 C 468.844 91.963, 468.926 86.450, 468.748 80.436 L 468.425 69.500 468.212 81.218 M 314 76.837 C 314 79.377, 314.432 79.836, 317.209 80.244 C 322.355 80.999, 325.500 79.741, 325.500 76.928 C 325.500 74.674, 325.089 74.479, 319.750 74.200 L 314 73.900 314 76.837 M 18.300 82 C 18.300 85.025, 18.487 86.263, 18.716 84.750 C 18.945 83.237, 18.945 80.763, 18.716 79.250 C 18.487 77.737, 18.300 78.975, 18.300 82 M 70.750 77.749 C 83.538 77.907, 104.463 77.907, 117.250 77.749 C 130.038 77.591, 119.575 77.461, 94 77.461 C 68.425 77.461, 57.963 77.591, 70.750 77.749 M 39.048 79.949 C 38.249 80.455, 37.237 80.646, 36.798 80.375 C 36.359 80.104, 36 80.359, 36 80.941 C 36 81.523, 36.337 81.984, 36.750 81.965 C 37.971 81.907, 42.592 79.073, 41.500 79.051 C 40.950 79.040, 39.846 79.444, 39.048 79.949 M 25 102.313 C 25 102.485, 26.462 103.948, 28.250 105.563 L 31.500 108.500 28.563 105.250 C 25.825 102.221, 25 101.540, 25 102.313 M 61.750 105.748 C 69.587 105.917, 82.412 105.917, 90.250 105.748 C 98.087 105.579, 91.675 105.441, 76 105.441 C 60.325 105.441, 53.912 105.579, 61.750 105.748 M 125 105.313 C 125 105.485, 126.463 106.948, 128.250 108.563 L 131.500 111.500 128.563 108.250 C 125.825 105.221, 125 104.540, 125 105.313 M 112 118.313 C 112 118.485, 113.463 119.948, 115.250 121.563 L 118.500 124.500 115.563 121.250 C 112.825 118.221, 112 117.540, 112 118.313 M 157.459 120.880 C 146.154 126.014, 141.799 139.644, 147.794 151.120 C 157.597 169.885, 185.278 164.134, 186.805 143.016 C 187.314 135.976, 185.793 130.972, 181.739 126.355 C 175.471 119.216, 165.881 117.054, 157.459 120.880 M 192 140.437 L 192 162 205 162 L 218 162 218 159 L 218 156 208.523 156 L 199.045 156 198.773 137.750 L 198.500 119.500 195.250 119.187 L 192 118.873 192 140.437 M 222.397 120.408 C 222.100 121.183, 222.001 128.720, 222.178 137.158 C 222.479 151.483, 222.659 152.723, 224.901 155.867 C 227.444 159.432, 233.875 162.941, 237.934 162.978 C 242.102 163.016, 248.778 159.094, 251.212 155.179 C 253.347 151.746, 253.500 150.432, 253.500 135.500 L 253.500 119.500 250 119.500 L 246.500 119.500 246.257 134 C 245.963 151.544, 245.754 152.559, 242.035 154.482 C 237.731 156.708, 235.202 156.356, 231.923 153.077 L 229 150.154 229 134.577 L 229 119 225.969 119 C 224.284 119, 222.697 119.626, 222.397 120.408 M 256.667 119.667 C 256.300 120.033, 256 121.608, 256 123.167 C 256 125.963, 256.078 126, 262 126 L 268 126 268 144 L 268 162 271.500 162 L 275 162 275 144 L 275 126 280.500 126 L 286 126 286 122.500 L 286 119 271.667 119 C 263.783 119, 257.033 119.300, 256.667 119.667 M 292.709 119.624 C 291.367 120.966, 291.961 125, 293.500 125 C 294.768 125, 295 127.377, 295 140.393 C 295 153.153, 294.743 155.884, 293.500 156.362 C 292.675 156.678, 292 158.076, 292 159.469 C 292 161.936, 292.177 162, 299 162 C 305.867 162, 306 161.951, 306 159.406 C 306 157.654, 305.351 156.643, 304 156.290 C 302.112 155.796, 302 154.926, 302 140.790 C 302 126.523, 302.097 125.787, 304.054 125.276 C 305.580 124.877, 306.030 124.066, 305.804 122.119 C 305.518 119.654, 305.144 119.483, 299.459 119.208 C 296.136 119.047, 293.099 119.234, 292.709 119.624 M 323.907 121.307 C 311.618 127.740, 308.575 144.302, 317.719 154.984 C 323.512 161.753, 330.684 164.188, 338.434 162.019 C 350.172 158.732, 356.998 146.386, 353.579 134.624 C 349.801 121.628, 335.530 115.223, 323.907 121.307 M 359 140.500 L 359 162 362.500 162 L 366 162 366 146.359 L 366 130.717 377.250 146.302 C 388.293 161.601, 388.569 161.888, 392.270 161.944 L 396.040 162 395.770 140.750 L 395.500 119.500 392.276 119.189 L 389.051 118.877 388.776 134.653 L 388.500 150.428 377.184 134.714 C 366.355 119.676, 365.720 119, 362.434 119 L 359 119 359 140.500 M 407.449 120.551 C 403.906 122.300, 401 126.711, 401 130.339 C 401 136.945, 404.863 140.642, 414.789 143.536 C 423.420 146.053, 426.167 150.852, 421.208 154.750 C 418.112 157.184, 408.909 155.864, 406.842 152.691 C 406.114 151.572, 400 153.665, 400 155.032 C 400 157.848, 410.055 162.980, 415.601 162.994 C 425.194 163.020, 432.205 154.947, 429.885 146.545 C 428.648 142.065, 425.441 139.635, 417.196 136.930 C 409.210 134.311, 408 133.464, 408 130.500 C 408 125.728, 414.967 123.603, 420.298 126.748 C 423.336 128.541, 423.929 128.593, 426.416 127.290 C 429.114 125.877, 429.133 125.804, 427.336 123.785 C 423.216 119.159, 413.478 117.576, 407.449 120.551 M 72.417 123.750 C 92.661 123.955, 100.769 124.371, 101.917 125.266 C 103.315 126.356, 103.340 126.296, 102.128 124.750 C 100.870 123.147, 98.392 123.020, 72.628 123.234 L 44.500 123.467 72.417 123.750 M 156.965 129.799 C 146.031 140.734, 155.596 159.434, 169.926 155.140 C 180.559 151.955, 183.349 138.113, 175.035 129.799 C 171.603 126.368, 170.728 126, 166 126 C 161.272 126, 160.397 126.368, 156.965 129.799 M 326.299 127.960 C 316.997 133.631, 317.680 149.773, 327.417 154.394 C 331.931 156.536, 335.809 156.414, 339.759 154.005 C 349.344 148.161, 349.459 132.392, 339.953 127.476 C 335.996 125.430, 330.105 125.638, 326.299 127.960 M 130.252 137.500 C 130.263 139.700, 130.468 140.482, 130.707 139.238 C 130.946 137.994, 130.937 136.194, 130.687 135.238 C 130.437 134.282, 130.241 135.300, 130.252 137.500 M 32.250 141.749 C 45.313 141.907, 66.688 141.907, 79.750 141.749 C 92.813 141.591, 82.125 141.462, 56 141.462 C 29.875 141.462, 19.188 141.591, 32.250 141.749 M 31.750 150.749 C 44.538 150.907, 65.463 150.907, 78.250 150.749 C 91.038 150.591, 80.575 150.461, 55 150.461 C 29.425 150.461, 18.963 150.591, 31.750 150.749 M 114.437 153.250 L 111.500 156.500 114.750 153.563 C 117.779 150.825, 118.460 150, 117.687 150 C 117.515 150, 116.052 151.463, 114.437 153.250 M 127.437 166.250 L 124.500 169.500 127.750 166.563 C 129.537 164.948, 131 163.485, 131 163.313 C 131 162.540, 130.175 163.221, 127.437 166.250 M 32.250 168.749 C 45.313 168.907, 66.688 168.907, 79.750 168.749 C 92.813 168.591, 82.125 168.462, 56 168.462 C 29.875 168.462, 19.188 168.591, 32.250 168.749" stroke="none" fill="#0ea44e" fill-rule="evenodd"/></svg>