<svg xmlns="http://www.w3.org/2000/svg" width="140" height="50.96" viewBox="0 0 140 50.96" version="1.1"><path d="M121.569 5.81c0.101 3.109 0.209 3.774 0.844 5.151 1.331 2.888 4.203 5.029 7.319 5.456l1.307 0.179V2.24h-9.586l0.115 3.57M133.84 12.04v9.8h5.04V2.24h-5.04v9.8m-122.92 -0.018c-2.931 0.897 -6.006 3.482 -7.172 6.029 -2.716 5.932 -0.44 12.437 5.347 15.288l1.951 0.961 8.62 0.085 8.62 0.085 0.437 0.666c0.338 0.515 0.367 0.797 0.128 1.242 -0.303 0.567 -0.512 0.577 -13.25 0.649l-12.942 0.073 -0.086 1.19 -0.086 1.19h13.325c11.211 0 13.485 -0.067 14.33 -0.42 1.236 -0.516 1.217 -0.517 1.217 0.014 0 0.959 -0.914 2.146 -2.048 2.662 -1.096 0.497 -2.003 0.532 -13.997 0.538L2.488 42.28l0.086 1.19 0.086 1.19H15.96c14.652 0 14.064 0.065 16.056 -1.782 1.916 -1.777 2.5 -4.974 1.329 -7.27 -0.761 -1.491 -2.587 -3.001 -4.085 -3.378 -0.75 -0.189 -4.278 -0.309 -9.073 -0.309 -7.335 0 -7.95 -0.039 -9.449 -0.6 -1.928 -0.722 -3.879 -2.565 -4.848 -4.58 -0.924 -1.922 -0.975 -5.292 -0.108 -7.174 0.816 -1.773 2.445 -3.503 4.141 -4.398L11.34 14.42 25.2 14.28l13.86 -0.14 0.086 -1.19 0.086 -1.19 -13.806 0.024c-7.593 0.013 -14.121 0.12 -14.506 0.238m0.7 5.167c-2.974 1.299 -4.571 4.574 -3.674 7.534 0.533 1.76 1.609 3.134 3.06 3.91 1.126 0.602 1.533 0.633 9.994 0.767l8.82 0.14 1.58 0.776c1.858 0.913 3.697 2.801 4.512 4.635 0.908 2.041 0.844 5.057 -0.151 7.089 -0.901 1.842 -2.776 3.678 -4.632 4.535 -1.277 0.59 -1.65 0.607 -14.959 0.687L2.52 47.345V49.84h13.101c13.968 0 14.809 -0.069 17.476 -1.429 0.638 -0.325 1.837 -1.269 2.665 -2.096 6.33 -6.33 3.038 -17.286 -5.746 -19.124C29.143 27.008 25.437 26.88 21.006 26.88c-6.469 0 -7.588 -0.062 -7.966 -0.44 -0.516 -0.516 -0.544 -0.803 -0.15 -1.539C13.17 24.378 13.614 24.36 26.19 24.36H39.2v-2.52l-13.23 0.006c-12.615 0.006 -13.287 0.032 -14.462 0.565 -0.677 0.307 -1.283 0.507 -1.346 0.444 -0.239 -0.239 0.717 -2.024 1.444 -2.695l0.759 -0.7 13.348 -0.14 13.348 -0.14 0.086 -1.19 0.086 -1.19 -13.386 0.011c-10.405 0.009 -13.573 0.093 -14.226 0.378m113.167 2.598c-0.103 0.102 -0.187 1.551 -0.187 3.22V26.04h6.44V19.6h-3.033c-1.669 0 -3.118 0.084 -3.22 0.187" stroke="none" fill="#54381b" fill-rule="evenodd" stroke-width="0.28"/><path d="M121.359 2.334c-0.079 0.205 -0.1 1.434 -0.048 2.73l0.095 2.356 0.057 -2.59L121.52 2.24h9.52v7.117c0 4.581 -0.102 7.167 -0.287 7.259 -0.158 0.078 -0.126 0.11 0.07 0.07 0.276 -0.056 0.374 -1.733 0.432 -7.399L131.329 1.96h-4.913c-3.837 0 -4.945 0.082 -5.057 0.374m14.927 -0.165 2.586 0.092 0.077 9.859 0.077 9.86 0.066 -10.01L139.16 1.96l-2.73 0.058 -2.73 0.058 2.586 0.092M18.97 11.69c3.735 0.044 9.846 0.044 13.58 0 3.735 -0.044 0.679 -0.08 -6.79 -0.08s-10.524 0.036 -6.79 0.08m-10.36 1.07c-1.086 0.589 -0.963 0.792 0.14 0.232 1.056 -0.537 1.242 -0.676 0.887 -0.661 -0.141 0.006 -0.603 0.199 -1.027 0.429m32.681 -0.098c-0.078 0.204 -0.108 3.203 -0.067 6.664l0.076 6.294h3.36l0.14 -2.52 0.14 -2.52 1.565 -0.083c1.054 -0.056 1.667 0.04 1.877 0.293 0.172 0.207 0.349 1.378 0.395 2.603l0.083 2.227h3.36l0.075 -6.503 0.075 -6.504 -0.662 -0.166c-0.364 -0.091 -1.154 -0.126 -1.755 -0.077l-1.093 0.09 -0.14 2.24 -0.14 2.24h-3.64l-0.14 -2.24 -0.14 -2.24 -1.613 -0.084c-1.142 -0.06 -1.655 0.024 -1.756 0.286m18.462 -0.135c-0.504 0.349 -6.064 12.613 -5.864 12.935 0.101 0.164 0.861 0.297 1.688 0.297 1.352 0 1.565 -0.085 2.103 -0.84 0.578 -0.811 0.673 -0.84 2.8 -0.84s2.222 0.029 2.8 0.84c0.55 0.772 0.733 0.84 2.259 0.84 1.254 0 1.661 -0.098 1.661 -0.401 0 -0.22 -1.302 -3.213 -2.893 -6.65 -2.528 -5.461 -2.979 -6.259 -3.57 -6.322 -0.372 -0.04 -0.815 0.023 -0.983 0.14m8.972 0.149c-0.075 0.196 -0.103 3.188 -0.061 6.65l0.076 6.294h3.36l0.081 -2.59c0.044 -1.425 0.181 -2.59 0.304 -2.59 0.123 0 0.676 0.504 1.229 1.12 0.553 0.616 1.228 1.12 1.5 1.12 0.272 0 0.964 -0.504 1.539 -1.12 0.574 -0.616 1.112 -1.12 1.196 -1.12 0.083 0 0.188 1.165 0.232 2.59l0.081 2.59h3.36V19.044c0 -8.115 0.099 -8.002 -3.574 -4.091 -1.388 1.478 -2.659 2.687 -2.824 2.687 -0.165 0 -1.439 -1.198 -2.831 -2.663 -2.391 -2.516 -3.351 -3.119 -3.665 -2.3M84.616 12.656c-0.241 0.241 -0.336 2.058 -0.336 6.406 0 5.001 0.073 6.13 0.412 6.411 0.293 0.244 1.501 0.314 4.196 0.244l3.784 -0.098 1.054 -1.055c0.98 -0.98 1.054 -1.171 1.054 -2.701 0 -1.216 -0.137 -1.797 -0.524 -2.225 -0.385 -0.425 -0.472 -0.787 -0.325 -1.359 0.525 -2.052 0.482 -3.006 -0.179 -3.971 -1.108 -1.619 -2.168 -1.989 -5.701 -1.989 -2.037 0 -3.214 0.115 -3.434 0.336m16.837 0.014c-0.294 0.402 -0.161 0.125 -3.303 6.905C96.835 22.41 95.76 24.961 95.76 25.245c0 0.436 0.23 0.515 1.494 0.515 1.306 0 1.587 -0.105 2.242 -0.84 0.707 -0.794 0.866 -0.84 2.872 -0.84 2.008 0 2.163 0.045 2.86 0.84 0.644 0.734 0.923 0.84 2.215 0.84 1.29 0 1.478 -0.071 1.478 -0.559 0 -0.553 -5.106 -11.856 -5.661 -12.531 -0.158 -0.192 -0.572 -0.35 -0.919 -0.35 -0.347 0 -0.746 0.158 -0.887 0.35m9.273 0.006c-0.075 0.196 -0.103 3.188 -0.061 6.65l0.076 6.294h3.36l0.14 -2.52 0.14 -2.52 1.51 -0.086c0.83 -0.047 1.645 0.049 1.81 0.214 0.165 0.165 0.367 1.338 0.45 2.606l0.15 2.306h3.36l0.075 -6.265c0.054 -4.502 -0.017 -6.377 -0.255 -6.663 -0.226 -0.272 -0.781 -0.372 -1.755 -0.315l-1.425 0.083 -0.14 2.24 -0.14 2.24 -1.89 0.083 -1.89 0.083v-2.057c0 -1.226 -0.136 -2.192 -0.336 -2.393 -0.456 -0.456 -3.002 -0.44 -3.178 0.02M7.687 16.87 6.58 18.06l1.19 -1.107C8.877 15.924 9.089 15.68 8.877 15.68c-0.046 0 -0.581 0.536 -1.19 1.19m80.341 -0.786c-0.347 0.905 0.107 1.313 1.36 1.222 1.062 -0.077 1.193 -0.163 1.193 -0.786s-0.13 -0.71 -1.193 -0.786c-0.878 -0.064 -1.237 0.029 -1.36 0.35M19.689 16.73c3.668 0.044 9.59 0.044 13.16 0 3.57 -0.044 0.569 -0.081 -6.669 -0.08 -7.238 0 -10.159 0.036 -6.491 0.08m40.287 2.68c-0.185 0.512 -0.336 1.002 -0.336 1.09 0 0.237 1.387 0.542 1.67 0.367 0.257 -0.159 -0.505 -2.386 -0.816 -2.386 -0.1 0 -0.333 0.418 -0.517 0.93m41.856 0.06c-0.591 1.24 -0.608 1.156 0.269 1.376 1.068 0.268 1.331 -0.157 0.833 -1.348 -0.234 -0.559 -0.471 -1.017 -0.527 -1.017 -0.056 0 -0.315 0.445 -0.574 0.99m29.268 3.272L131.04 26.022l-3.29 0.088 -3.29 0.089 3.299 0.06c2.511 0.046 3.333 -0.028 3.44 -0.308 0.078 -0.202 0.101 -1.746 0.051 -3.43l-0.09 -3.062 -0.06 3.281M87.92 21.514c0 0.711 0.121 0.84 0.899 0.954 1.441 0.211 2.321 -0.141 2.321 -0.928 0 -0.631 -0.115 -0.686 -1.61 -0.764l-1.61 -0.084v0.822M5.124 22.96c0 0.847 0.052 1.194 0.116 0.77 0.064 -0.424 0.064 -1.116 0 -1.54S5.124 22.113 5.124 22.96m14.686 -1.19c3.581 0.044 9.44 0.044 13.02 0 3.581 -0.044 0.651 -0.081 -6.51 -0.081s-10.09 0.036 -6.51 0.081m-8.877 0.616c-0.224 0.142 -0.507 0.195 -0.63 0.119 -0.123 -0.076 -0.223 -0.004 -0.223 0.158s0.094 0.292 0.21 0.287c0.342 -0.016 1.636 -0.81 1.33 -0.816 -0.154 -0.003 -0.463 0.11 -0.687 0.251M7 28.648c0 0.048 0.409 0.458 0.91 0.91l0.91 0.822 -0.822 -0.91c-0.767 -0.848 -0.998 -1.039 -0.998 -0.822m10.29 0.962c2.194 0.047 5.785 0.047 7.98 0 2.194 -0.047 0.399 -0.086 -3.99 -0.086s-6.185 0.039 -3.99 0.086m17.71 -0.122c0 0.048 0.41 0.458 0.91 0.91l0.91 0.822 -0.822 -0.91c-0.767 -0.848 -0.998 -1.039 -0.998 -0.822m-3.64 3.64c0 0.048 0.41 0.458 0.91 0.91l0.91 0.822 -0.822 -0.91c-0.767 -0.848 -0.998 -1.039 -0.998 -0.822m12.729 0.719c-3.165 1.438 -4.385 5.254 -2.706 8.467 2.745 5.254 10.496 3.644 10.923 -2.269 0.143 -1.971 -0.283 -3.372 -1.418 -4.665 -1.755 -1.999 -4.44 -2.604 -6.798 -1.533M53.76 39.322V45.36h7.28v-1.68h-5.307l-0.076 -5.11 -0.076 -5.11 -0.91 -0.088 -0.91 -0.088v6.038m8.511 -5.608c-0.083 0.217 -0.111 2.327 -0.061 4.69 0.084 4.011 0.135 4.358 0.762 5.239 0.712 0.998 2.513 1.981 3.649 1.991 1.167 0.011 3.036 -1.088 3.718 -2.184 0.598 -0.961 0.641 -1.329 0.641 -5.51v-4.48h-1.96l-0.068 4.06c-0.082 4.912 -0.141 5.197 -1.182 5.735 -1.205 0.623 -1.913 0.525 -2.831 -0.393L64.12 42.043V33.32h-0.849c-0.472 0 -0.916 0.175 -1 0.394m9.596 -0.207c-0.103 0.102 -0.187 0.543 -0.187 0.98 0 0.783 0.022 0.793 1.68 0.793h1.68v10.08h1.96v-10.08h3.08v-1.96h-4.013c-2.208 0 -4.098 0.084 -4.2 0.187m10.092 -0.012c-0.376 0.376 -0.209 1.505 0.221 1.505 0.355 0 0.42 0.666 0.42 4.31 0 3.573 -0.072 4.337 -0.42 4.471 -0.231 0.088 -0.42 0.48 -0.42 0.87 0 0.691 0.05 0.709 1.96 0.709 1.923 0 1.96 -0.014 1.96 -0.726 0 -0.491 -0.182 -0.774 -0.56 -0.872 -0.529 -0.138 -0.56 -0.382 -0.56 -4.34 0 -3.995 0.027 -4.201 0.575 -4.344 0.427 -0.112 0.553 -0.339 0.49 -0.884 -0.08 -0.69 -0.185 -0.738 -1.777 -0.815 -0.93 -0.045 -1.781 0.007 -1.89 0.116m8.735 0.471c-3.441 1.801 -4.293 6.439 -1.733 9.43 1.622 1.895 3.63 2.577 5.8 1.97 3.287 -0.92 5.198 -4.377 4.241 -7.671 -1.058 -3.639 -5.054 -5.432 -8.308 -3.729M100.52 39.34V45.36h1.96v-8.759l3.15 4.364c3.092 4.284 3.169 4.364 4.206 4.38l1.056 0.016 -0.076 -5.95 -0.076 -5.95 -0.903 -0.087 -0.903 -0.087 -0.077 4.417 -0.077 4.417 -3.168 -4.4C102.579 33.509 102.402 33.32 101.482 33.32H100.52v6.02m13.566 -5.586c-0.992 0.49 -1.806 1.725 -1.806 2.741 0 1.85 1.082 2.885 3.861 3.695 2.417 0.705 3.186 2.048 1.797 3.14 -0.867 0.682 -3.444 0.312 -4.022 -0.577 -0.204 -0.313 -1.916 0.273 -1.916 0.655 0 0.788 2.815 2.225 4.368 2.229 2.686 0.007 4.649 -2.253 4 -4.606 -0.346 -1.254 -1.244 -1.935 -3.553 -2.692 -2.236 -0.733 -2.575 -0.97 -2.575 -1.8 0 -1.336 1.951 -1.931 3.443 -1.051 0.851 0.502 1.017 0.517 1.713 0.152 0.755 -0.396 0.761 -0.416 0.258 -0.981 -1.154 -1.295 -3.88 -1.739 -5.568 -0.906M20.277 34.65c5.668 0.057 7.939 0.174 8.26 0.424 0.391 0.305 0.398 0.288 0.059 -0.144 -0.352 -0.449 -1.046 -0.484 -8.26 -0.424l-7.876 0.065 7.817 0.079m23.673 1.694c-3.062 3.062 -0.383 8.298 3.629 7.095 2.977 -0.892 3.758 -4.768 1.431 -7.095 -0.961 -0.961 -1.206 -1.064 -2.53 -1.064s-1.569 0.103 -2.53 1.064m47.414 -0.515c-2.605 1.588 -2.413 6.108 0.313 7.402 1.264 0.6 2.35 0.566 3.456 -0.109 2.684 -1.636 2.716 -6.052 0.054 -7.428 -1.108 -0.573 -2.757 -0.515 -3.823 0.136m-54.893 2.671c0.003 0.616 0.06 0.835 0.127 0.487 0.067 -0.348 0.064 -0.852 -0.006 -1.12s-0.125 0.017 -0.122 0.633m-27.441 1.19c3.658 0.044 9.643 0.044 13.3 0 3.658 -0.044 0.665 -0.08 -6.65 -0.08s-10.307 0.036 -6.65 0.08m-0.14 2.52c3.581 0.044 9.44 0.044 13.02 0 3.581 -0.044 0.651 -0.081 -6.51 -0.081s-10.09 0.036 -6.51 0.081m23.152 0.7 -0.822 0.91 0.91 -0.822c0.848 -0.767 1.039 -0.998 0.822 -0.998 -0.048 0 -0.458 0.41 -0.91 0.91m3.64 3.64 -0.822 0.91 0.91 -0.822c0.5 -0.452 0.91 -0.862 0.91 -0.91 0 -0.216 -0.231 -0.026 -0.998 0.822m-26.652 0.7c3.658 0.044 9.643 0.044 13.3 0 3.658 -0.044 0.665 -0.08 -6.65 -0.08s-10.307 0.036 -6.65 0.08" stroke="none" fill="#0ea44e" fill-rule="evenodd" stroke-width="0.28"/></svg>