<svg version="1.1" id="Layer_1" xmlns="http://www.w3.org/2000/svg" xmlns:xlink="http://www.w3.org/1999/xlink" x="0px" y="0px"
	 width="100%" viewBox="0 0 512 512" enable-background="new 0 0 512 512" xml:space="preserve">
<path fill="#0282FC" opacity="1.000000" stroke="none" 
	d="
M513.000000,82.000000 
	C513.000000,199.355347 513.000000,316.710693 512.694946,434.204987 
	C511.929077,435.161346 511.284363,435.926422 511.034485,436.803925 
	C506.136566,454.004364 496.714752,467.942444 482.117798,478.525726 
	C468.945587,488.076019 454.066437,492.612030 438.217590,492.838623 
	C404.746674,493.317047 371.262817,492.890961 337.492615,492.553650 
	C335.053375,492.192322 332.906067,492.053223 330.758179,492.043701 
	C311.203552,491.957062 291.648865,491.892975 271.773254,491.620483 
	C266.345123,489.998962 261.048615,489.048645 256.163513,487.078217 
	C235.076309,478.572510 220.001328,464.085907 213.207581,442.129913 
	C216.512436,442.139282 219.531128,442.798340 222.082504,441.987335 
	C223.983719,441.382996 226.424210,438.944305 226.527023,437.199005 
	C226.631317,435.428406 224.477264,433.066437 222.712372,431.798553 
	C221.447250,430.889740 219.078873,431.684784 217.419388,431.102325 
	C216.148346,430.656158 214.337936,429.294373 214.279602,428.254974 
	C213.968399,422.709717 214.132996,417.137726 214.132996,411.257507 
	C216.496765,411.257507 218.135132,411.233795 219.772583,411.262451 
	C223.141983,411.321411 226.855911,411.783173 226.878479,406.764374 
	C226.902145,401.502563 223.069611,401.886688 219.491760,401.987549 
	C217.756165,402.036469 216.018051,401.996002 214.073547,401.996002 
	C214.073547,398.244141 213.761566,395.227966 214.142929,392.302185 
	C214.798401,387.273438 212.729156,384.815094 207.872818,383.951508 
	C207.947464,380.793976 207.997360,378.131012 207.997482,375.468079 
	C208.001663,284.080322 207.993103,192.692566 208.005325,101.304802 
	C208.010025,66.146606 228.642059,38.085972 262.120880,27.507124 
	C263.555420,27.053833 264.774261,25.918118 266.396667,25.028788 
	C267.111725,24.994699 267.523651,25.032125 268.096008,25.282375 
	C268.835693,25.297354 269.414917,25.099508 270.456909,24.816967 
	C293.490082,24.741779 316.060547,24.766130 338.630920,24.734558 
	C340.581299,24.731829 342.531158,24.359333 344.917664,24.112526 
	C374.836395,24.044447 404.319427,23.906317 433.800446,24.090639 
	C440.318359,24.131390 446.935425,24.781521 453.325134,26.059464 
	C483.660431,32.126518 501.955231,51.250011 511.059204,80.123444 
	C511.297119,80.877930 512.335144,81.380135 513.000000,82.000000 
M345.629211,237.500214 
	C345.628845,215.503067 345.651367,193.505890 345.614929,171.508789 
	C345.603210,164.428329 343.320709,160.663406 336.427155,159.215790 
	C330.845093,158.043579 324.807098,157.666153 319.173492,158.428986 
	C310.067139,159.662048 307.220947,163.812744 307.219391,173.135544 
	C307.215363,197.132629 307.218048,221.129730 307.218018,245.126816 
	C307.218018,246.789261 307.217987,248.451706 307.217987,250.114151 
	C305.297974,248.525925 304.423798,246.939148 303.581146,245.335815 
	C291.041321,221.476501 278.681763,197.520187 265.905090,173.788437 
	C257.837280,158.803009 253.033295,156.063889 233.019058,158.203690 
	C224.197830,159.146790 220.167252,163.760223 220.163040,171.310532 
	C220.134766,221.971039 220.173370,272.631592 220.112061,323.292053 
	C220.105606,328.620575 222.427399,332.144104 227.148758,334.287384 
	C233.629074,337.229156 240.339432,337.541260 247.175552,335.910522 
	C255.571564,333.907715 258.506348,330.151001 258.511078,321.477936 
	C258.524139,297.480835 258.511078,273.483765 258.526428,249.486664 
	C258.527527,247.767853 258.675323,246.049149 258.825897,242.797287 
	C260.521881,245.642380 261.459534,247.112717 262.298157,248.637512 
	C275.770416,273.133087 289.738739,297.374664 302.495331,322.237793 
	C309.754333,336.385864 321.021851,338.569519 334.234558,335.858765 
	C342.699677,334.122009 345.621399,330.120819 345.624817,321.490173 
	C345.635712,293.826874 345.629059,266.163544 345.629211,237.500214 
M425.698944,105.252899 
	C430.960815,95.430878 436.630524,85.847176 435.059814,73.838242 
	C434.502533,69.577660 432.838318,66.936371 428.901245,66.850723 
	C416.091888,66.572044 403.270569,66.606438 390.458984,66.823532 
	C386.974579,66.882576 384.619141,68.949417 384.714691,72.966820 
	C384.817596,77.293907 384.386444,81.667450 384.897858,85.935715 
	C385.126587,87.845001 386.675201,90.352226 388.334167,91.199867 
	C394.662842,94.433510 400.375397,90.849182 400.701447,83.896942 
	C400.752533,82.807350 401.074951,81.730484 401.253387,80.749512 
	C407.219421,80.749512 412.820709,80.749512 419.691132,80.749512 
	C418.683014,84.514687 418.423279,88.041389 416.869019,90.852287 
	C409.707825,103.803474 402.160614,116.540703 394.806000,129.385681 
	C392.021362,134.249100 393.126678,138.088211 397.840790,140.528870 
	C403.003021,143.201538 406.339539,142.263962 408.944611,137.291382 
	C414.422577,126.835060 419.853363,116.354034 425.698944,105.252899 
M342.493439,403.569244 
	C341.971161,401.782135 341.982605,398.998505 340.832977,398.382812 
	C336.190216,395.896332 335.492676,401.165009 333.284271,403.093292 
	C321.644196,400.006409 312.578705,402.129608 308.550079,408.746063 
	C305.159119,414.315247 306.287994,421.163666 311.764557,427.615051 
	C307.398926,431.167480 306.454529,435.323151 310.195709,439.803375 
	C303.663605,446.077728 303.678741,452.412781 309.946564,456.837708 
	C317.091156,461.881561 330.814026,462.140045 338.049713,457.349335 
	C342.168274,454.622406 344.082550,450.711578 343.692566,445.847595 
	C343.304321,441.005432 340.392395,437.798126 335.940430,436.397552 
	C332.158600,435.207794 328.138306,434.795135 324.258240,433.889832 
	C322.446899,433.467194 320.717621,432.692810 318.951111,432.077850 
	C339.895081,429.670380 345.613831,422.663330 339.069458,406.753906 
	C340.002655,405.902008 340.976410,405.013031 342.493439,403.569244 
M415.134857,420.875427 
	C415.137726,426.207825 415.135681,431.540253 415.144897,436.872650 
	C415.152924,441.515045 418.353180,442.237823 421.945312,442.214783 
	C425.341461,442.192993 428.366760,441.511841 428.325043,437.063904 
	C428.265717,430.732605 428.475189,424.391418 428.189819,418.071625 
	C427.885559,411.335052 425.143463,405.676880 418.783844,402.710541 
	C412.985291,400.005920 407.814911,401.978577 403.202179,406.307892 
	C401.173645,402.147339 397.866119,401.349030 393.915436,402.392426 
	C389.749115,403.492798 390.179840,406.882477 390.189178,410.075409 
	C390.214508,418.740479 390.293518,427.407104 390.161652,436.070251 
	C390.090210,440.760651 392.744629,442.259186 396.767853,442.240112 
	C400.700897,442.221466 403.591461,440.952148 403.452850,436.169067 
	C403.303284,431.007782 403.385895,425.838135 403.443054,420.672974 
	C403.484833,416.896942 404.401337,413.304779 408.907623,413.139404 
	C413.168091,412.983063 415.024994,415.891785 415.134857,420.875427 
M371.165009,443.033844 
	C374.696075,441.723053 378.539215,440.888245 381.609863,438.875122 
	C382.899323,438.029755 383.538788,434.101654 382.671997,432.653351 
	C381.824188,431.236755 378.639893,430.556274 376.558441,430.696777 
	C373.502045,430.902985 370.509308,432.778290 367.498627,432.755035 
	C363.572144,432.724731 360.158630,431.022736 360.208344,425.363068 
	C366.296448,425.363068 372.097687,425.416687 377.897400,425.345367 
	C382.214844,425.292328 384.432648,422.805573 384.197937,418.676483 
	C384.032928,415.773102 383.586578,412.626007 382.279266,410.097900 
	C378.921875,403.605347 370.944611,400.563293 362.392914,401.906586 
	C355.107574,403.050995 348.443756,408.665985 347.220032,415.311737 
	C346.594849,418.707214 346.784332,422.277344 346.825745,425.765900 
	C346.912079,433.045258 350.578491,438.317047 357.157715,440.824127 
	C361.222076,442.372894 365.875397,442.376099 371.165009,443.033844 
M301.923950,426.038177 
	C302.388214,418.517395 301.885651,411.344299 295.364685,406.087097 
	C288.444580,400.508118 278.412689,400.045105 271.180817,405.075623 
	C263.939575,410.112762 260.995972,420.654144 264.143585,430.277313 
	C266.690948,438.065369 274.821869,443.437958 283.569489,443.113220 
	C292.574554,442.778870 299.380127,436.748627 301.923950,426.038177 
M231.998413,426.484070 
	C231.999527,429.982666 232.002625,433.481262 232.001221,436.979858 
	C231.999481,441.328339 235.018631,442.222504 238.400055,442.208801 
	C241.911957,442.194611 245.179718,441.481293 245.115829,436.778595 
	C245.063797,432.947784 244.987106,429.109039 245.164627,425.285126 
	C245.533432,417.340546 248.596985,414.027405 256.469574,412.975128 
	C260.263397,412.468048 261.564423,409.998352 261.372803,406.682220 
	C261.184906,403.429810 259.177795,400.944031 255.860352,401.707611 
	C251.897827,402.619720 248.184067,404.612549 244.414139,406.116669 
	C243.903107,402.484924 240.674896,401.605560 236.680573,402.150848 
	C232.682724,402.696594 231.801193,405.340332 231.943039,408.998749 
	C232.155869,414.488281 231.998413,419.992188 231.998413,426.484070 
z"/>
<path fill="#000000" opacity="1.000000" stroke="none" 
	d="
M513.,81.531342 
	C512.335144,81.380135 511.297119,80.877930 511.059204,80.123444 
	C501.955231,51.250011 483.660431,32.126518 453.325134,26.059464 
	C446.935425,24.781521 440.318359,24.131390 433.800446,24.090639 
	C404.319427,23.906317 374.836395,24.044447 344.669922,23.785641 
	C336.317902,20.985502 328.690613,18.333601 320.974304,15.972600 
	C300.755646,9.786224 279.949860,6.932286 258.909271,6.084674 
	C241.965225,5.402090 225.146317,7.147653 208.382248,9.886842 
	C190.897507,12.743782 174.071411,17.646931 157.280640,24.381767 
	C147.214706,29.279322 137.337067,33.601818 127.870850,38.689785 
	C110.027023,48.280628 93.826599,60.264263 79.258385,74.337845 
	C72.479179,80.886879 65.897034,87.697105 59.794678,94.872902 
	C54.095211,101.574951 49.148998,108.917572 43.563263,116.134689 
	C36.831165,127.888573 29.994690,139.279846 24.071215,151.127594 
	C12.732111,173.807312 6.089199,197.961731 2.917092,223.099533 
	C2.828390,223.802460 1.663215,224.369553 0.999998,225.000000 
	C1.000000,150.373306 1.000000,75.746613 1.000000,1.059961 
	C171.666656,1.059961 342.333344,1.059961 513.000000,1.059961 
	C513.000000,27.758028 513.000000,54.410355 513.000000,81.531342 
z"/>
<path fill="#000000" opacity="1.000000" stroke="none" 
	d="
M337.,492.835938 
	C371.262817,492.890961 404.746674,493.317047 438.217590,492.838623 
	C454.066437,492.612030 468.945587,488.076019 482.117798,478.525726 
	C496.714752,467.942444 506.136566,454.004364 511.034485,436.803925 
	C511.284363,435.926422 511.929077,435.161346 512.694946,434.671967 
	C513.000000,460.986023 513.000000,486.972046 513.000000,512.979004 
	C342.439117,512.979004 171.878204,512.979004 1.000000,512.979004 
	C1.000000,438.646088 1.000000,364.291687 1.333370,289.130676 
	C2.767330,293.324707 4.055099,298.292572 4.938334,303.331360 
	C10.972869,337.757996 24.199554,369.209961 44.019234,398.341095 
	C51.177395,407.679962 57.655827,417.181732 65.318703,425.606079 
	C77.335884,438.817352 90.681198,450.667664 105.285759,461.086243 
	C123.568367,474.128693 143.174301,484.586884 164.458618,492.674591 
	C170.635818,494.605225 176.543457,496.287140 182.399506,498.132812 
	C202.463791,504.456543 223.168472,506.898468 244.043015,507.883698 
	C252.263474,508.271698 260.596893,507.794983 268.789429,506.896301 
	C281.903656,505.457794 295.053314,503.894104 307.979187,501.330536 
	C318.078522,499.327515 327.860992,495.726715 337.784271,492.835938 
z"/>
<path fill="#FE646F" opacity="1.000000" stroke="none" 
	d="
M43.870567,398.020935 
	C24.199554,369.209961 10.972869,337.757996 4.938334,303.331360 
	C4.055099,298.292572 2.767330,293.324707 1.333370,288.661987 
	C1.000000,267.979095 1.000000,246.958206 0.999998,225.468658 
	C1.663215,224.369553 2.828390,223.802460 2.917092,223.099533 
	C6.089199,197.961731 12.732111,173.807312 24.071215,151.127594 
	C29.994690,139.279846 36.831165,127.888573 43.634731,116.599800 
	C44.021038,209.617630 44.028412,302.326782 44.027950,395.035950 
	C44.027946,396.030945 43.925297,397.025940 43.870567,398.020935 
z"/>
<path fill="#4F66D0" opacity="1.000000" stroke="none" 
	d="
M44.019234,398.341095 
	C43.925297,397.025940 44.027946,396.030945 44.027950,395.035950 
	C44.028412,302.326782 44.021038,209.617630 43.942711,116.443359 
	C49.148998,108.917572 54.095211,101.574951 59.794678,94.872902 
	C65.897034,87.697105 72.479179,80.886879 79.258385,74.337845 
	C93.826599,60.264263 110.027023,48.280628 127.870850,38.689785 
	C137.337067,33.601818 147.214706,29.279322 157.641388,24.553770 
	C159.865814,24.589830 161.355438,24.764393 162.845139,24.765060 
	C195.617447,24.779774 228.389740,24.770506 261.162048,24.788210 
	C262.805969,24.789097 264.449738,24.991650 266.093597,25.100304 
	C264.774261,25.918118 263.555420,27.053833 262.120880,27.507124 
	C228.642059,38.085972 208.010025,66.146606 208.005325,101.304802 
	C207.993103,192.692566 208.001663,284.080322 207.997482,375.468079 
	C207.997360,378.131012 207.947464,380.793976 207.520294,383.997437 
	C202.705368,384.813507 200.790085,386.861542 200.901154,391.569672 
	C201.175171,403.185760 200.966827,414.812714 200.999313,426.435150 
	C201.026855,436.287476 203.398697,439.425995 212.720779,442.148529 
	C220.001328,464.085907 235.076309,478.572510 256.163513,487.078217 
	C261.048615,489.048645 266.345123,489.998962 271.308289,491.729401 
	C237.807480,492.037628 204.450745,492.025848 171.094025,492.052826 
	C168.784363,492.054688 166.474945,492.344849 164.165405,492.500946 
	C143.174301,484.586884 123.568367,474.128693 105.285759,461.086243 
	C90.681198,450.667664 77.335884,438.817352 65.318703,425.606079 
	C57.655827,417.181732 51.177395,407.679962 44.019234,398.341095 
M172.029984,392.569458 
	C172.029709,390.903198 172.037903,389.236908 172.027634,387.570709 
	C171.994019,382.115173 170.485580,380.447693 165.547684,380.393402 
	C160.512314,380.338043 158.907272,381.985260 158.891022,387.344482 
	C158.867157,395.213409 158.884872,403.082520 158.884872,410.951538 
	C154.180298,404.284851 150.588684,397.398926 146.929443,390.549072 
	C145.598923,388.058472 144.337189,385.478363 142.636429,383.250244 
	C139.884491,379.645081 135.958099,380.054382 132.109314,380.945526 
	C128.268356,381.834900 128.792343,384.972534 128.791199,387.779572 
	C128.784637,403.775543 128.878021,419.772369 128.728302,435.766937 
	C128.689423,439.918640 130.175461,441.984619 134.376526,442.212677 
	C140.154205,442.526306 141.956207,440.834045 141.966934,434.701782 
	C141.980347,427.027649 141.970154,419.353485 141.970154,411.679321 
	C143.540482,412.618378 144.188629,413.573608 144.743637,414.580231 
	C149.083496,422.451172 153.451172,430.307373 157.715088,438.219421 
	C160.104294,442.652802 164.038773,442.627625 168.115326,441.947418 
	C172.478241,441.219421 172.046494,437.745911 172.040512,434.538361 
	C172.015030,420.875183 172.029877,407.211914 172.029984,392.569458 
M191.666916,441.038635 
	C192.348129,439.273224 193.579391,437.519836 193.618164,435.740448 
	C193.817429,426.595245 193.767532,417.442841 193.685928,408.294037 
	C193.645172,403.726288 191.496490,401.891541 186.714096,402.005096 
	C182.579239,402.103271 180.224335,403.791046 180.306931,408.368256 
	C180.459976,416.849609 180.339066,425.335693 180.350052,433.819824 
	C180.360291,441.739929 182.943329,443.576324 191.666916,441.038635 
M185.813614,382.139832 
	C182.481354,383.009216 179.436157,384.884735 180.313156,388.494843 
	C180.836594,390.649506 183.511154,393.018555 185.752899,393.848724 
	C189.247925,395.142944 193.083206,392.378387 193.744858,389.067474 
	C194.445618,385.560913 191.847931,383.016296 185.813614,382.139832 
z"/>
<path fill="#FCFDFF" opacity="1.000000" stroke="none" 
	d="
M345.629181,238.000214 
	C345.629059,266.163544 345.635712,293.826874 345.624817,321.490173 
	C345.621399,330.120819 342.699677,334.122009 334.234558,335.858765 
	C321.021851,338.569519 309.754333,336.385864 302.495331,322.237793 
	C289.738739,297.374664 275.770416,273.133087 262.298157,248.637512 
	C261.459534,247.112717 260.521881,245.642380 258.825897,242.797287 
	C258.675323,246.049149 258.527527,247.767853 258.526428,249.486664 
	C258.511078,273.483765 258.524139,297.480835 258.511078,321.477936 
	C258.506348,330.151001 255.571564,333.907715 247.175552,335.910522 
	C240.339432,337.541260 233.629074,337.229156 227.148758,334.287384 
	C222.427399,332.144104 220.105606,328.620575 220.112061,323.292053 
	C220.173370,272.631592 220.134766,221.971039 220.163040,171.310532 
	C220.167252,163.760223 224.197830,159.146790 233.019058,158.203690 
	C253.033295,156.063889 257.837280,158.803009 265.905090,173.788437 
	C278.681763,197.520187 291.041321,221.476501 303.581146,245.335815 
	C304.423798,246.939148 305.297974,248.525925 307.217987,250.114151 
	C307.217987,248.451706 307.218018,246.789261 307.218018,245.126816 
	C307.218048,221.129730 307.215363,197.132629 307.219391,173.135544 
	C307.220947,163.812744 310.067139,159.662048 319.173492,158.428986 
	C324.807098,157.666153 330.845093,158.043579 336.427155,159.215790 
	C343.320709,160.663406 345.603210,164.428329 345.614929,171.508789 
	C345.651367,193.505890 345.628845,215.503067 345.629181,238.000214 
z"/>
<path fill="#F96472" opacity="1.000000" stroke="none" 
	d="
M266.396667,25.028786 
	C264.449738,24.991650 262.805969,24.789097 261.162048,24.788210 
	C228.389740,24.770506 195.617447,24.779774 162.845139,24.765060 
	C161.355438,24.764393 159.865814,24.589830 158.015381,24.324261 
	C174.071411,17.646931 190.897507,12.743782 208.382248,9.886842 
	C225.146317,7.147653 241.965225,5.402090 258.909271,6.084674 
	C279.949860,6.932286 300.755646,9.786224 320.974304,15.972600 
	C328.690613,18.333601 336.317902,20.985502 344.233521,23.831718 
	C342.531158,24.359333 340.581299,24.731829 338.630920,24.734558 
	C316.060547,24.766130 293.490082,24.741779 270.115509,24.663383 
	C268.852783,24.752848 268.394196,24.911201 267.935608,25.069553 
	C267.523651,25.032125 267.111725,24.994699 266.396667,25.028786 
z"/>
<path fill="#FBFDFF" opacity="1.000000" stroke="none" 
	d="
M425.501251,105.568024 
	C419.853363,116.354034 414.422577,126.835060 408.944611,137.291382 
	C406.339539,142.263962 403.003021,143.201538 397.840790,140.528870 
	C393.126678,138.088211 392.021362,134.249100 394.806000,129.385681 
	C402.160614,116.540703 409.707825,103.803474 416.869019,90.852287 
	C418.423279,88.041389 418.683014,84.514687 419.691132,80.749512 
	C412.820709,80.749512 407.219421,80.749512 401.253387,80.749512 
	C401.074951,81.730484 400.752533,82.807350 400.701447,83.896942 
	C400.375397,90.849182 394.662842,94.433510 388.334167,91.199867 
	C386.675201,90.352226 385.126587,87.845001 384.897858,85.935715 
	C384.386444,81.667450 384.817596,77.293907 384.714691,72.966820 
	C384.619141,68.949417 386.974579,66.882576 390.458984,66.823532 
	C403.270569,66.606438 416.091888,66.572044 428.901245,66.850723 
	C432.838318,66.936371 434.502533,69.577660 435.059814,73.838242 
	C436.630524,85.847176 430.960815,95.430878 425.501251,105.568024 
z"/>
<path fill="#FD6470" opacity="1.000000" stroke="none" 
	d="
M164.458618,492.674591 
	C166.474945,492.344849 168.784363,492.054688 171.094025,492.052826 
	C204.450745,492.025848 237.807480,492.037628 271.629211,491.931213 
	C291.648865,491.892975 311.203552,491.957062 330.758179,492.043701 
	C332.906067,492.053223 335.053375,492.192322 337.492615,492.553619 
	C327.860992,495.726715 318.078522,499.327515 307.979187,501.330536 
	C295.053314,503.894104 281.903656,505.457794 268.789429,506.896301 
	C260.596893,507.794983 252.263474,508.271698 244.043015,507.883698 
	C223.168472,506.898468 202.463791,504.456543 182.399506,498.132812 
	C176.543457,496.287140 170.635818,494.605225 164.458618,492.674591 
z"/>
<path fill="#F9FCFF" opacity="1.000000" stroke="none" 
	d="
M342.221802,403.846649 
	C340.976410,405.013031 340.002655,405.902008 339.069458,406.753906 
	C345.613831,422.663330 339.895081,429.670380 318.951111,432.077850 
	C320.717621,432.692810 322.446899,433.467194 324.258240,433.889832 
	C328.138306,434.795135 332.158600,435.207794 335.940430,436.397552 
	C340.392395,437.798126 343.304321,441.005432 343.692566,445.847595 
	C344.082550,450.711578 342.168274,454.622406 338.049713,457.349335 
	C330.814026,462.140045 317.091156,461.881561 309.946564,456.837708 
	C303.678741,452.412781 303.663605,446.077728 310.195709,439.803375 
	C306.454529,435.323151 307.398926,431.167480 311.764557,427.615051 
	C306.287994,421.163666 305.159119,414.315247 308.550079,408.746063 
	C312.578705,402.129608 321.644196,400.006409 333.284271,403.093292 
	C335.492676,401.165009 336.190216,395.896332 340.832977,398.382812 
	C341.982605,398.998505 341.971161,401.782135 342.221802,403.846649 
M321.555878,410.074738 
	C321.020599,413.340179 319.816010,416.673859 320.140167,419.851654 
	C320.458038,422.968079 324.142975,424.623199 326.044739,422.452362 
	C327.968506,420.256287 328.643921,416.249542 328.451416,413.123047 
	C328.267639,410.138611 325.769806,408.193665 321.555878,410.074738 
M329.248718,444.169739 
	C327.223206,443.536743 325.237305,442.649414 323.163513,442.326721 
	C319.493164,441.755493 316.928925,444.946259 317.946228,448.535431 
	C318.835205,451.671814 323.279236,453.456421 327.091827,451.907654 
	C330.393707,450.566345 332.389832,448.404144 329.248718,444.169739 
z"/>
<path fill="#F9FCFF" opacity="1.000000" stroke="none" 
	d="
M415.131744,420.424377 
	C415.024994,415.891785 413.168091,412.983063 408.907623,413.139404 
	C404.401337,413.304779 403.484833,416.896942 403.443054,420.672974 
	C403.385895,425.838135 403.303284,431.007782 403.452850,436.169067 
	C403.591461,440.952148 400.700897,442.221466 396.767853,442.240112 
	C392.744629,442.259186 390.090210,440.760651 390.161652,436.070251 
	C390.293518,427.407104 390.214508,418.740479 390.189178,410.075409 
	C390.179840,406.882477 389.749115,403.492798 393.915436,402.392426 
	C397.866119,401.349030 401.173645,402.147339 403.202179,406.307892 
	C407.814911,401.978577 412.985291,400.005920 418.783844,402.710541 
	C425.143463,405.676880 427.885559,411.335052 428.189819,418.071625 
	C428.475189,424.391418 428.265717,430.732605 428.325043,437.063904 
	C428.366760,441.511841 425.341461,442.192993 421.945312,442.214783 
	C418.353180,442.237823 415.152924,441.515045 415.144897,436.872650 
	C415.135681,431.540253 415.137726,426.207825 415.131744,420.424377 
z"/>
<path fill="#F9FCFF" opacity="1.000000" stroke="none" 
	d="
M370.714661,443.053528 
	C365.875397,442.376099 361.222076,442.372894 357.157715,440.824127 
	C350.578491,438.317047 346.912079,433.045258 346.825745,425.765900 
	C346.784332,422.277344 346.594849,418.707214 347.220032,415.311737 
	C348.443756,408.665985 355.107574,403.050995 362.392914,401.906586 
	C370.944611,400.563293 378.921875,403.605347 382.279266,410.097900 
	C383.586578,412.626007 384.032928,415.773102 384.197937,418.676483 
	C384.432648,422.805573 382.214844,425.292328 377.897400,425.345367 
	C372.097687,425.416687 366.296448,425.363068 360.208344,425.363068 
	C360.158630,431.022736 363.572144,432.724731 367.498627,432.755035 
	C370.509308,432.778290 373.502045,430.902985 376.558441,430.696777 
	C378.639893,430.556274 381.824188,431.236755 382.671997,432.653351 
	C383.538788,434.101654 382.899323,438.029755 381.609863,438.875122 
	C378.539215,440.888245 374.696075,441.723053 370.714661,443.053528 
M372.016815,415.842926 
	C371.253296,411.556732 368.203339,410.586365 364.582886,411.200714 
	C361.174377,411.779053 359.338806,413.912079 360.391693,418.618652 
	C364.208313,417.981934 368.081848,417.335754 372.016815,415.842926 
z"/>
<path fill="#FAFDFF" opacity="1.000000" stroke="none" 
	d="
M301.890686,426.473450 
	C299.380127,436.748627 292.574554,442.778870 283.569489,443.113220 
	C274.821869,443.437958 266.690948,438.065369 264.143585,430.277313 
	C260.995972,420.654144 263.939575,410.112762 271.180817,405.075623 
	C278.412689,400.045105 288.444580,400.508118 295.364685,406.087097 
	C301.885651,411.344299 302.388214,418.517395 301.890686,426.473450 
M286.028839,430.531586 
	C290.209625,426.610321 289.533142,421.646423 287.988037,417.160278 
	C287.353302,415.317291 283.972656,413.181610 282.052582,413.367188 
	C280.124084,413.553528 277.782928,416.167450 276.867828,418.261627 
	C275.949554,420.363068 276.298157,423.165985 276.569519,425.608368 
	C277.123566,430.594788 280.248627,432.380463 286.028839,430.531586 
z"/>
<path fill="#FDFEFF" opacity="1.000000" stroke="none" 
	d="
M213.207581,442.129913 
	C203.398697,439.425995 201.026855,436.287476 200.999313,426.435150 
	C200.966827,414.812714 201.175171,403.185760 200.901154,391.569672 
	C200.790085,386.861542 202.705368,384.813507 207.472351,384.492004 
	C212.729156,384.815094 214.798401,387.273438 214.142929,392.302185 
	C213.761566,395.227966 214.073547,398.244141 214.073547,401.996002 
	C216.018051,401.996002 217.756165,402.036469 219.491760,401.987549 
	C223.069611,401.886688 226.902145,401.502563 226.878479,406.764374 
	C226.855911,411.783173 223.141983,411.321411 219.772583,411.262451 
	C218.135132,411.233795 216.496765,411.257507 214.132996,411.257507 
	C214.132996,417.137726 213.968399,422.709717 214.279602,428.254974 
	C214.337936,429.294373 216.148346,430.656158 217.419388,431.102325 
	C219.078873,431.684784 221.447250,430.889740 222.712372,431.798553 
	C224.477264,433.066437 226.631317,435.428406 226.527023,437.199005 
	C226.424210,438.944305 223.983719,441.382996 222.082504,441.987335 
	C219.531128,442.798340 216.512436,442.139282 213.207581,442.129913 
z"/>
<path fill="#FCFEFF" opacity="1.000000" stroke="none" 
	d="
M231.998413,425.987000 
	C231.998413,419.992188 232.155869,414.488281 231.943039,408.998749 
	C231.801193,405.340332 232.682724,402.696594 236.680573,402.150848 
	C240.674896,401.605560 243.903107,402.484924 244.414139,406.116669 
	C248.184067,404.612549 251.897827,402.619720 255.860352,401.707611 
	C259.177795,400.944031 261.184906,403.429810 261.372803,406.682220 
	C261.564423,409.998352 260.263397,412.468048 256.469574,412.975128 
	C248.596985,414.027405 245.533432,417.340546 245.164627,425.285126 
	C244.987106,429.109039 245.063797,432.947784 245.115829,436.778595 
	C245.179718,441.481293 241.911957,442.194611 238.400055,442.208801 
	C235.018631,442.222504 231.999481,441.328339 232.001221,436.979858 
	C232.002625,433.481262 231.999527,429.982666 231.998413,425.987000 
z"/>
<path fill="#4F66D0" opacity="1.000000" stroke="none" 
	d="
M268.096008,25.282379 
	C268.394196,24.911201 268.852783,24.752848 269.652771,24.748077 
	C269.414917,25.099508 268.835693,25.297354 268.096008,25.282379 
z"/>
<path fill="#FDFEFF" opacity="1.000000" stroke="none" 
	d="
M172.029984,393.059082 
	C172.029877,407.211914 172.015030,420.875183 172.040512,434.538361 
	C172.046494,437.745911 172.478241,441.219421 168.115326,441.947418 
	C164.038773,442.627625 160.104294,442.652802 157.715088,438.219421 
	C153.451172,430.307373 149.083496,422.451172 144.743637,414.580231 
	C144.188629,413.573608 143.540482,412.618378 141.970154,411.679321 
	C141.970154,419.353485 141.980347,427.027649 141.966934,434.701782 
	C141.956207,440.834045 140.154205,442.526306 134.376526,442.212677 
	C130.175461,441.984619 128.689423,439.918640 128.728302,435.766937 
	C128.878021,419.772369 128.784637,403.775543 128.791199,387.779572 
	C128.792343,384.972534 128.268356,381.834900 132.109314,380.945526 
	C135.958099,380.054382 139.884491,379.645081 142.636429,383.250244 
	C144.337189,385.478363 145.598923,388.058472 146.929443,390.549072 
	C150.588684,397.398926 154.180298,404.284851 158.884872,410.951538 
	C158.884872,403.082520 158.867157,395.213409 158.891022,387.344482 
	C158.907272,381.985260 160.512314,380.338043 165.547684,380.393402 
	C170.485580,380.447693 171.994019,382.115173 172.027634,387.570709 
	C172.037903,389.236908 172.029709,390.903198 172.029984,393.059082 
z"/>
<path fill="#F5F6FC" opacity="1.000000" stroke="none" 
	d="
M191.334946,441.231995 
	C182.943329,443.576324 180.360291,441.739929 180.350052,433.819824 
	C180.339066,425.335693 180.459976,416.849609 180.306931,408.368256 
	C180.224335,403.791046 182.579239,402.103271 186.714096,402.005096 
	C191.496490,401.891541 193.645172,403.726288 193.685928,408.294037 
	C193.767532,417.442841 193.817429,426.595245 193.618164,435.740448 
	C193.579391,437.519836 192.348129,439.273224 191.334946,441.231995 
z"/>
<path fill="#F8F9FD" opacity="1.000000" stroke="none" 
	d="
M186.207367,382.104736 
	C191.847931,383.016296 194.445618,385.560913 193.744858,389.067474 
	C193.083206,392.378387 189.247925,395.142944 185.752899,393.848724 
	C183.511154,393.018555 180.836594,390.649506 180.313156,388.494843 
	C179.436157,384.884735 182.481354,383.009216 186.207367,382.104736 
z"/>
<path fill="#0E88FC" opacity="1.000000" stroke="none" 
	d="
M321.889130,409.882935 
	C325.769806,408.193665 328.267639,410.138611 328.451416,413.123047 
	C328.643921,416.249542 327.968506,420.256287 326.044739,422.452362 
	C324.142975,424.623199 320.458038,422.968079 320.140167,419.851654 
	C319.816010,416.673859 321.020599,413.340179 321.889130,409.882935 
z"/>
<path fill="#0C87FC" opacity="1.000000" stroke="none" 
	d="
M329.539673,444.426880 
	C332.389832,448.404144 330.393707,450.566345 327.091827,451.907654 
	C323.279236,453.456421 318.835205,451.671814 317.946228,448.535431 
	C316.928925,444.946259 319.493164,441.755493 323.163513,442.326721 
	C325.237305,442.649414 327.223206,443.536743 329.539673,444.426880 
z"/>
<path fill="#0785FC" opacity="1.000000" stroke="none" 
	d="
M371.986115,416.266235 
	C368.081848,417.335754 364.208313,417.981934 360.391693,418.618652 
	C359.338806,413.912079 361.174377,411.779053 364.582886,411.200714 
	C368.203339,410.586365 371.253296,411.556732 371.986115,416.266235 
z"/>
<path fill="#0C87FC" opacity="1.000000" stroke="none" 
	d="
M285.709473,430.743103 
	C280.248627,432.380463 277.123566,430.594788 276.569519,425.608368 
	C276.298157,423.165985 275.949554,420.363068 276.867828,418.261627 
	C277.782928,416.167450 280.124084,413.553528 282.052582,413.367188 
	C283.972656,413.181610 287.353302,415.317291 287.988037,417.160278 
	C289.533142,421.646423 290.209625,426.610321 285.709473,430.743103 
z"/>
</svg>