<svg version="1.1" id="Layer_1" xmlns="http://www.w3.org/2000/svg" xmlns:xlink="http://www.w3.org/1999/xlink" x="0px" y="0px"
	 width="100%" viewBox="0 0 512 512" enable-background="new 0 0 512 512" xml:space="preserve">
<path fill="#0282FC" opacity="1.000000" stroke="none" 
	d="
M513.000000,82.000000 
	C513.000000,199.355347 513.000000,316.710693 512.695007,434.204926 
	C511.929077,435.161194 511.284271,435.926239 511.034393,436.803741 
	C506.136536,454.004272 496.714783,467.942352 482.117798,478.525665 
	C468.945557,488.075928 454.066376,492.611969 438.217529,492.838531 
	C404.746490,493.316956 371.262512,492.890839 337.492065,492.553680 
	C335.052734,492.192596 332.905426,492.053528 330.757568,492.044006 
	C311.203217,491.957336 291.648804,491.893280 271.773407,491.620911 
	C263.028564,488.442566 253.964600,486.599548 246.302673,482.273468 
	C224.581589,470.009247 211.708099,451.257538 209.262604,426.181671 
	C216.603119,429.471741 223.709534,430.073761 230.870743,427.045837 
	C235.674637,425.014648 237.838501,421.071747 237.935440,415.984192 
	C238.030670,410.986847 235.701736,407.288757 231.201172,405.271484 
	C228.344894,403.991241 225.195419,403.380920 222.236557,402.307251 
	C220.686234,401.744690 219.263351,400.830994 217.384979,399.872864 
	C221.647766,395.340332 225.545685,397.203552 229.363922,398.709259 
	C232.859756,400.087860 235.045395,398.982544 236.459839,395.565369 
	C237.869034,392.160980 235.874542,390.591492 233.362030,389.295380 
	C225.081940,385.023926 214.597549,386.768616 208.125671,392.932007 
	C208.055008,390.441223 208.004105,388.444092 208.004013,386.446991 
	C208.000198,291.396423 207.992889,196.345856 208.004913,101.295296 
	C208.009354,66.142593 228.641296,38.086201 262.120728,27.506510 
	C263.555359,27.053160 264.774384,25.917469 266.396820,25.028042 
	C267.111633,24.993919 267.523499,25.031393 268.095856,25.281599 
	C268.835724,25.296558 269.415070,25.098785 270.457123,24.816280 
	C293.489960,24.741150 316.060150,24.765585 338.630219,24.734127 
	C340.580627,24.731409 342.530548,24.359175 344.917145,24.112545 
	C374.836029,24.044512 404.319214,23.906399 433.800354,24.090731 
	C440.318298,24.131485 446.935333,24.781597 453.325073,26.059546 
	C483.660431,32.126625 501.955322,51.250088 511.059113,80.123703 
	C511.296997,80.878120 512.335083,81.380226 513.000000,82.000000 
M221.065262,224.499985 
	C221.065277,255.151382 221.064301,285.802765 221.065948,316.454163 
	C221.066452,325.839539 223.654999,329.919342 232.864578,331.306488 
	C238.745148,332.192200 245.151794,331.641266 250.978973,330.272064 
	C257.360443,328.772614 259.286835,325.052246 259.302612,318.388794 
	C259.338104,303.396362 259.314972,288.403778 259.315643,273.411255 
	C259.315735,271.649750 259.315674,269.888275 259.315674,268.057465 
	C261.027618,267.915924 262.010010,267.803101 262.995483,267.758057 
	C275.618042,267.181305 288.392792,267.642365 300.828918,265.807220 
	C320.160980,262.954529 334.897644,252.589706 340.452209,233.163223 
	C343.185303,223.604370 344.092102,213.093918 343.601044,203.123642 
	C342.166016,173.987152 325.554077,156.285858 296.510712,154.044464 
	C275.807617,152.446732 254.910553,153.109451 234.103027,153.239304 
	C225.423325,153.293472 221.079285,158.630142 221.071091,167.527878 
	C221.053909,186.185226 221.065491,204.842606 221.065262,224.499985 
M432.860809,122.984009 
	C430.116577,127.094254 426.090027,127.441673 421.783905,126.585762 
	C417.820221,125.797920 416.399506,123.190956 415.711273,119.197739 
	C414.824310,114.051697 410.148956,114.900322 406.389801,114.956306 
	C402.402283,115.015678 400.180634,117.201920 400.081543,121.174759 
	C399.906738,128.179810 403.321136,133.322968 409.149658,136.754471 
	C416.345032,140.990723 424.181244,141.727234 432.313232,140.136795 
	C442.116791,138.219406 447.992706,132.379486 449.730682,122.711388 
	C453.047394,104.260986 443.974762,93.288422 425.218353,93.075432 
	C423.105988,93.051445 420.993073,93.072189 418.657135,93.072189 
	C418.832367,89.301826 419.089172,86.160652 419.091064,83.019325 
	C419.092682,80.260971 420.212036,79.218758 423.007385,79.297035 
	C428.663635,79.455429 434.328430,79.403008 439.988007,79.320839 
	C444.564606,79.254395 446.359344,77.217270 446.336609,72.407104 
	C446.313965,67.621803 444.516266,65.608963 439.882782,65.571556 
	C430.726288,65.497620 421.562714,65.743530 412.414459,65.458183 
	C408.356934,65.331619 406.639160,66.873947 406.268921,70.702240 
	C405.388000,79.811188 404.305328,88.901543 403.506561,98.017143 
	C403.038940,103.353333 404.857483,105.166718 410.407776,105.307426 
	C414.733948,105.417099 419.065521,105.294289 423.393433,105.359322 
	C431.325867,105.478508 434.151794,108.358017 434.049683,116.372322 
	C434.024780,118.326401 433.482758,120.273895 432.860809,122.984009 
M266.774750,387.194489 
	C263.337830,388.624939 259.900879,390.055359 256.409576,391.508453 
	C255.337021,387.584808 251.774750,387.453400 248.022934,388.030792 
	C244.062866,388.640289 243.941772,391.601746 243.958237,394.816254 
	C244.035706,409.943787 244.105743,425.073212 243.927643,440.199066 
	C243.871033,445.006256 246.544571,446.380219 250.447220,446.342438 
	C254.219864,446.305969 257.317535,445.228088 257.124359,440.322510 
	C256.911163,434.908112 257.075684,429.478821 257.075684,423.771057 
	C268.502808,431.666229 278.237579,429.432556 281.453613,417.561249 
	C283.070312,411.593536 282.818695,404.643372 281.581604,398.506439 
	C280.212341,391.713715 275.023071,387.526184 266.774750,387.194489 
M302.262421,418.375854 
	C302.266296,414.214966 302.174561,410.051117 302.302063,405.894012 
	C302.419678,402.060699 303.644653,398.698334 308.247375,398.906128 
	C312.572601,399.101440 314.070770,402.149231 314.063507,406.142426 
	C314.053833,411.468384 314.154083,416.796356 314.038788,422.119812 
	C313.933655,426.973663 317.005890,428.003113 320.871399,427.981812 
	C324.574005,427.961426 327.374023,426.866913 327.236328,422.259430 
	C327.067322,416.605560 327.223297,410.942688 327.180511,405.284149 
	C327.128143,398.358673 324.755707,392.532776 318.618073,388.844940 
	C312.726440,385.304901 307.588593,387.629425 302.262207,392.368195 
	C302.262207,384.468384 302.121429,377.541077 302.309601,370.622711 
	C302.444397,365.667175 299.415222,364.794739 295.552124,364.783112 
	C291.810669,364.771851 289.064453,365.841736 289.084259,370.419586 
	C289.158386,387.562317 289.168793,404.705811 289.072388,421.848328 
	C289.047852,426.208984 291.422455,427.780548 295.226959,427.999451 
	C300.554749,428.306000 302.232300,426.185944 302.262421,418.375854 
M393.500488,86.504036 
	C393.498810,81.837677 393.564545,77.170082 393.478394,72.505280 
	C393.371307,66.708092 388.779510,63.533783 383.669830,66.111137 
	C378.782623,68.576241 374.103149,71.532471 369.607025,74.666840 
	C366.381165,76.915680 366.222778,80.288086 368.239594,83.542961 
	C370.173676,86.664307 372.797089,86.326035 375.571594,84.608597 
	C376.027252,84.326553 376.698395,84.392548 377.592712,84.244118 
	C377.592712,100.611145 377.568665,116.596375 377.605499,132.581467 
	C377.618652,138.295486 379.629608,140.132080 385.566467,140.116364 
	C391.493469,140.100677 393.470795,138.265900 393.485809,132.499573 
	C393.524811,117.500702 393.499847,102.501656 393.500488,86.504036 
M364.795044,391.635376 
	C360.068268,388.085968 354.829529,386.376221 348.917664,387.489563 
	C337.757294,389.591278 332.616394,397.114410 332.976654,410.660034 
	C333.279877,422.060120 344.515411,430.996033 355.669952,428.590363 
	C363.014893,427.006256 368.799866,422.889801 370.660370,415.552307 
	C372.792969,407.141876 372.740692,398.633820 364.795044,391.635376 
M436.029633,410.948730 
	C435.640045,415.040802 433.564972,417.647156 429.290497,417.175629 
	C424.995422,416.701904 423.808350,413.505646 423.866974,409.571259 
	C423.943756,404.417206 423.771027,399.257904 423.916077,394.106812 
	C424.046906,389.461060 421.390594,387.905670 417.374878,387.862549 
	C413.437653,387.820282 410.558075,389.039795 410.686371,393.836609 
	C410.841919,399.652985 410.581085,405.481628 410.778687,411.295502 
	C411.115906,421.216888 419.687866,428.973083 430.034882,428.946167 
	C440.387329,428.919220 448.872803,421.093292 449.133301,411.153351 
	C449.285736,405.336823 449.030914,399.508911 449.216309,393.694275 
	C449.360504,389.171326 446.789276,387.855042 442.984894,387.855835 
	C439.182526,387.856628 435.961517,388.680115 436.032806,393.578705 
	C436.112640,399.065338 436.047821,404.554047 436.029633,410.948730 
M455.850952,402.112610 
	C456.427185,407.147064 459.927704,409.477722 464.203613,410.988464 
	C467.172394,412.037384 470.281738,412.722351 473.171295,413.941925 
	C474.076843,414.324097 474.905762,415.903870 474.936737,416.959869 
	C474.955261,417.590942 473.280304,418.909576 472.498993,418.815796 
	C469.114563,418.409698 465.639587,417.977417 462.468506,416.815247 
	C459.812195,415.841736 457.536255,414.401459 455.610901,417.601654 
	C453.616760,420.916168 454.253693,424.075439 457.681610,425.569092 
	C461.408478,427.192963 465.508453,428.524628 469.527435,428.802795 
	C479.464447,429.490540 485.797791,425.076874 486.821472,417.583923 
	C487.825165,410.237579 483.735260,405.763611 473.679413,403.004425 
	C471.299500,402.351440 469.019104,401.335663 466.127441,400.280334 
	C470.291962,395.397095 474.164368,397.004425 477.784454,398.478516 
	C481.396851,399.949463 483.814850,399.416351 485.362579,395.627594 
	C487.013336,391.586517 484.382141,389.695618 481.439606,389.072662 
	C476.812592,388.093109 471.904083,387.210999 467.277832,387.732910 
	C459.208282,388.643280 456.032806,392.960327 455.850952,402.112610 
M400.576477,387.127869 
	C397.024017,388.827972 393.471527,390.528076 390.115906,392.133972 
	C389.823853,388.174164 386.528717,387.636993 382.704071,387.882874 
	C378.580841,388.147980 377.615417,390.642548 377.676788,394.359009 
	C377.828003,403.515228 377.849182,412.677917 377.676422,421.833374 
	C377.587189,426.560242 380.189148,428.045258 384.208344,427.977844 
	C388.108276,427.912415 391.027771,426.572510 390.912689,421.849030 
	C390.811371,417.689880 390.750763,413.511414 391.029297,409.365509 
	C391.467926,402.835419 394.820831,399.401886 401.252106,398.790100 
	C404.802917,398.452332 406.901520,396.796112 407.024933,393.226166 
	C407.154724,389.471832 405.298798,387.272400 400.576477,387.127869 
z"/>
<path fill="#000000" opacity="1.000000" stroke="none" 
	d="
M513.,81.531342 
	C512.335083,81.380226 511.296997,80.878120 511.059113,80.123703 
	C501.955322,51.250088 483.660431,32.126625 453.325073,26.059546 
	C446.935333,24.781597 440.318298,24.131485 433.800354,24.090731 
	C404.319214,23.906399 374.836029,24.044512 344.669617,23.785528 
	C336.317688,20.985306 328.690338,18.333591 320.974030,15.972542 
	C300.755463,9.786028 279.949646,6.932307 258.909119,6.084676 
	C241.965088,5.402075 225.146225,7.147679 208.382172,9.886847 
	C190.897461,12.743767 174.071411,17.646936 157.280670,24.381765 
	C147.214737,29.279325 137.337097,33.601837 127.870872,38.689804 
	C110.027039,48.280632 93.826630,60.264286 79.258400,74.337860 
	C72.479195,80.886879 65.897049,87.697113 59.794685,94.872917 
	C54.095219,101.574959 49.149006,108.917572 43.563271,116.134689 
	C36.831169,127.888573 29.994690,139.279846 24.071215,151.127594 
	C12.732111,173.807312 6.089199,197.961731 2.917092,223.099533 
	C2.828390,223.802460 1.663215,224.369553 0.999998,225.000000 
	C1.000000,150.373306 1.000000,75.746613 1.000000,1.059961 
	C171.666656,1.059961 342.333344,1.059961 513.000000,1.059961 
	C513.000000,27.758028 513.000000,54.410355 513.000000,81.531342 
z"/>
<path fill="#" opacity="1.000000" stroke="none" 
	d="
M337.,492.835785 
	C371.262512,492.890839 404.746490,493.316956 438.217529,492.838531 
	C454.066376,492.611969 468.945557,488.075928 482.117798,478.525665 
	C496.714783,467.942352 506.136536,454.004272 511.034393,436.803741 
	C511.284271,435.926239 511.929077,435.161194 512.695007,434.671906 
	C513.000000,460.986023 513.000000,486.972046 513.000000,512.979004 
	C342.439117,512.979004 171.878204,512.979004 1.000000,512.979004 
	C1.000000,438.646088 1.000000,364.291687 1.333370,289.130676 
	C2.767330,293.324707 4.055095,298.292572 4.938334,303.331360 
	C10.972865,337.757996 24.199551,369.209961 44.019253,398.341095 
	C51.177418,407.679932 57.655819,417.181732 65.318687,425.606079 
	C77.335838,438.817383 90.681206,450.667664 105.285759,461.086243 
	C123.568359,474.128693 143.174316,484.586884 164.458633,492.674622 
	C170.635818,494.605225 176.543457,496.287170 182.399460,498.132843 
	C202.463699,504.456543 223.168350,506.898468 244.042847,507.883698 
	C252.263290,508.271698 260.596741,507.795013 268.789215,506.896362 
	C281.903442,505.457947 295.053070,503.894287 307.978943,501.330719 
	C318.078247,499.327698 327.860657,495.726746 337.783844,492.835785 
z"/>
<path fill="#FE646F" opacity="1.000000" stroke="none" 
	d="
M43.870575,398.020935 
	C24.199551,369.209961 10.972865,337.757996 4.938334,303.331360 
	C4.055095,298.292572 2.767330,293.324707 1.333370,288.661987 
	C1.000000,267.979095 1.000000,246.958206 0.999998,225.468658 
	C1.663215,224.369553 2.828390,223.802460 2.917092,223.099533 
	C6.089199,197.961731 12.732111,173.807312 24.071215,151.127594 
	C29.994690,139.279846 36.831169,127.888573 43.634735,116.599808 
	C44.021038,209.617630 44.028412,302.326782 44.027950,395.035950 
	C44.027946,396.030945 43.925301,397.025940 43.870575,398.020935 
z"/>
<path fill="#4F66D0" opacity="1.000000" stroke="none" 
	d="
M44.019253,398.341095 
	C43.925301,397.025940 44.027946,396.030945 44.027950,395.035950 
	C44.028412,302.326782 44.021038,209.617630 43.942719,116.443359 
	C49.149006,108.917572 54.095219,101.574959 59.794685,94.872917 
	C65.897049,87.697113 72.479195,80.886879 79.258400,74.337860 
	C93.826630,60.264286 110.027039,48.280632 127.870872,38.689804 
	C137.337097,33.601837 147.214737,29.279325 157.641418,24.553768 
	C159.865829,24.589830 161.355453,24.764393 162.845154,24.765060 
	C195.617477,24.779774 228.389786,24.770517 261.162109,24.788185 
	C262.806091,24.789070 264.449921,24.991213 266.093842,25.099644 
	C264.774384,25.917469 263.555359,27.053160 262.120728,27.506510 
	C228.641296,38.086201 208.009354,66.142593 208.004913,101.295296 
	C207.992889,196.345856 208.000198,291.396423 208.004013,386.446991 
	C208.004105,388.444092 208.055008,390.441223 208.058441,393.317627 
	C208.054916,398.273376 208.075150,402.349792 208.074219,406.840881 
	C208.072311,410.083527 208.091553,412.911591 207.880432,416.004608 
	C204.421875,420.008148 205.185242,423.242462 208.892487,426.104889 
	C211.708099,451.257538 224.581589,470.009247 246.302673,482.273468 
	C253.964600,486.599548 263.028564,488.442566 271.308350,491.729706 
	C237.807526,492.037659 204.450775,492.025879 171.094040,492.052826 
	C168.784378,492.054688 166.474960,492.344849 164.165421,492.500946 
	C143.174316,484.586884 123.568359,474.128693 105.285759,461.086243 
	C90.681206,450.667664 77.335838,438.817383 65.318687,425.606079 
	C57.655819,417.181732 51.177418,407.679932 44.019253,398.341095 
M99.364479,405.056915 
	C110.422684,402.020111 115.254829,394.473969 113.848732,382.437561 
	C112.650291,372.178680 106.306572,366.515228 95.234596,366.109589 
	C89.417091,365.896484 83.584618,366.124756 77.762596,365.991852 
	C73.026123,365.883698 71.302811,368.149963 71.336342,372.728821 
	C71.454552,388.871277 71.356155,405.015198 71.396744,421.158417 
	C71.409851,426.371735 73.200989,428.080444 78.241646,428.009796 
	C83.070129,427.942139 84.729393,426.298126 84.785965,421.325165 
	C84.843811,416.241028 84.798775,411.155701 84.798775,406.157227 
	C89.931572,405.789581 94.230385,405.481659 99.364479,405.056915 
M143.990662,418.358337 
	C143.990891,419.357910 143.977676,420.357727 143.993637,421.357056 
	C144.072464,426.292816 145.732513,427.988678 150.498840,428.016113 
	C155.297256,428.043732 157.031494,426.355469 157.063843,421.465179 
	C157.101318,415.801178 157.638199,410.056488 156.866409,404.498444 
	C156.274597,400.236664 154.712967,395.711243 152.290024,392.193390 
	C148.447876,386.614990 141.587479,385.705872 136.330978,389.062012 
	C135.009567,389.905701 133.814133,390.946655 132.117935,392.232758 
	C132.117935,384.596191 131.977097,377.607391 132.165543,370.627472 
	C132.299850,365.652191 129.238297,364.812408 125.387131,364.798431 
	C121.631889,364.784790 118.949539,365.878021 118.975677,370.474457 
	C119.073265,387.633423 119.067055,404.793549 118.977982,421.952606 
	C118.953209,426.725159 121.803741,428.025970 125.716637,427.968201 
	C129.688889,427.909485 132.365051,426.361755 132.166138,421.648834 
	C131.948578,416.493591 132.070877,411.321259 132.139740,406.157623 
	C132.190857,402.325378 133.281143,399.094696 137.858658,398.870605 
	C141.546814,398.690033 143.863266,401.602814 143.971558,406.405975 
	C144.054138,410.069275 143.989700,413.735901 143.990662,418.358337 
M201.013535,401.696991 
	C196.203934,386.836334 178.654343,382.291382 167.930649,393.041382 
	C163.088531,397.895386 162.658661,403.841064 162.845261,410.149292 
	C163.129425,419.756378 169.948074,427.442352 179.659332,428.811981 
	C188.341125,430.036407 198.138458,424.320343 200.384018,415.860748 
	C201.503693,411.642639 200.923172,406.973267 201.013535,401.696991 
z"/>
<path fill="#FDFEFF" opacity="1.000000" stroke="none" 
	d="
M221.065262,223.999969 
	C221.065491,204.842606 221.053909,186.185226 221.071091,167.527878 
	C221.079285,158.630142 225.423325,153.293472 234.103027,153.239304 
	C254.910553,153.109451 275.807617,152.446732 296.510712,154.044464 
	C325.554077,156.285858 342.166016,173.987152 343.601044,203.123642 
	C344.092102,213.093918 343.185303,223.604370 340.452209,233.163223 
	C334.897644,252.589706 320.160980,262.954529 300.828918,265.807220 
	C288.392792,267.642365 275.618042,267.181305 262.995483,267.758057 
	C262.010010,267.803101 261.027618,267.915924 259.315674,268.057465 
	C259.315674,269.888275 259.315735,271.649750 259.315643,273.411255 
	C259.314972,288.403778 259.338104,303.396362 259.302612,318.388794 
	C259.286835,325.052246 257.360443,328.772614 250.978973,330.272064 
	C245.151794,331.641266 238.745148,332.192200 232.864578,331.306488 
	C223.654999,329.919342 221.066452,325.839539 221.065948,316.454163 
	C221.064301,285.802765 221.065277,255.151382 221.065262,223.999969 
M259.303040,228.441284 
	C259.303040,231.550735 259.303040,234.660187 259.303040,237.954468 
	C269.263489,237.954468 278.597900,238.441299 287.855743,237.808212 
	C296.006561,237.250839 301.744965,232.541855 304.138672,224.481262 
	C306.566376,216.306259 306.535889,208.054550 304.061768,199.890808 
	C302.072205,193.325943 297.674622,188.165039 290.986908,187.570770 
	C280.667725,186.653809 270.207031,187.329239 259.303070,187.329239 
	C259.303070,200.569046 259.303070,214.013824 259.303040,228.441284 
z"/>
<path fill="#F96472" opacity="1.000000" stroke="none" 
	d="
M266.396820,25.028046 
	C264.449921,24.991213 262.806091,24.789070 261.162109,24.788185 
	C228.389786,24.770517 195.617477,24.779774 162.845154,24.765060 
	C161.355453,24.764393 159.865829,24.589830 158.015411,24.324261 
	C174.071411,17.646936 190.897461,12.743767 208.382172,9.886847 
	C225.146225,7.147679 241.965088,5.402075 258.909119,6.084676 
	C279.949646,6.932307 300.755463,9.786028 320.974030,15.972542 
	C328.690338,18.333591 336.317688,20.985306 344.233154,23.831572 
	C342.530548,24.359175 340.580627,24.731409 338.630219,24.734127 
	C316.060150,24.765585 293.489960,24.741150 270.115601,24.662861 
	C268.852722,24.752405 268.394012,24.910641 267.935333,25.068871 
	C267.523499,25.031393 267.111633,24.993919 266.396820,25.028046 
z"/>
<path fill="#FCFDFF" opacity="1.000000" stroke="none" 
	d="
M433.019653,122.604218 
	C433.482758,120.273895 434.024780,118.326401 434.049683,116.372322 
	C434.151794,108.358017 431.325867,105.478508 423.393433,105.359322 
	C419.065521,105.294289 414.733948,105.417099 410.407776,105.307426 
	C404.857483,105.166718 403.038940,103.353333 403.506561,98.017143 
	C404.305328,88.901543 405.388000,79.811188 406.268921,70.702240 
	C406.639160,66.873947 408.356934,65.331619 412.414459,65.458183 
	C421.562714,65.743530 430.726288,65.497620 439.882782,65.571556 
	C444.516266,65.608963 446.313965,67.621803 446.336609,72.407104 
	C446.359344,77.217270 444.564606,79.254395 439.988007,79.320839 
	C434.328430,79.403008 428.663635,79.455429 423.007385,79.297035 
	C420.212036,79.218758 419.092682,80.260971 419.091064,83.019325 
	C419.089172,86.160652 418.832367,89.301826 418.657135,93.072189 
	C420.993073,93.072189 423.105988,93.051445 425.218353,93.075432 
	C443.974762,93.288422 453.047394,104.260986 449.730682,122.711388 
	C447.992706,132.379486 442.116791,138.219406 432.313232,140.136795 
	C424.181244,141.727234 416.345032,140.990723 409.149658,136.754471 
	C403.321136,133.322968 399.906738,128.179810 400.081543,121.174759 
	C400.180634,117.201920 402.402283,115.015678 406.389801,114.956306 
	C410.148956,114.900322 414.824310,114.051697 415.711273,119.197739 
	C416.399506,123.190956 417.820221,125.797920 421.783905,126.585762 
	C426.090027,127.441673 430.116577,127.094254 433.019653,122.604218 
z"/>
<path fill="#FD6470" opacity="1.000000" stroke="none" 
	d="
M164.458633,492.674622 
	C166.474960,492.344849 168.784378,492.054688 171.094040,492.052826 
	C204.450775,492.025879 237.807526,492.037659 271.629333,491.931396 
	C291.648804,491.893280 311.203217,491.957336 330.757568,492.044006 
	C332.905426,492.053528 335.052734,492.192596 337.492065,492.553680 
	C327.860657,495.726746 318.078247,499.327698 307.978943,501.330719 
	C295.053070,503.894287 281.903442,505.457947 268.789215,506.896362 
	C260.596741,507.795013 252.263290,508.271698 244.042847,507.883698 
	C223.168350,506.898468 202.463699,504.456543 182.399460,498.132843 
	C176.543457,496.287170 170.635818,494.605225 164.458633,492.674622 
z"/>
<path fill="#FCFEFF" opacity="1.000000" stroke="none" 
	d="
M267.176758,387.174591 
	C275.023071,387.526184 280.212341,391.713715 281.581604,398.506439 
	C282.818695,404.643372 283.070312,411.593536 281.453613,417.561249 
	C278.237579,429.432556 268.502808,431.666229 257.075684,423.771057 
	C257.075684,429.478821 256.911163,434.908112 257.124359,440.322510 
	C257.317535,445.228088 254.219864,446.305969 250.447220,446.342438 
	C246.544571,446.380219 243.871033,445.006256 243.927643,440.199066 
	C244.105743,425.073212 244.035706,409.943787 243.958237,394.816254 
	C243.941772,391.601746 244.062866,388.640289 248.022934,388.030792 
	C251.774750,387.453400 255.337021,387.584808 256.409576,391.508453 
	C259.900879,390.055359 263.337830,388.624939 267.176758,387.174591 
M258.463135,401.060120 
	C258.031769,404.767639 256.833588,408.612946 257.465424,412.129425 
	C257.826660,414.139893 261.020081,416.697510 263.211212,416.994354 
	C265.016113,417.238861 267.853729,414.915741 269.064056,412.993927 
	C270.154358,411.262756 269.893158,408.523193 269.814636,406.242615 
	C269.580933,399.456635 265.060028,397.086304 258.463135,401.060120 
z"/>
<path fill="#FBFDFF" opacity="1.000000" stroke="none" 
	d="
M302.262451,418.853149 
	C302.232300,426.185944 300.554749,428.306000 295.226959,427.999451 
	C291.422455,427.780548 289.047852,426.208984 289.072388,421.848328 
	C289.168793,404.705811 289.158386,387.562317 289.084259,370.419586 
	C289.064453,365.841736 291.810669,364.771851 295.552124,364.783112 
	C299.415222,364.794739 302.444397,365.667175 302.309601,370.622711 
	C302.121429,377.541077 302.262207,384.468384 302.262207,392.368195 
	C307.588593,387.629425 312.726440,385.304901 318.618073,388.844940 
	C324.755707,392.532776 327.128143,398.358673 327.180511,405.284149 
	C327.223297,410.942688 327.067322,416.605560 327.236328,422.259430 
	C327.374023,426.866913 324.574005,427.961426 320.871399,427.981812 
	C317.005890,428.003113 313.933655,426.973663 314.038788,422.119812 
	C314.154083,416.796356 314.053833,411.468384 314.063507,406.142426 
	C314.070770,402.149231 312.572601,399.101440 308.247375,398.906128 
	C303.644653,398.698334 302.419678,402.060699 302.302063,405.894012 
	C302.174561,410.051117 302.266296,414.214966 302.262451,418.853149 
z"/>
<path fill="#FDFEFF" opacity="1.000000" stroke="none" 
	d="
M393.500427,87.003357 
	C393.499847,102.501656 393.524811,117.500702 393.485809,132.499573 
	C393.470795,138.265900 391.493469,140.100677 385.566467,140.116364 
	C379.629608,140.132080 377.618652,138.295486 377.605499,132.581467 
	C377.568665,116.596375 377.592712,100.611145 377.592712,84.244118 
	C376.698395,84.392548 376.027252,84.326553 375.571594,84.608597 
	C372.797089,86.326035 370.173676,86.664307 368.239594,83.542961 
	C366.222778,80.288086 366.381165,76.915680 369.607025,74.666840 
	C374.103149,71.532471 378.782623,68.576241 383.669830,66.111137 
	C388.779510,63.533783 393.371307,66.708092 393.478394,72.505280 
	C393.564545,77.170082 393.498810,81.837677 393.500427,87.003357 
z"/>
<path fill="#F9FCFF" opacity="1.000000" stroke="none" 
	d="
M365.079437,391.862762 
	C372.740692,398.633820 372.792969,407.141876 370.660370,415.552307 
	C368.799866,422.889801 363.014893,427.006256 355.669952,428.590363 
	C344.515411,430.996033 333.279877,422.060120 332.976654,410.660034 
	C332.616394,397.114410 337.757294,389.591278 348.917664,387.489563 
	C354.829529,386.376221 360.068268,388.085968 365.079437,391.862762 
M352.448090,398.814240 
	C348.837585,398.783295 346.584290,400.885468 346.294189,404.126068 
	C345.922058,408.283539 344.516510,413.317291 348.948608,416.006378 
	C350.701752,417.070068 354.710266,416.606445 356.355347,415.235016 
	C360.748871,411.572205 358.541382,401.458282 352.448090,398.814240 
z"/>
<path fill="#FBFDFF" opacity="1.000000" stroke="none" 
	d="
M436.037781,410.495300 
	C436.047821,404.554047 436.112640,399.065338 436.032806,393.578705 
	C435.961517,388.680115 439.182526,387.856628 442.984894,387.855835 
	C446.789276,387.855042 449.360504,389.171326 449.216309,393.694275 
	C449.030914,399.508911 449.285736,405.336823 449.133301,411.153351 
	C448.872803,421.093292 440.387329,428.919220 430.034882,428.946167 
	C419.687866,428.973083 411.115906,421.216888 410.778687,411.295502 
	C410.581085,405.481628 410.841919,399.652985 410.686371,393.836609 
	C410.558075,389.039795 413.437653,387.820282 417.374878,387.862549 
	C421.390594,387.905670 424.046906,389.461060 423.916077,394.106812 
	C423.771027,399.257904 423.943756,404.417206 423.866974,409.571259 
	C423.808350,413.505646 424.995422,416.701904 429.290497,417.175629 
	C433.564972,417.647156 435.640045,415.040802 436.037781,410.495300 
z"/>
<path fill="#F8FCFF" opacity="1.000000" stroke="none" 
	d="
M455.813965,401.692383 
	C456.032806,392.960327 459.208282,388.643280 467.277832,387.732910 
	C471.904083,387.210999 476.812592,388.093109 481.439606,389.072662 
	C484.382141,389.695618 487.013336,391.586517 485.362579,395.627594 
	C483.814850,399.416351 481.396851,399.949463 477.784454,398.478516 
	C474.164368,397.004425 470.291962,395.397095 466.127441,400.280334 
	C469.019104,401.335663 471.299500,402.351440 473.679413,403.004425 
	C483.735260,405.763611 487.825165,410.237579 486.821472,417.583923 
	C485.797791,425.076874 479.464447,429.490540 469.527435,428.802795 
	C465.508453,428.524628 461.408478,427.192963 457.681610,425.569092 
	C454.253693,424.075439 453.616760,420.916168 455.610901,417.601654 
	C457.536255,414.401459 459.812195,415.841736 462.468506,416.815247 
	C465.639587,417.977417 469.114563,418.409698 472.498993,418.815796 
	C473.280304,418.909576 474.955261,417.590942 474.936737,416.959869 
	C474.905762,415.903870 474.076843,414.324097 473.171295,413.941925 
	C470.281738,412.722351 467.172394,412.037384 464.203613,410.988464 
	C459.927704,409.477722 456.427185,407.147064 455.813965,401.692383 
z"/>
<path fill="#F8FCFF" opacity="1.000000" stroke="none" 
	d="
M209.262604,426.181671 
	C205.185242,423.242462 204.421875,420.008148 208.283081,415.950562 
	C212.830139,416.778046 216.688889,418.277069 220.684433,418.903992 
	C222.369934,419.168427 224.343842,417.594452 226.186646,416.856110 
	C224.741150,415.552979 223.482056,413.897919 221.814224,413.014618 
	C217.334656,410.642181 212.680313,408.599731 208.095367,406.426239 
	C208.075150,402.349792 208.054916,398.273376 208.101913,393.811279 
	C214.597549,386.768616 225.081940,385.023926 233.362030,389.295380 
	C235.874542,390.591492 237.869034,392.160980 236.459839,395.565369 
	C235.045395,398.982544 232.859756,400.087860 229.363922,398.709259 
	C225.545685,397.203552 221.647766,395.340332 217.384979,399.872864 
	C219.263351,400.830994 220.686234,401.744690 222.236557,402.307251 
	C225.195419,403.380920 228.344894,403.991241 231.201172,405.271484 
	C235.701736,407.288757 238.030670,410.986847 237.935440,415.984192 
	C237.838501,421.071747 235.674637,425.014648 230.870743,427.045837 
	C223.709534,430.073761 216.603119,429.471741 209.262604,426.181671 
z"/>
<path fill="#FBFDFF" opacity="1.000000" stroke="none" 
	d="
M400.977539,387.126282 
	C405.298798,387.272400 407.154724,389.471832 407.024933,393.226166 
	C406.901520,396.796112 404.802917,398.452332 401.252106,398.790100 
	C394.820831,399.401886 391.467926,402.835419 391.029297,409.365509 
	C390.750763,413.511414 390.811371,417.689880 390.912689,421.849030 
	C391.027771,426.572510 388.108276,427.912415 384.208344,427.977844 
	C380.189148,428.045258 377.587189,426.560242 377.676422,421.833374 
	C377.849182,412.677917 377.828003,403.515228 377.676788,394.359009 
	C377.615417,390.642548 378.580841,388.147980 382.704071,387.882874 
	C386.528717,387.636993 389.823853,388.174164 390.115906,392.133972 
	C393.471527,390.528076 397.024017,388.827972 400.977539,387.126282 
z"/>
<path fill="#4F66D0" opacity="1.000000" stroke="none" 
	d="
M268.095856,25.281601 
	C268.394012,24.910641 268.852722,24.752405 269.652893,24.747591 
	C269.415070,25.098785 268.835724,25.296558 268.095856,25.281601 
z"/>
<path fill="#F8F9FD" opacity="1.000000" stroke="none" 
	d="
M98.946838,405.115326 
	C94.230385,405.481659 89.931572,405.789581 84.798775,406.157227 
	C84.798775,411.155701 84.843811,416.241028 84.785965,421.325165 
	C84.729393,426.298126 83.070129,427.942139 78.241646,428.009796 
	C73.200989,428.080444 71.409851,426.371735 71.396744,421.158417 
	C71.356155,405.015198 71.454552,388.871277 71.336342,372.728821 
	C71.302811,368.149963 73.026123,365.883698 77.762596,365.991852 
	C83.584618,366.124756 89.417091,365.896484 95.234596,366.109589 
	C106.306572,366.515228 112.650291,372.178680 113.848732,382.437561 
	C115.254829,394.473969 110.422684,402.020111 98.946838,405.115326 
M84.783089,389.363983 
	C84.783089,391.281189 84.783089,393.198425 84.783089,395.550079 
	C90.361626,395.098267 95.882462,397.371735 99.282234,392.236237 
	C101.713501,388.563690 101.775314,383.968170 98.986122,380.460510 
	C95.274719,375.793121 89.964798,378.113464 84.782997,377.850616 
	C84.782997,381.794952 84.782997,385.098175 84.783089,389.363983 
z"/>
<path fill="#FDFDFE" opacity="1.000000" stroke="none" 
	d="
M143.990662,417.879700 
	C143.989700,413.735901 144.054138,410.069275 143.971558,406.405975 
	C143.863266,401.602814 141.546814,398.690033 137.858658,398.870605 
	C133.281143,399.094696 132.190857,402.325378 132.139740,406.157623 
	C132.070877,411.321259 131.948578,416.493591 132.166138,421.648834 
	C132.365051,426.361755 129.688889,427.909485 125.716637,427.968201 
	C121.803741,428.025970 118.953209,426.725159 118.977982,421.952606 
	C119.067055,404.793549 119.073265,387.633423 118.975677,370.474457 
	C118.949539,365.878021 121.631889,364.784790 125.387131,364.798431 
	C129.238297,364.812408 132.299850,365.652191 132.165543,370.627472 
	C131.977097,377.607391 132.117935,384.596191 132.117935,392.232758 
	C133.814133,390.946655 135.009567,389.905701 136.330978,389.062012 
	C141.587479,385.705872 148.447876,386.614990 152.290024,392.193390 
	C154.712967,395.711243 156.274597,400.236664 156.866409,404.498444 
	C157.638199,410.056488 157.101318,415.801178 157.063843,421.465179 
	C157.031494,426.355469 155.297256,428.043732 150.498840,428.016113 
	C145.732513,427.988678 144.072464,426.292816 143.993637,421.357056 
	C143.977676,420.357727 143.990891,419.357910 143.990662,417.879700 
z"/>
<path fill="#FCFCFE" opacity="1.000000" stroke="none" 
	d="
M201.062622,402.102478 
	C200.923172,406.973267 201.503693,411.642639 200.384018,415.860748 
	C198.138458,424.320343 188.341125,430.036407 179.659332,428.811981 
	C169.948074,427.442352 163.129425,419.756378 162.845261,410.149292 
	C162.658661,403.841064 163.088531,397.895386 167.930649,393.041382 
	C178.654343,382.291382 196.203934,386.836334 201.062622,402.102478 
M187.907959,403.225403 
	C186.524948,399.876770 184.095673,398.071533 180.476532,399.075439 
	C176.877747,400.073700 175.853363,403.002777 175.975998,406.472656 
	C176.034576,408.129944 175.845337,409.813721 176.070648,411.443726 
	C176.560028,414.984192 178.480438,417.365540 182.275070,417.234772 
	C185.746399,417.115143 187.735779,414.937500 188.037918,411.536530 
	C188.257004,409.070221 188.062119,406.567169 187.907959,403.225403 
z"/>
<path fill="#0A86FC" opacity="1.000000" stroke="none" 
	d="
M208.074219,406.840881 
	C212.680313,408.599731 217.334656,410.642181 221.814224,413.014618 
	C223.482056,413.897919 224.741150,415.552979 226.186646,416.856110 
	C224.343842,417.594452 222.369934,419.168427 220.684433,418.903992 
	C216.688889,418.277069 212.830139,416.778046 208.513458,415.685577 
	C208.091553,412.911591 208.072311,410.083527 208.074219,406.840881 
z"/>
<path fill="#0684FC" opacity="1.000000" stroke="none" 
	d="
M259.303040,227.949951 
	C259.303070,214.013824 259.303070,200.569046 259.303070,187.329239 
	C270.207031,187.329239 280.667725,186.653809 290.986908,187.570770 
	C297.674622,188.165039 302.072205,193.325943 304.061768,199.890808 
	C306.535889,208.054550 306.566376,216.306259 304.138672,224.481262 
	C301.744965,232.541855 296.006561,237.250839 287.855743,237.808212 
	C278.597900,238.441299 269.263489,237.954468 259.303040,237.954468 
	C259.303040,234.660187 259.303040,231.550735 259.303040,227.949951 
z"/>
<path fill="#0B87FC" opacity="1.000000" stroke="none" 
	d="
M258.739655,400.753845 
	C265.060028,397.086304 269.580933,399.456635 269.814636,406.242615 
	C269.893158,408.523193 270.154358,411.262756 269.064056,412.993927 
	C267.853729,414.915741 265.016113,417.238861 263.211212,416.994354 
	C261.020081,416.697510 257.826660,414.139893 257.465424,412.129425 
	C256.833588,408.612946 258.031769,404.767639 258.739655,400.753845 
z"/>
<path fill="#0685FC" opacity="1.000000" stroke="none" 
	d="
M352.852997,398.854156 
	C358.541382,401.458282 360.748871,411.572205 356.355347,415.235016 
	C354.710266,416.606445 350.701752,417.070068 348.948608,416.006378 
	C344.516510,413.317291 345.922058,408.283539 346.294189,404.126068 
	C346.584290,400.885468 348.837585,398.783295 352.852997,398.854156 
z"/>
<path fill="#536AD1" opacity="1.000000" stroke="none" 
	d="
M84.783043,388.882690 
	C84.782997,385.098175 84.782997,381.794952 84.782997,377.850616 
	C89.964798,378.113464 95.274719,375.793121 98.986122,380.460510 
	C101.775314,383.968170 101.713501,388.563690 99.282234,392.236237 
	C95.882462,397.371735 90.361626,395.098267 84.783089,395.550079 
	C84.783089,393.198425 84.783089,391.281189 84.783043,388.882690 
z"/>
<path fill="#5268D1" opacity="1.000000" stroke="none" 
	d="
M187.979889,403.652954 
	C188.062119,406.567169 188.257004,409.070221 188.037918,411.536530 
	C187.735779,414.937500 185.746399,417.115143 182.275070,417.234772 
	C178.480438,417.365540 176.560028,414.984192 176.070648,411.443726 
	C175.845337,409.813721 176.034576,408.129944 175.975998,406.472656 
	C175.853363,403.002777 176.877747,400.073700 180.476532,399.075439 
	C184.095673,398.071533 186.524948,399.876770 187.979889,403.652954 
z"/>
</svg>