<svg version="1.1" id="Layer_1" xmlns="http://www.w3.org/2000/svg" xmlns:xlink="http://www.w3.org/1999/xlink" x="0px" y="0px"
	 width="100%" viewBox="0 0 512 512" enable-background="new 0 0 512 512" xml:space="preserve">
<path fill="#0BB69F" opacity="1.000000" stroke="none" 
	d="
M513.000000,82.000008 
	C513.000000,199.355347 513.000000,316.710693 512.646606,434.293304 
	C511.870300,435.182404 511.248749,435.790619 511.053680,436.513916 
	C506.359344,453.919678 496.719849,467.819763 482.140778,478.494690 
	C468.966919,488.140717 453.995880,492.614319 438.090088,492.839508 
	C404.664093,493.312592 371.225433,492.891296 337.495117,492.561890 
	C335.048187,492.202057 332.898407,492.051056 330.748108,492.043213 
	C311.829559,491.974304 292.910889,491.930817 273.665863,491.681030 
	C253.644669,488.642883 237.264206,479.861481 224.761841,464.233704 
	C216.100479,453.407135 210.125671,441.413452 209.671280,427.303925 
	C213.094452,427.429474 216.092758,427.837341 219.040573,427.604980 
	C222.273727,427.350189 224.657394,425.156982 223.794708,421.967957 
	C223.250809,419.957367 220.815048,418.270294 218.896637,416.902832 
	C217.998871,416.262970 216.122437,417.118683 215.039261,416.585785 
	C213.636642,415.895660 211.625168,414.562195 211.543716,413.389832 
	C211.170486,408.017426 211.379578,402.604523 211.379578,396.759888 
	C214.487473,396.759888 216.949417,396.740662 219.410934,396.764771 
	C222.491806,396.794952 223.998367,395.249512 224.054871,392.213898 
	C224.114288,389.020508 222.777084,387.169006 219.351746,387.229248 
	C216.769821,387.274658 214.186462,387.238190 211.312546,387.238190 
	C211.312546,383.137268 211.724014,379.756500 211.173767,376.540283 
	C210.780289,374.240509 209.097153,372.161377 207.992035,369.516174 
	C207.996689,279.296661 207.766663,189.543823 208.129822,99.793419 
	C208.252914,69.377922 222.524979,46.701756 249.716904,32.776867 
	C256.427307,29.340502 263.901733,27.396145 271.478546,24.643148 
	C294.344543,24.602690 316.756866,24.699068 339.169342,24.740429 
	C340.950531,24.743717 342.732452,24.366030 345.009644,24.101812 
	C376.324554,24.025610 407.145203,23.859257 437.962158,24.124779 
	C444.443115,24.180620 451.081299,25.179382 457.354675,26.844801 
	C485.456177,34.305012 502.800079,52.810295 511.072510,80.337379 
	C511.278473,81.022781 512.338379,81.451553 513.000000,82.000008 
M340.898346,168.176849 
	C340.822723,158.816940 334.742737,153.805634 327.318085,150.125137 
	C319.078827,146.040833 313.677338,147.633087 308.406494,155.094498 
	C295.535370,173.314880 282.688843,191.552658 269.816833,209.772430 
	C268.827057,211.173401 267.714996,212.488007 265.830536,214.907394 
	C265.830536,211.924759 265.830566,210.323914 265.830536,208.723068 
	C265.830292,192.897690 265.740662,177.071548 265.879608,161.247391 
	C265.926422,155.916290 263.801453,152.187210 258.939392,150.268631 
	C251.179871,147.206772 243.313309,147.182068 235.583908,150.415573 
	C231.179428,152.258118 228.990448,155.573135 228.997330,160.562485 
	C229.064575,209.371170 229.074875,258.180023 228.985901,306.988647 
	C228.975906,312.465820 231.597412,315.808136 236.286926,317.740540 
	C243.528198,320.724487 250.910324,320.738708 258.201904,317.881531 
	C263.377655,315.853424 266.004028,312.155640 265.887634,306.331635 
	C265.681274,296.007629 266.629669,285.595947 265.599396,275.371674 
	C264.623840,265.690674 270.184326,260.189117 275.707245,253.730087 
	C276.987946,255.603165 278.036682,257.087189 279.034882,258.604492 
	C291.109985,276.959351 303.153320,295.335144 315.260071,313.669067 
	C319.626465,320.281342 325.175323,322.464783 332.896027,320.850891 
	C348.653015,317.557190 354.017761,304.989471 345.346802,291.705811 
	C331.154083,269.963013 316.966949,248.216568 302.785614,226.466354 
	C301.905701,225.116852 301.096802,223.721039 300.192902,222.245621 
	C312.368683,206.937256 324.435089,191.860336 336.360474,176.672745 
	C338.170471,174.367630 339.325684,171.548370 340.898346,168.176849 
M429.503052,138.116318 
	C438.055878,142.846329 447.000153,142.949921 456.063721,140.070526 
	C464.341248,137.440842 469.526337,131.545410 469.938110,122.990791 
	C470.544678,110.388969 470.348785,97.727081 469.951508,85.107880 
	C469.767090,79.250465 466.751678,74.331192 461.767883,70.902336 
	C453.118835,64.951790 436.841980,65.120598 428.616058,71.225800 
	C421.244995,76.696533 418.165802,89.150917 421.490784,100.050682 
	C423.390289,106.277534 427.455902,110.319679 433.752106,111.997932 
	C440.717468,113.854546 447.519043,113.506401 454.873047,109.332268 
	C454.531067,114.132668 454.670380,118.126556 453.867981,121.921303 
	C452.885345,126.568268 449.081696,128.066437 444.720734,127.907486 
	C440.512512,127.754097 436.881073,126.737366 435.980560,121.585838 
	C435.230255,117.293739 431.239532,115.386139 425.851379,116.268753 
	C421.583221,116.967918 419.868225,119.426788 420.455627,124.220329 
	C421.165100,130.010086 424.031525,134.502777 429.503052,138.116318 
M452.205566,387.184601 
	C448.939728,389.320282 445.673920,391.455963 443.194031,393.077667 
	C439.963776,391.064301 436.812012,387.732513 433.294464,387.286713 
	C429.678131,386.828369 425.704773,389.186707 421.552185,390.411438 
	C419.817627,387.491974 416.602203,386.684479 412.627228,387.796265 
	C408.317139,389.001770 409.101593,392.457458 409.090302,395.541992 
	C409.059265,404.040802 409.048431,412.539978 409.093353,421.038635 
	C409.117706,425.641846 411.311005,427.779877 415.757202,427.727081 
	C420.197876,427.674347 422.193573,425.596344 422.232178,420.866699 
	C422.274353,415.701019 422.191345,410.533844 422.274872,405.369141 
	C422.333649,401.731934 423.442871,398.388977 427.713013,398.410919 
	C431.811615,398.431976 433.310394,401.433990 433.316040,405.250671 
	C433.323425,410.250000 433.315125,415.249359 433.340393,420.248596 
	C433.369354,425.981232 435.022339,427.785828 440.125336,427.718140 
	C445.046387,427.652832 446.592834,425.957306 446.628479,420.487213 
	C446.661041,415.488068 446.642731,410.488556 446.648712,405.489227 
	C446.653076,401.835907 447.594818,398.441864 451.836700,398.323059 
	C456.304932,398.197876 457.625397,401.620056 457.695129,405.478333 
	C457.794464,410.975922 457.814941,416.477936 457.713776,421.975220 
	C457.627930,426.637787 460.856140,427.639893 464.312378,427.619995 
	C467.776031,427.600128 470.982513,426.504456 470.921387,421.910034 
	C470.839355,415.745300 471.130585,409.565338 470.802307,403.416443 
	C470.223328,392.570923 463.587769,386.621033 452.205566,387.184601 
M407.604736,66.891319 
	C402.958405,66.081367 387.370544,73.757599 386.123779,78.094048 
	C385.496185,80.276848 386.129333,83.455765 387.432556,85.315002 
	C388.177399,86.377716 391.412750,85.744614 393.527985,85.768845 
	C394.227875,85.776871 394.931580,85.453072 395.902893,85.214951 
	C395.902893,101.769577 395.881012,117.926598 395.915497,134.083496 
	C395.926605,139.296814 398.062500,141.140762 403.820679,141.143692 
	C409.558044,141.146637 411.844391,139.240219 411.856018,134.100876 
	C411.901611,113.939919 411.982239,93.777397 411.719513,73.619759 
	C411.691040,71.434296 409.520386,69.276756 407.604736,66.891319 
M261.106354,426.497284 
	C261.738678,425.223511 262.888367,423.961304 262.917114,422.674011 
	C263.073029,415.689941 263.226654,408.684723 262.846954,401.715881 
	C262.488892,395.143585 258.998016,389.737854 252.595306,388.486420 
	C246.807419,387.355194 240.452667,387.710754 234.595566,388.774506 
	C229.501602,389.699677 228.298355,392.915985 229.805099,396.757843 
	C231.683319,401.546844 234.597443,399.684814 237.863998,398.360443 
	C244.517975,395.662750 248.829117,397.810944 249.604370,404.111572 
	C247.146805,404.314056 244.677444,404.407898 242.242416,404.747894 
	C239.620300,405.113953 236.920181,405.397919 234.448486,406.269226 
	C228.564697,408.343262 225.785889,414.096893 227.291321,420.406372 
	C228.673737,426.200287 233.486526,429.560150 239.794205,428.179047 
	C243.512115,427.364960 246.922333,425.145538 250.506470,423.542236 
	C252.689041,427.780029 254.415131,428.424805 261.106354,426.497284 
M372.134033,425.522369 
	C385.156708,433.722412 403.644257,424.340759 402.058258,407.414337 
	C401.609497,402.624878 401.916992,397.756531 402.007416,392.926819 
	C402.095245,388.236237 398.803955,387.335327 395.357208,387.370819 
	C391.910217,387.406311 388.699677,388.367401 388.831024,393.069702 
	C388.984497,398.563171 388.953156,404.066406 388.830658,409.561554 
	C388.727631,414.182892 386.091919,417.268921 382.495361,416.945282 
	C378.190063,416.557861 376.622070,413.630188 376.578461,409.675415 
	C376.523376,404.677948 376.579407,399.679352 376.543121,394.681580 
	C376.505585,389.512329 374.569153,387.347382 370.019470,387.291199 
	C365.459717,387.234894 363.306274,389.489502 363.266052,394.463196 
	C363.228333,399.127716 363.333893,403.794373 363.239410,408.457275 
	C363.097046,415.481049 365.660217,421.098450 372.134033,425.522369 
M271.171204,415.441772 
	C266.947937,420.316162 267.329590,424.072388 273.295013,426.040344 
	C278.175385,427.650330 283.676666,428.207886 288.835968,427.941223 
	C295.939575,427.573975 300.059296,423.062225 300.727539,416.679535 
	C301.363983,410.600281 298.156067,406.159027 291.308258,403.813385 
	C288.485657,402.846466 285.562012,402.166168 282.768097,401.129639 
	C282.041504,400.860077 281.133698,399.685974 281.207184,399.027618 
	C281.287781,398.305756 282.444519,397.104797 283.067261,397.144043 
	C286.155273,397.338745 289.368256,397.436157 292.257965,398.402679 
	C295.686157,399.549347 297.608521,398.664673 299.081787,395.594696 
	C300.752533,392.113190 299.035431,390.183380 296.108429,388.934021 
	C289.892426,386.280823 283.454041,385.937073 277.138519,388.292145 
	C272.127716,390.160675 269.678619,394.236725 269.533264,399.557739 
	C269.387878,404.879669 272.075134,408.370422 276.974548,410.167328 
	C279.464020,411.080383 282.161438,411.508942 284.526947,412.649811 
	C286.234222,413.473206 287.549011,415.110321 289.038849,416.384552 
	C287.047577,417.181854 285.061981,418.593048 283.063538,418.611542 
	C280.870667,418.631836 278.663940,417.374420 276.467041,416.662048 
	C274.929443,416.163422 273.398224,415.645203 271.171204,415.441772 
M306.311035,396.264130 
	C305.311005,404.995392 307.539551,408.471375 315.831726,411.060303 
	C318.207947,411.802216 320.682007,412.302216 322.951416,413.282867 
	C323.990784,413.731995 324.643494,415.075928 325.471527,416.014008 
	C324.419098,416.893707 323.294037,418.589783 322.327484,418.503845 
	C319.105621,418.217346 315.762939,417.719147 312.804657,416.488922 
	C309.945557,415.299957 307.610596,413.969269 305.687897,417.532990 
	C303.950775,420.752808 304.739777,423.448303 307.815735,425.167572 
	C315.411682,429.413300 323.494873,430.141022 331.087982,425.886963 
	C333.805145,424.364655 336.097382,420.460297 336.778625,417.259033 
	C338.288696,410.163086 334.366333,405.681183 325.946991,403.154358 
	C322.945709,402.253601 319.997192,401.177063 317.024597,400.180756 
	C317.074585,399.466797 317.124573,398.752838 317.174561,398.038879 
	C319.379669,397.642212 321.607361,396.842896 323.783417,396.964874 
	C325.861328,397.081299 327.945801,398.807373 329.916016,398.624634 
	C331.814026,398.448608 334.291687,397.138885 335.164551,395.574097 
	C335.893066,394.268066 335.348633,391.108398 334.197815,390.083282 
	C326.741547,383.441101 310.907959,386.712402 306.311035,396.264130 
M356.162994,400.536102 
	C356.161835,398.048584 356.031433,395.552979 356.187317,393.075317 
	C356.482605,388.381256 353.282318,387.420227 349.798370,387.363098 
	C346.082886,387.302155 342.918671,388.283661 342.999725,393.213348 
	C343.155090,402.663330 343.158417,412.119537 342.997894,421.569336 
	C342.915985,426.391174 345.937012,427.655823 349.682159,427.628113 
	C353.450653,427.600250 356.384888,426.229156 356.217987,421.422211 
	C355.987946,414.796906 356.162018,408.157532 356.162994,400.536102 
M345.298309,378.096832 
	C346.851624,378.545685 348.427612,379.434509 349.953796,379.355988 
	C353.655273,379.165558 356.376465,377.297546 356.311279,373.252228 
	C356.249725,369.431671 353.458221,367.477386 350.089203,367.594055 
	C347.916656,367.669312 344.784241,368.920502 343.940765,370.585999 
	C343.046234,372.352386 344.350616,375.232391 345.298309,378.096832 
z"/>
<path fill="#" opacity="1.000000" stroke="none" 
	d="
M513.,81.531349 
	C512.338379,81.451553 511.278473,81.022781 511.072510,80.337379 
	C502.800079,52.810295 485.456177,34.305012 457.354675,26.844801 
	C451.081299,25.179382 444.443115,24.180620 437.962158,24.124779 
	C407.145203,23.859257 376.324554,24.025610 344.776123,23.832184 
	C336.763519,21.100174 329.577423,18.234785 322.178101,16.112757 
	C301.132019,10.077031 279.608704,6.708632 257.728699,6.048800 
	C241.118439,5.547888 224.650406,7.205381 208.236389,9.906596 
	C190.809937,12.774422 173.998138,17.570679 157.287537,24.412067 
	C152.371124,26.517132 147.716949,28.167143 143.322144,30.341417 
	C122.797409,40.495766 103.696381,52.743504 86.412910,67.921288 
	C70.171440,82.184029 55.973751,98.117477 43.541588,116.117050 
	C36.824646,127.823921 29.966703,139.150055 24.105499,150.970428 
	C12.820155,173.729736 6.019677,197.907486 2.918465,223.130890 
	C2.833479,223.822098 1.663846,224.379959 1.000001,225.000000 
	C1.000000,150.373306 1.000000,75.746613 1.000000,1.059961 
	C171.666656,1.059961 342.333344,1.059961 513.000000,1.059961 
	C513.000000,27.758028 513.000000,54.410355 513.000000,81.531349 
z"/>
<path fill="#" opacity="1.000000" stroke="none" 
	d="
M337.791992,492.837128 
	C371.225433,492.891296 404.664093,493.312592 438.,492.839508 
	C453.995880,492.614319 468.966919,488.140717 482.140778,478.494690 
	C496.719849,467.819763 506.359344,453.919678 511.053680,436.513916 
	C511.248749,435.790619 511.870300,435.182404 512.646606,434.760284 
	C513.,460.986023 513.,486.972046 513.,512.979004 
	C342.439117,512.979004 171.878204,512.979004 1.,512.979004 
	C1.,438.646088 1.,364.291687 1.328333,289.125732 
	C2.101439,289.146576 2.806734,289.936829 2.949553,290.818207 
	C4.041809,297.558838 4.572945,304.422485 6.118236,311.052155 
	C13.405901,342.317963 25.465605,371.563324 44.013073,398.346466 
	C50.483067,406.640411 56.637619,414.754181 63.130627,422.587402 
	C76.161491,438.307770 91.555962,451.406860 108.248856,463.112885 
	C125.831535,475.442841 144.778702,485.062347 165.160431,492.848206 
	C170.612961,494.595490 175.614243,496.430817 180.718521,497.910889 
	C201.784134,504.019257 223.342606,507.617401 245.224884,507.792542 
	C259.464935,507.906494 273.755157,506.345276 287.961334,504.920502 
	C305.087006,503.203003 321.571564,498.477661 337.791992,492.837128 
z"/>
<path fill="#FEA95C" opacity="1.000000" stroke="none" 
	d="
M43.850727,398.039398 
	C25.465605,371.563324 13.405901,342.317963 6.118236,311.052155 
	C4.572945,304.422485 4.041809,297.558838 2.949553,290.818207 
	C2.806734,289.936829 2.101439,289.146576 1.328333,288.657043 
	C1.000000,267.979095 1.000000,246.958206 1.000001,225.468658 
	C1.663846,224.379959 2.833479,223.822098 2.918465,223.130890 
	C6.019677,197.907486 12.820155,173.729736 24.105499,150.970428 
	C29.966703,139.150055 36.824646,127.823921 43.626450,116.581665 
	C44.026165,209.445526 44.032436,302.002228 44.029591,394.558929 
	C44.029556,395.719086 43.912933,396.879242 43.850727,398.039398 
z"/>
<path fill="#0996A4" opacity="1.000000" stroke="none" 
	d="
M44.013073,398.346466 
	C43.912933,396.879242 44.029556,395.719086 44.029591,394.558929 
	C44.032436,302.002228 44.026165,209.445526 43.935719,116.424202 
	C55.973751,98.117477 70.171440,82.184029 86.412910,67.921288 
	C103.696381,52.743504 122.797409,40.495766 143.322144,30.341417 
	C147.716949,28.167143 152.371124,26.517132 157.656967,24.571194 
	C160.395828,24.600792 162.383499,24.756866 164.371262,24.757971 
	C192.954742,24.773857 221.538239,24.769073 250.121719,24.768778 
	C257.089447,24.768705 264.057190,24.766914 271.024933,24.765913 
	C263.901733,27.396145 256.427307,29.340502 249.716904,32.776867 
	C222.524979,46.701756 208.252914,69.377922 208.129822,99.793419 
	C207.766663,189.543823 207.996689,279.296661 207.564728,369.534729 
	C199.144608,369.775452 198.123489,370.741089 198.122589,378.573212 
	C198.121307,389.878998 198.044724,401.185608 198.153503,412.490356 
	C198.238708,421.345001 200.800385,424.625793 209.224152,427.304077 
	C210.125671,441.413452 216.100479,453.407135 224.761841,464.233704 
	C237.264206,479.861481 253.644669,488.642883 273.203247,491.756409 
	C238.902695,492.031158 204.738297,492.019653 170.573975,492.063843 
	C168.634521,492.066376 166.695679,492.526001 164.756561,492.772888 
	C144.778702,485.062347 125.831535,475.442841 108.248856,463.112885 
	C91.555962,451.406860 76.161491,438.307770 63.130627,422.587402 
	C56.637619,414.754181 50.483067,406.640411 44.013073,398.346466 
M132.379105,405.158020 
	C133.210434,405.117584 134.044281,405.105499 134.872726,405.032410 
	C146.150925,404.037354 152.180664,396.876129 152.026169,384.671326 
	C151.880737,373.181885 145.655746,366.421722 134.442062,365.943665 
	C127.961067,365.667358 121.462105,365.807861 114.971176,365.770599 
	C111.265839,365.749298 109.576691,367.519745 109.592712,371.307190 
	C109.663849,388.119995 109.710854,404.934052 109.567924,421.745941 
	C109.525688,426.713715 112.603081,427.667999 116.349709,427.632629 
	C120.184425,427.596405 123.140602,426.291809 122.937492,421.459656 
	C122.716751,416.207947 122.887405,410.939758 122.887405,405.207581 
	C126.181412,405.207581 128.811752,405.207581 132.379105,405.158020 
M191.734009,414.670105 
	C191.885971,411.351044 192.159424,408.032196 192.164459,404.712921 
	C192.174774,397.912720 188.780716,393.019257 183.118164,389.634430 
	C174.630081,384.560669 163.465179,386.607086 157.436325,394.218750 
	C151.744690,401.404663 152.255310,415.387604 158.454102,422.090454 
	C168.535660,432.991730 185.322617,429.608643 191.734009,414.670105 
z"/>
<path fill="#FDFEFE" opacity="1.000000" stroke="none" 
	d="
M340.841064,168.571899 
	C339.325684,171.548370 338.170471,174.367630 336.360474,176.672745 
	C324.435089,191.860336 312.368683,206.937256 300.192902,222.245621 
	C301.096802,223.721039 301.905701,225.116852 302.785614,226.466354 
	C316.966949,248.216568 331.154083,269.963013 345.346802,291.705811 
	C354.017761,304.989471 348.653015,317.557190 332.896027,320.850891 
	C325.175323,322.464783 319.626465,320.281342 315.260071,313.669067 
	C303.153320,295.335144 291.109985,276.959351 279.034882,258.604492 
	C278.036682,257.087189 276.987946,255.603165 275.707245,253.730087 
	C270.184326,260.189117 264.623840,265.690674 265.599396,275.371674 
	C266.629669,285.595947 265.681274,296.007629 265.887634,306.331635 
	C266.004028,312.155640 263.377655,315.853424 258.201904,317.881531 
	C250.910324,320.738708 243.528198,320.724487 236.286926,317.740540 
	C231.597412,315.808136 228.975906,312.465820 228.985901,306.988647 
	C229.074875,258.180023 229.064575,209.371170 228.997330,160.562485 
	C228.990448,155.573135 231.179428,152.258118 235.583908,150.415573 
	C243.313309,147.182068 251.179871,147.206772 258.939392,150.268631 
	C263.801453,152.187210 265.926422,155.916290 265.879608,161.247391 
	C265.740662,177.071548 265.830292,192.897690 265.830536,208.723068 
	C265.830566,210.323914 265.830536,211.924759 265.830536,214.907394 
	C267.714996,212.488007 268.827057,211.173401 269.816833,209.772430 
	C282.688843,191.552658 295.535370,173.314880 308.406494,155.094498 
	C313.677338,147.633087 319.078827,146.040833 327.318085,150.125137 
	C334.742737,153.805634 340.822723,158.816940 340.841064,168.571899 
z"/>
<path fill="#FAFDFD" opacity="1.000000" stroke="none" 
	d="
M429.182739,137.935089 
	C424.031525,134.502777 421.165100,130.010086 420.455627,124.220329 
	C419.868225,119.426788 421.583221,116.967918 425.851379,116.268753 
	C431.239532,115.386139 435.230255,117.293739 435.980560,121.585838 
	C436.881073,126.737366 440.512512,127.754097 444.720734,127.907486 
	C449.081696,128.066437 452.885345,126.568268 453.867981,121.921303 
	C454.670380,118.126556 454.531067,114.132668 454.873047,109.332268 
	C447.519043,113.506401 440.717468,113.854546 433.752106,111.997932 
	C427.455902,110.319679 423.390289,106.277534 421.490784,100.050682 
	C418.165802,89.150917 421.244995,76.696533 428.616058,71.225800 
	C436.841980,65.120598 453.118835,64.951790 461.767883,70.902336 
	C466.751678,74.331192 469.767090,79.250465 469.951508,85.107880 
	C470.348785,97.727081 470.544678,110.388969 469.938110,122.990791 
	C469.526337,131.545410 464.341248,137.440842 456.063721,140.070526 
	C447.000153,142.949921 438.055878,142.846329 429.182739,137.935089 
M439.069336,81.577347 
	C435.406372,85.890213 435.387360,90.993744 437.387543,95.642159 
	C438.350800,97.880867 441.653473,100.261528 444.053680,100.437416 
	C446.937836,100.648773 450.646484,99.301331 452.810760,97.327110 
	C455.901031,94.508255 455.172668,85.526802 452.487579,82.301750 
	C449.834412,79.114975 445.088593,78.667953 439.069336,81.577347 
z"/>
<path fill="#F8A95E" opacity="1.000000" stroke="none" 
	d="
M271.478546,24.643148 
	C264.057190,24.766914 257.089447,24.768705 250.121719,24.768778 
	C221.538239,24.769073 192.954742,24.773857 164.371262,24.757971 
	C162.383499,24.756866 160.395828,24.600792 158.038666,24.357653 
	C173.998138,17.570679 190.809937,12.774422 208.236389,9.906596 
	C224.650406,7.205381 241.118439,5.547888 257.728699,6.048800 
	C279.608704,6.708632 301.132019,10.077031 322.178101,16.112757 
	C329.577423,18.234785 336.763519,21.100174 344.280518,23.895763 
	C342.732452,24.366030 340.950531,24.743717 339.169342,24.740429 
	C316.756866,24.699068 294.344543,24.602690 271.478546,24.643148 
z"/>
<path fill="#FCA95D" opacity="1.000000" stroke="none" 
	d="
M165.160431,492.848206 
	C166.695679,492.526001 168.634521,492.066376 170.573975,492.063843 
	C204.738297,492.019653 238.902695,492.031158 273.529663,491.955231 
	C292.910889,491.930817 311.829559,491.974304 330.748108,492.043213 
	C332.898407,492.051056 335.048187,492.202057 337.495117,492.561890 
	C321.571564,498.477661 305.087006,503.203003 287.961334,504.920502 
	C273.755157,506.345276 259.464935,507.906494 245.224884,507.792542 
	C223.342606,507.617401 201.784134,504.019257 180.718521,497.910889 
	C175.614243,496.430817 170.612961,494.595490 165.160431,492.848206 
z"/>
<path fill="#F8FDFC" opacity="1.000000" stroke="none" 
	d="
M452.615173,387.113586 
	C463.587769,386.621033 470.223328,392.570923 470.802307,403.416443 
	C471.130585,409.565338 470.839355,415.745300 470.921387,421.910034 
	C470.982513,426.504456 467.776031,427.600128 464.312378,427.619995 
	C460.856140,427.639893 457.627930,426.637787 457.713776,421.975220 
	C457.814941,416.477936 457.794464,410.975922 457.695129,405.478333 
	C457.625397,401.620056 456.304932,398.197876 451.836700,398.323059 
	C447.594818,398.441864 446.653076,401.835907 446.648712,405.489227 
	C446.642731,410.488556 446.661041,415.488068 446.628479,420.487213 
	C446.592834,425.957306 445.046387,427.652832 440.125336,427.718140 
	C435.022339,427.785828 433.369354,425.981232 433.340393,420.248596 
	C433.315125,415.249359 433.323425,410.250000 433.316040,405.250671 
	C433.310394,401.433990 431.811615,398.431976 427.713013,398.410919 
	C423.442871,398.388977 422.333649,401.731934 422.274872,405.369141 
	C422.191345,410.533844 422.274353,415.701019 422.232178,420.866699 
	C422.193573,425.596344 420.197876,427.674347 415.757202,427.727081 
	C411.311005,427.779877 409.117706,425.641846 409.093353,421.038635 
	C409.048431,412.539978 409.059265,404.040802 409.090302,395.541992 
	C409.101593,392.457458 408.317139,389.001770 412.627228,387.796265 
	C416.602203,386.684479 419.817627,387.491974 421.552185,390.411438 
	C425.704773,389.186707 429.678131,386.828369 433.294464,387.286713 
	C436.812012,387.732513 439.963776,391.064301 443.194031,393.077667 
	C445.673920,391.455963 448.939728,389.320282 452.615173,387.113586 
z"/>
<path fill="#FBFEFD" opacity="1.000000" stroke="none" 
	d="
M407.974060,66.998795 
	C409.520386,69.276756 411.691040,71.434296 411.719513,73.619759 
	C411.982239,93.777397 411.901611,113.939919 411.856018,134.100876 
	C411.844391,139.240219 409.558044,141.146637 403.820679,141.143692 
	C398.062500,141.140762 395.926605,139.296814 395.915497,134.083496 
	C395.881012,117.926598 395.902893,101.769577 395.902893,85.214951 
	C394.931580,85.453072 394.227875,85.776871 393.527985,85.768845 
	C391.412750,85.744614 388.177399,86.377716 387.432556,85.315002 
	C386.129333,83.455765 385.496185,80.276848 386.123779,78.094048 
	C387.370544,73.757599 402.958405,66.081367 407.974060,66.998795 
z"/>
<path fill="#FAFEFD" opacity="1.000000" stroke="none" 
	d="
M260.754456,426.700195 
	C254.415131,428.424805 252.689041,427.780029 250.506470,423.542236 
	C246.922333,425.145538 243.512115,427.364960 239.794205,428.179047 
	C233.486526,429.560150 228.673737,426.200287 227.291321,420.406372 
	C225.785889,414.096893 228.564697,408.343262 234.448486,406.269226 
	C236.920181,405.397919 239.620300,405.113953 242.242416,404.747894 
	C244.677444,404.407898 247.146805,404.314056 249.604370,404.111572 
	C248.829117,397.810944 244.517975,395.662750 237.863998,398.360443 
	C234.597443,399.684814 231.683319,401.546844 229.805099,396.757843 
	C228.298355,392.915985 229.501602,389.699677 234.595566,388.774506 
	C240.452667,387.710754 246.807419,387.355194 252.595306,388.486420 
	C258.998016,389.737854 262.488892,395.143585 262.846954,401.715881 
	C263.226654,408.684723 263.073029,415.689941 262.917114,422.674011 
	C262.888367,423.961304 261.738678,425.223511 260.754456,426.700195 
M242.760925,418.867828 
	C247.507263,418.690369 249.057678,415.526459 250.191391,409.834381 
	C246.380615,411.310089 243.457794,412.181335 240.905762,413.682770 
	C240.472717,413.937592 241.632416,416.899567 242.760925,418.867828 
z"/>
<path fill="#F7FDFC" opacity="1.000000" stroke="none" 
	d="
M371.831238,425.310913 
	C365.660217,421.098450 363.097046,415.481049 363.239410,408.457275 
	C363.333893,403.794373 363.228333,399.127716 363.266052,394.463196 
	C363.306274,389.489502 365.459717,387.234894 370.019470,387.291199 
	C374.569153,387.347382 376.505585,389.512329 376.543121,394.681580 
	C376.579407,399.679352 376.523376,404.677948 376.578461,409.675415 
	C376.622070,413.630188 378.190063,416.557861 382.495361,416.945282 
	C386.091919,417.268921 388.727631,414.182892 388.830658,409.561554 
	C388.953156,404.066406 388.984497,398.563171 388.831024,393.069702 
	C388.699677,388.367401 391.910217,387.406311 395.357208,387.370819 
	C398.803955,387.335327 402.095245,388.236237 402.007416,392.926819 
	C401.916992,397.756531 401.609497,402.624878 402.058258,407.414337 
	C403.644257,424.340759 385.156708,433.722412 371.831238,425.310913 
z"/>
<path fill="#F8FDFC" opacity="1.000000" stroke="none" 
	d="
M209.671280,427.303925 
	C200.800385,424.625793 198.238708,421.345001 198.153503,412.490356 
	C198.044724,401.185608 198.121307,389.878998 198.122589,378.573212 
	C198.123489,370.741089 199.144608,369.775452 207.562149,370.002380 
	C209.097153,372.161377 210.780289,374.240509 211.173767,376.540283 
	C211.724014,379.756500 211.312546,383.137268 211.312546,387.238190 
	C214.186462,387.238190 216.769821,387.274658 219.351746,387.229248 
	C222.777084,387.169006 224.114288,389.020508 224.054871,392.213898 
	C223.998367,395.249512 222.491806,396.794952 219.410934,396.764771 
	C216.949417,396.740662 214.487473,396.759888 211.379578,396.759888 
	C211.379578,402.604523 211.170486,408.017426 211.543716,413.389832 
	C211.625168,414.562195 213.636642,415.895660 215.039261,416.585785 
	C216.122437,417.118683 217.998871,416.262970 218.896637,416.902832 
	C220.815048,418.270294 223.250809,419.957367 223.794708,421.967957 
	C224.657394,425.156982 222.273727,427.350189 219.040573,427.604980 
	C216.092758,427.837341 213.094452,427.429474 209.671280,427.303925 
z"/>
<path fill="#F9FDFD" opacity="1.000000" stroke="none" 
	d="
M271.517700,415.288757 
	C273.398224,415.645203 274.929443,416.163422 276.467041,416.662048 
	C278.663940,417.374420 280.870667,418.631836 283.063538,418.611542 
	C285.061981,418.593048 287.047577,417.181854 289.038849,416.384552 
	C287.549011,415.110321 286.234222,413.473206 284.526947,412.649811 
	C282.161438,411.508942 279.464020,411.080383 276.974548,410.167328 
	C272.075134,408.370422 269.387878,404.879669 269.533264,399.557739 
	C269.678619,394.236725 272.127716,390.160675 277.138519,388.292145 
	C283.454041,385.937073 289.892426,386.280823 296.108429,388.934021 
	C299.035431,390.183380 300.752533,392.113190 299.081787,395.594696 
	C297.608521,398.664673 295.686157,399.549347 292.257965,398.402679 
	C289.368256,397.436157 286.155273,397.338745 283.067261,397.144043 
	C282.444519,397.104797 281.287781,398.305756 281.207184,399.027618 
	C281.133698,399.685974 282.041504,400.860077 282.768097,401.129639 
	C285.562012,402.166168 288.485657,402.846466 291.308258,403.813385 
	C298.156067,406.159027 301.363983,410.600281 300.727539,416.679535 
	C300.059296,423.062225 295.939575,427.573975 288.835968,427.941223 
	C283.676666,428.207886 278.175385,427.650330 273.295013,426.040344 
	C267.329590,424.072388 266.947937,420.316162 271.517700,415.288757 
z"/>
<path fill="#F9FDFD" opacity="1.000000" stroke="none" 
	d="
M306.456909,395.888977 
	C310.907959,386.712402 326.741547,383.441101 334.197815,390.083282 
	C335.348633,391.108398 335.893066,394.268066 335.164551,395.574097 
	C334.291687,397.138885 331.814026,398.448608 329.916016,398.624634 
	C327.945801,398.807373 325.861328,397.081299 323.783417,396.964874 
	C321.607361,396.842896 319.379669,397.642212 317.174561,398.038879 
	C317.124573,398.752838 317.074585,399.466797 317.024597,400.180756 
	C319.997192,401.177063 322.945709,402.253601 325.946991,403.154358 
	C334.366333,405.681183 338.288696,410.163086 336.778625,417.259033 
	C336.097382,420.460297 333.805145,424.364655 331.087982,425.886963 
	C323.494873,430.141022 315.411682,429.413300 307.815735,425.167572 
	C304.739777,423.448303 303.950775,420.752808 305.687897,417.532990 
	C307.610596,413.969269 309.945557,415.299957 312.804657,416.488922 
	C315.762939,417.719147 319.105621,418.217346 322.327484,418.503845 
	C323.294037,418.589783 324.419098,416.893707 325.471558,416.014038 
	C324.643494,415.075928 323.990784,413.731995 322.951416,413.282867 
	C320.682007,412.302216 318.207947,411.802216 315.831726,411.060303 
	C307.539551,408.471375 305.311005,404.995392 306.456909,395.888977 
z"/>
<path fill="#FBFEFE" opacity="1.000000" stroke="none" 
	d="
M356.162964,401.030151 
	C356.162018,408.157532 355.987946,414.796906 356.217987,421.422211 
	C356.384888,426.229156 353.450653,427.600250 349.682159,427.628113 
	C345.937012,427.655823 342.915985,426.391174 342.997894,421.569336 
	C343.158417,412.119537 343.155090,402.663330 342.999725,393.213348 
	C342.918671,388.283661 346.082886,387.302155 349.798370,387.363098 
	C353.282318,387.420227 356.482605,388.381256 356.187317,393.075317 
	C356.031433,395.552979 356.161835,398.048584 356.162964,401.030151 
z"/>
<path fill="#F6FCFC" opacity="1.000000" stroke="none" 
	d="
M344.996460,377.861450 
	C344.350616,375.232391 343.046234,372.352386 343.940765,370.585999 
	C344.784241,368.920502 347.916656,367.669312 350.089203,367.594055 
	C353.458221,367.477386 356.249725,369.431671 356.311279,373.252228 
	C356.376465,377.297546 353.655273,379.165558 349.953796,379.355988 
	C348.427612,379.434509 346.851624,378.545685 344.996460,377.861450 
z"/>
<path fill="#FCFEFE" opacity="1.000000" stroke="none" 
	d="
M131.910583,405.182800 
	C128.811752,405.207581 126.181412,405.207581 122.887405,405.207581 
	C122.887405,410.939758 122.716751,416.207947 122.937492,421.459656 
	C123.140602,426.291809 120.184425,427.596405 116.349709,427.632629 
	C112.603081,427.667999 109.525688,426.713715 109.567924,421.745941 
	C109.710854,404.934052 109.663849,388.119995 109.592712,371.307190 
	C109.576691,367.519745 111.265839,365.749298 114.971176,365.770599 
	C121.462105,365.807861 127.961067,365.667358 134.442062,365.943665 
	C145.655746,366.421722 151.880737,373.181885 152.026169,384.671326 
	C152.180664,396.876129 146.150925,404.037354 134.872726,405.032410 
	C134.044281,405.105499 133.210434,405.117584 131.910583,405.182800 
M137.585114,391.910492 
	C141.624390,380.304413 136.773575,375.449860 123.201118,377.749939 
	C123.201118,383.399628 123.201118,389.080444 123.201118,396.235046 
	C128.249512,394.899506 132.672852,393.729309 137.585114,391.910492 
z"/>
<path fill="#FBFDFE" opacity="1.000000" stroke="none" 
	d="
M191.580460,415.057800 
	C185.322617,429.608643 168.535660,432.991730 158.454102,422.090454 
	C152.255310,415.387604 151.744690,401.404663 157.436325,394.218750 
	C163.465179,386.607086 174.630081,384.560669 183.118164,389.634430 
	C188.780716,393.019257 192.174774,397.912720 192.164459,404.712921 
	C192.159424,408.032196 191.885971,411.351044 191.580460,415.057800 
M167.259903,402.415466 
	C167.150146,405.213257 166.846527,408.020294 166.979126,410.806549 
	C167.149460,414.385101 169.089584,416.874084 172.803040,416.924133 
	C176.754898,416.977417 178.711365,414.429047 179.024597,410.632751 
	C179.160110,408.990540 179.561081,407.117523 178.965805,405.723145 
	C177.898132,403.222260 176.645416,399.976501 174.557739,399.007446 
	C173.014206,398.290955 170.022797,400.693634 167.259903,402.415466 
z"/>
<path fill="#12B8A2" opacity="1.000000" stroke="none" 
	d="
M439.368286,81.335739 
	C445.088593,78.667953 449.834412,79.114975 452.487579,82.301750 
	C455.172668,85.526802 455.901031,94.508255 452.810760,97.327110 
	C450.646484,99.301331 446.937836,100.648773 444.053680,100.437416 
	C441.653473,100.261528 438.350800,97.880867 437.387543,95.642159 
	C435.387360,90.993744 435.406372,85.890213 439.368286,81.335739 
z"/>
<path fill="#1BBBA6" opacity="1.000000" stroke="none" 
	d="
M242.408600,418.739319 
	C241.632416,416.899567 240.472717,413.937592 240.905762,413.682770 
	C243.457794,412.181335 246.380615,411.310089 250.191391,409.834381 
	C249.057678,415.526459 247.507263,418.690369 242.408600,418.739319 
z"/>
<path fill="#0F99A6" opacity="1.000000" stroke="none" 
	d="
M137.340652,392.234802 
	C132.672852,393.729309 128.249512,394.899506 123.201118,396.235046 
	C123.201118,389.080444 123.201118,383.399628 123.201118,377.749939 
	C136.773575,375.449860 141.624390,380.304413 137.340652,392.234802 
z"/>
<path fill="#0F98A6" opacity="1.000000" stroke="none" 
	d="
M167.468170,402.061096 
	C170.022797,400.693634 173.014206,398.290955 174.557739,399.007446 
	C176.645416,399.976501 177.898132,403.222260 178.965805,405.723145 
	C179.561081,407.117523 179.160110,408.990540 179.024597,410.632751 
	C178.711365,414.429047 176.754898,416.977417 172.803040,416.924133 
	C169.089584,416.874084 167.149460,414.385101 166.979126,410.806549 
	C166.846527,408.020294 167.150146,405.213257 167.468170,402.061096 
z"/>
</svg>