<svg version="1.1" id="Layer_1" xmlns="http://www.w3.org/2000/svg" xmlns:xlink="http://www.w3.org/1999/xlink" x="0px" y="0px"
	 width="100%" viewBox="0 0 512 512" enable-background="new 0 0 512 512" xml:space="preserve">
<path fill="#010000" opacity="1.000000" stroke="none" 
	d="
M1.000000,183.000000 
	C1.,122.000000 1.000000,61.500000 1.000000,1.000000 
	C171.666672,1.000000 342.333344,1.000000 513.000000,1.000000 
	C513.000000,171.666672 513.000000,342.333344 513.000000,513.000000 
	C342.333344,513.000000 171.666672,513.000000 1.000000,513.000000 
	C1.000000,403.166656 1.000000,293.333344 1.000000,183.000000 
M222.596832,169.910538 
	C215.643829,162.960876 208.695862,156.006149 201.736160,149.063217 
	C196.612274,143.951706 189.938049,143.313507 183.922119,147.324600 
	C170.483948,156.284424 156.961639,165.121567 143.645630,174.259323 
	C139.010696,177.439941 135.018616,177.678253 130.442368,174.298508 
	C125.491608,170.642212 120.341034,167.214172 115.026558,164.117432 
	C113.350525,163.140808 110.581360,162.789398 108.797577,163.453934 
	C98.198456,167.402573 87.714622,171.667465 77.250282,175.967789 
	C73.004791,177.712448 69.547562,176.974274 66.377937,173.722839 
	C61.609737,168.831543 56.164009,164.483932 52.038826,159.112259 
	C46.926796,152.455566 40.588474,152.347504 33.413849,153.368805 
	C33.413849,199.827377 33.413849,246.131332 33.413849,292.435303 
	C33.784363,292.668671 34.154877,292.902069 34.525391,293.135468 
	C36.471245,290.864258 38.478561,288.642365 40.349426,286.311005 
	C43.631561,282.220947 47.724247,280.647675 53.036346,280.902435 
	C60.849625,281.277130 68.704178,280.764954 76.521233,281.097961 
	C80.418709,281.264008 84.498528,281.887604 88.108253,283.296997 
	C110.425682,292.010681 132.654953,300.952423 154.850739,309.972839 
	C157.885956,311.206360 159.934158,311.175354 162.240021,308.566742 
	C165.764526,304.579468 170.078339,301.261383 173.403107,297.132629 
	C178.693893,290.562378 185.222153,289.190857 193.436600,288.645691 
	C206.858017,287.755035 217.441925,290.904938 225.586807,301.948669 
	C226.923798,303.761475 230.353699,304.828674 232.838013,304.867889 
	C248.996338,305.123047 265.163086,305.151031 281.321289,304.891907 
	C285.355408,304.827240 289.805542,304.299133 293.319763,302.516174 
	C315.706940,291.157654 339.245453,286.394897 364.225800,289.029846 
	C368.150757,289.443817 372.186798,289.786926 375.908264,290.982269 
	C394.283020,296.884430 412.800049,302.456390 430.818665,309.321381 
	C447.301727,315.601257 463.988251,311.558655 480.632263,313.189697 
	C480.632263,262.034393 480.632263,211.665985 480.632263,161.001022 
	C461.457642,161.001022 442.581696,160.016754 423.858734,161.287094 
	C406.310364,162.477737 391.104248,158.972595 377.791229,147.310425 
	C376.031006,145.768478 372.958557,145.133698 370.479889,145.099838 
	C355.819855,144.899658 341.093658,145.835251 326.511658,144.750046 
	C313.715942,143.797806 303.606750,146.565414 295.812958,157.221085 
	C294.260956,159.343002 290.260559,161.067352 287.646576,160.763184 
	C279.140015,159.773346 272.857513,162.648254 267.940460,169.360840 
	C267.064728,170.556366 265.767242,171.433731 264.799103,172.572479 
	C262.013885,175.848495 258.613159,177.289124 254.237030,177.063232 
	C249.085480,176.797318 243.871719,176.606750 238.753845,177.099350 
	C232.137527,177.736145 227.027679,175.664871 222.596832,169.910538 
M161.500000,480.999420 
	C267.896912,480.999420 374.293823,480.999420 480.699951,480.999420 
	C480.699951,429.978241 480.699951,379.731659 480.699951,329.000610 
	C477.448456,329.000610 474.469299,328.774963 471.533539,329.036682 
	C449.874542,330.967499 429.151855,327.301392 409.192169,318.868286 
	C407.968323,318.351227 406.688660,317.958710 405.419342,317.557831 
	C386.024323,311.432495 367.365448,302.860443 345.975891,304.676910 
	C335.773743,305.543335 325.944916,306.030945 316.540283,310.552124 
	C309.807220,313.789032 302.736145,316.376038 295.677216,318.858704 
	C292.304016,320.045044 288.614929,320.866943 285.058136,320.907471 
	C267.230682,321.110565 249.391266,320.683899 231.574020,321.156372 
	C224.442673,321.345490 218.731400,319.775208 214.646835,313.913696 
	C209.213638,306.116821 201.772766,303.424866 192.699036,305.084198 
	C190.140594,305.552002 187.257141,306.465668 185.402420,308.145844 
	C179.605194,313.397522 174.079254,318.974030 168.738052,324.695251 
	C164.779861,328.935059 160.794296,329.667694 155.353134,327.438110 
	C131.639114,317.720886 107.811653,308.278351 83.963493,298.893402 
	C81.110359,297.770599 77.890175,297.164154 74.821198,297.088776 
	C67.341255,296.905029 59.011814,295.158752 52.599262,297.826752 
	C46.179291,300.497864 41.777149,307.877014 36.275284,312.959503 
	C33.718849,315.321075 32.923698,317.854614 32.930462,321.274719 
	C33.031967,372.597595 33.000751,423.920776 33.000751,475.243866 
	C33.000751,477.016235 33.000748,478.788605 33.000748,480.999420 
	C75.924049,480.999420 118.212021,480.999420 161.500000,480.999420 
M95.079620,151.594635 
	C99.548851,149.785645 104.056755,148.065414 108.475403,146.140305 
	C112.189888,144.521957 115.496925,144.898483 118.817039,147.214111 
	C123.730469,150.640976 128.888718,153.724564 133.717789,157.261444 
	C136.149414,159.042374 137.856781,158.953278 140.301437,157.271133 
	C149.900696,150.665939 160.025208,144.770096 169.255997,137.698807 
	C178.194321,130.851562 187.645950,127.138550 198.787735,129.120453 
	C202.147141,129.718033 205.890213,131.046051 208.350784,133.266129 
	C215.639114,139.842072 222.711365,146.732529 229.214325,154.078735 
	C233.900970,159.373093 238.880310,161.581436 246.034332,161.243912 
	C251.403198,160.990631 255.579407,160.062134 259.014099,155.777893 
	C261.292664,152.935745 263.920868,150.261017 266.811005,148.061111 
	C268.793060,146.552460 271.668549,144.862015 273.843628,145.198547 
	C282.993378,146.614166 289.491577,142.943695 294.751709,135.965088 
	C295.545959,134.911362 296.698151,134.133759 297.547638,133.114166 
	C300.216919,129.910370 303.585724,128.895172 307.719788,128.936920 
	C323.211884,129.093445 338.787415,129.992355 354.178802,128.737503 
	C371.734253,127.306213 386.908875,131.087234 400.238800,142.677887 
	C402.007080,144.215454 405.067108,144.884674 407.536499,144.902451 
	C430.359314,145.066788 453.183807,144.999435 476.007812,144.999435 
	C477.594574,144.999435 479.181305,144.999435 480.800171,144.999435 
	C480.800171,108.164070 480.800171,72.051468 480.800171,35.509575 
	C478.923676,35.924099 477.317810,36.243118 475.729950,36.635136 
	C460.074921,40.500137 444.456757,44.525715 428.738464,48.112827 
	C425.939697,48.751541 422.418823,48.288116 419.766479,47.119324 
	C411.859131,43.634895 404.295349,39.375050 396.416809,35.818008 
	C394.519440,34.961369 391.585327,34.907063 389.707703,35.759972 
	C381.688690,39.402565 374.000946,43.783203 365.940186,47.319870 
	C363.329987,48.465099 359.751160,48.619259 356.960785,47.895401 
	C350.218018,46.146229 343.555054,43.921757 337.081909,41.333717 
	C320.954132,34.885658 304.421356,31.213806 286.973053,33.047176 
	C284.409180,33.316574 281.701874,33.779671 279.417053,34.887505 
	C266.549164,41.126656 253.674927,47.373302 241.047119,54.077484 
	C235.500366,57.022289 230.801178,57.304096 225.195190,54.152401 
	C216.360352,49.185436 206.813370,45.459942 198.100098,40.308628 
	C188.120728,34.408783 177.774719,32.307129 166.268173,32.785229 
	C158.345047,33.114429 150.910858,34.072014 143.498535,37.007240 
	C127.115616,43.494766 110.514305,49.428719 94.061226,55.742603 
	C89.962044,57.315674 86.487236,56.983250 82.754005,54.626324 
	C74.453629,49.385983 65.600357,44.953686 57.649132,39.248882 
	C50.969536,34.456432 44.878448,33.802704 37.462925,37.064774 
	C33.936737,38.615932 32.888451,40.150883 32.909302,43.871933 
	C33.073589,73.192375 32.996918,102.514145 33.010357,131.835510 
	C33.011097,133.444122 33.153847,135.052673 33.246613,136.999542 
	C37.562000,136.999542 41.551105,137.251663 45.494709,136.935760 
	C50.429653,136.540451 54.063412,138.363495 57.366528,141.923340 
	C62.235302,147.170517 67.325943,152.233841 72.619965,157.047882 
	C73.833092,158.151031 76.503830,158.676743 78.083031,158.166397 
	C83.609161,156.380478 88.951347,154.025360 95.079620,151.594635 
z"/>
<path fill="#C47220" opacity="1.000000" stroke="none" 
	d="
M222.847839,170.162201 
	C227.027679,175.664871 232.137527,177.736145 238.753845,177.099350 
	C243.871719,176.606750 249.085480,176.797318 254.237030,177.063232 
	C258.613159,177.289124 262.013885,175.848495 264.799103,172.572479 
	C265.767242,171.433731 267.064728,170.556366 267.940460,169.360840 
	C272.857513,162.648254 279.140015,159.773346 287.646576,160.763184 
	C290.260559,161.067352 294.260956,159.343002 295.812958,157.221085 
	C303.606750,146.565414 313.715942,143.797806 326.511658,144.750046 
	C341.093658,145.835251 355.819855,144.899658 370.479889,145.099838 
	C372.958557,145.133698 376.031006,145.768478 377.791229,147.310425 
	C391.104248,158.972595 406.310364,162.477737 423.858734,161.287094 
	C442.581696,160.016754 461.457642,161.001022 480.632263,161.001022 
	C480.632263,211.665985 480.632263,262.034393 480.632263,313.189697 
	C463.988251,311.558655 447.301727,315.601257 430.818665,309.321381 
	C412.800049,302.456390 394.283020,296.884430 375.908264,290.982269 
	C372.186798,289.786926 368.150757,289.443817 364.225800,289.029846 
	C339.245453,286.394897 315.706940,291.157654 293.319763,302.516174 
	C289.805542,304.299133 285.355408,304.827240 281.321289,304.891907 
	C265.163086,305.151031 248.996338,305.123047 232.838013,304.867889 
	C230.353699,304.828674 226.923798,303.761475 225.586807,301.948669 
	C217.441925,290.904938 206.858017,287.755035 193.436600,288.645691 
	C185.222153,289.190857 178.693893,290.562378 173.403107,297.132629 
	C170.078339,301.261383 165.764526,304.579468 162.240021,308.566742 
	C159.934158,311.175354 157.885956,311.206360 154.850739,309.972839 
	C132.654953,300.952423 110.425682,292.010681 88.108253,283.296997 
	C84.498528,281.887604 80.418709,281.264008 76.521233,281.097961 
	C68.704178,280.764954 60.849625,281.277130 53.036346,280.902435 
	C47.724247,280.647675 43.631561,282.220947 40.349426,286.311005 
	C38.478561,288.642365 36.471245,290.864258 34.525391,293.135468 
	C34.154877,292.902069 33.784363,292.668671 33.413849,292.435303 
	C33.413849,246.131332 33.413849,199.827377 33.413849,153.368805 
	C40.588474,152.347504 46.926796,152.455566 52.038826,159.112259 
	C56.164009,164.483932 61.609737,168.831543 66.377937,173.722839 
	C69.547562,176.974274 73.004791,177.712448 77.250282,175.967789 
	C87.714622,171.667465 98.198456,167.402573 108.797577,163.453934 
	C110.581360,162.789398 113.350525,163.140808 115.026558,164.117432 
	C120.341034,167.214172 125.491608,170.642212 130.442368,174.298508 
	C135.018616,177.678253 139.010696,177.439941 143.645630,174.259323 
	C156.961639,165.121567 170.483948,156.284424 183.922119,147.324600 
	C189.938049,143.313507 196.612274,143.951706 201.736160,149.063217 
	C208.695862,156.006149 215.643829,162.960876 222.847839,170.162201 
M304.814667,216.162140 
	C304.814667,211.249069 304.814667,206.335999 304.814667,201.340332 
	C296.712677,201.340332 289.027466,201.340332 281.395966,201.340332 
	C281.395966,206.717300 281.395966,211.748108 281.395966,216.822159 
	C289.238464,216.822159 296.685974,216.822159 304.814667,216.162140 
M417.420166,256.999634 
	C419.837585,256.999634 422.254974,256.999634 424.601562,256.999634 
	C424.601562,251.274658 424.601562,246.245041 424.601562,241.260406 
	C416.635712,241.260406 409.070740,241.260406 401.313477,241.260406 
	C401.313477,246.548111 401.313477,251.573059 401.313477,256.999634 
	C406.560394,256.999634 411.502106,256.999634 417.420166,256.999634 
M88.964180,255.209045 
	C88.964180,250.618668 88.964180,246.028305 88.964180,241.329559 
	C80.734703,241.329559 73.050034,241.329559 65.385071,241.329559 
	C65.385071,246.694275 65.385071,251.724258 65.385071,257.396332 
	C73.468826,256.965637 81.143814,256.556702 88.964180,255.209045 
M305.035828,234.790939 
	C305.035828,239.381317 305.035828,243.971695 305.035828,248.670471 
	C313.265259,248.670471 320.949951,248.670471 328.614960,248.670471 
	C328.614960,243.303864 328.614960,238.276505 328.614960,232.603638 
	C320.531219,233.034332 312.856201,233.443268 305.035828,234.790939 
M169.000381,207.561508 
	C169.000381,210.631897 169.000381,213.702301 169.000381,216.743240 
	C177.353745,216.743240 184.920181,216.743240 192.688599,216.743240 
	C192.688599,211.458313 192.688599,206.432327 192.688599,201.352127 
	C184.688843,201.352127 177.004425,201.352127 169.000427,201.352127 
	C169.000427,203.332916 169.000427,204.970032 169.000381,207.561508 
M395.519226,193.000381 
	C392.109253,193.000381 388.699310,193.000381 385.412720,193.000381 
	C385.412720,198.756912 385.412720,203.786713 385.412720,208.726685 
	C393.392517,208.726685 400.956879,208.726685 408.674438,208.726685 
	C408.674438,203.425842 408.674438,198.401337 408.674438,193.000381 
	C404.405060,193.000381 400.456512,193.000381 395.519226,193.000381 
M97.864418,193.178833 
	C97.478851,198.307587 97.093292,203.436356 96.701859,208.643219 
	C105.322250,208.643219 113.007416,208.643219 120.587830,208.643219 
	C120.587830,203.246262 120.587830,198.215927 120.587830,193.035233 
	C113.053741,193.035233 105.930122,193.035233 97.864418,193.178833 
M456.999359,261.645569 
	C456.900909,260.214050 456.802429,258.782501 456.705414,257.371948 
	C451.320404,257.371948 446.296356,257.371948 441.418701,257.371948 
	C441.418701,262.778931 441.418701,267.806183 441.418701,272.710266 
	C446.748077,272.710266 451.654724,272.710266 456.999603,272.710266 
	C456.999603,269.154022 456.999603,265.880676 456.999359,261.645569 
M217.859985,249.179840 
	C217.475174,254.304779 217.090347,259.429718 216.698975,264.642029 
	C222.648499,264.642029 227.672028,264.642029 232.594391,264.642029 
	C232.594391,259.249908 232.594391,254.222702 232.594391,249.035492 
	C227.726883,249.035492 223.263489,249.035492 217.859985,249.179840 
M144.964371,255.207642 
	C144.964371,250.621216 144.964371,246.034775 144.964371,241.330475 
	C139.409286,241.330475 134.386902,241.330475 129.378494,241.330475 
	C129.378494,246.693237 129.378494,251.715988 129.378494,257.384735 
	C134.799759,256.949738 139.809769,256.547729 144.964371,255.207642 
z"/>
<path fill="#B66514" opacity="1.000000" stroke="none" 
	d="
M161.000000,480.999420 
	C118.212021,480.999420 75.924049,480.999420 33.000748,480.999420 
	C33.000748,478.788605 33.000751,477.016235 33.000751,475.243866 
	C33.000751,423.920776 33.031967,372.597595 32.930462,321.274719 
	C32.923698,317.854614 33.718849,315.321075 36.275284,312.959503 
	C41.777149,307.877014 46.179291,300.497864 52.599262,297.826752 
	C59.011814,295.158752 67.341255,296.905029 74.821198,297.088776 
	C77.890175,297.164154 81.110359,297.770599 83.963493,298.893402 
	C107.811653,308.278351 131.639114,317.720886 155.353134,327.438110 
	C160.794296,329.667694 164.779861,328.935059 168.738052,324.695251 
	C174.079254,318.974030 179.605194,313.397522 185.402420,308.145844 
	C187.257141,306.465668 190.140594,305.552002 192.699036,305.084198 
	C201.772766,303.424866 209.213638,306.116821 214.646835,313.913696 
	C218.731400,319.775208 224.442673,321.345490 231.574020,321.156372 
	C249.391266,320.683899 267.230682,321.110565 285.058136,320.907471 
	C288.614929,320.866943 292.304016,320.045044 295.677216,318.858704 
	C302.736145,316.376038 309.807220,313.789032 316.540283,310.552124 
	C325.944916,306.030945 335.773743,305.543335 345.975891,304.676910 
	C367.365448,302.860443 386.024323,311.432495 405.419342,317.557831 
	C406.688660,317.958710 407.968323,318.351227 409.192169,318.868286 
	C429.151855,327.301392 449.874542,330.967499 471.533539,329.036682 
	C474.469299,328.774963 477.448456,329.000610 480.699951,329.000610 
	C480.699951,379.731659 480.699951,429.978241 480.699951,480.999420 
	C374.293823,480.999420 267.896912,480.999420 161.000000,480.999420 
M126.540642,442.024109 
	C133.824112,436.202667 141.300156,430.599243 148.279770,424.433838 
	C150.525009,422.450500 152.540359,419.077057 152.785965,416.180573 
	C153.416855,408.740326 153.098465,401.209106 152.963715,393.717804 
	C152.863159,388.127869 149.821182,385.167603 144.211105,385.024231 
	C139.551300,384.905151 134.868469,384.744415 130.228607,385.069641 
	C126.068748,385.361206 123.183205,383.960083 120.202347,381.003326 
	C105.323769,366.244995 112.226189,369.362396 90.859230,368.996368 
	C90.526299,368.990662 90.153343,368.899200 89.866341,369.014771 
	C87.475708,369.977722 84.566841,370.413849 82.813377,372.067932 
	C75.064171,379.378174 67.669395,387.063019 60.102787,394.568420 
	C56.859764,397.785248 56.166592,401.295135 58.248650,405.433777 
	C66.024849,420.890991 73.751945,436.372925 81.480904,451.853821 
	C83.219177,455.335571 86.026871,456.648407 89.867249,457.081268 
	C101.748024,458.420410 112.259514,456.205139 120.570259,446.879852 
	C122.099403,445.163971 124.167870,443.928741 126.540642,442.024109 
M293.460266,408.025909 
	C291.904785,404.898285 290.310760,401.789124 288.803284,398.638519 
	C286.751770,394.351013 283.470520,392.522827 278.707123,393.134979 
	C258.086212,395.785034 237.454102,398.348083 216.834686,401.009613 
	C210.715668,401.799408 207.765411,406.213715 209.664566,412.073364 
	C214.739731,427.732239 219.925369,443.356659 225.242142,458.935059 
	C227.059479,464.259979 231.066498,466.151398 236.325073,464.211853 
	C257.224731,456.503204 278.097229,448.718597 298.917908,440.799469 
	C304.888550,438.528503 306.397888,434.192413 303.595551,428.340027 
	C300.435150,421.739838 297.086792,415.229584 293.460266,408.025909 
M444.237549,453.735046 
	C448.805908,452.196930 453.344116,450.560394 457.950775,449.147095 
	C462.971375,447.606842 465.100891,444.362305 465.051727,439.122803 
	C464.915955,424.644775 465.027863,410.164642 464.997162,395.685455 
	C464.976685,386.025726 459.698273,382.733856 451.070343,387.027679 
	C436.481201,394.288239 421.913788,401.592651 407.357056,408.917999 
	C400.254181,412.492371 399.120270,416.995941 403.780457,423.313690 
	C409.607452,431.213318 415.531189,439.041565 421.417694,446.897186 
	C430.063660,458.435150 430.065338,458.433899 444.237549,453.735046 
M232.739212,359.090393 
	C232.109390,357.925964 231.706482,356.538147 230.814316,355.632080 
	C222.751953,347.443726 214.719879,339.218811 206.427353,331.266998 
	C202.810486,327.798737 198.717621,328.176239 194.865540,331.873169 
	C189.819214,336.716278 184.734146,341.553436 180.115921,346.790192 
	C178.416565,348.717163 177.223541,351.747620 177.134293,354.321014 
	C176.793930,364.136932 176.897110,373.973083 177.030045,383.799011 
	C177.137085,391.708466 183.171387,395.254120 189.982422,391.275787 
	C202.775070,383.803558 215.414398,376.069061 228.127716,368.460693 
	C231.401230,366.501648 233.296249,363.822449 232.739212,359.090393 
M352.493958,386.994049 
	C353.871002,386.062683 355.227356,385.098877 356.628632,384.205475 
	C362.890961,380.212860 360.891602,373.903717 360.854156,368.315979 
	C360.825958,364.109009 357.579132,362.145752 353.954590,360.716614 
	C341.745758,355.902740 329.597992,350.933685 317.382202,346.137726 
	C311.399567,343.788879 308.092560,345.123322 305.125793,350.853058 
	C302.833862,355.279480 300.738678,359.808624 298.410278,364.215118 
	C296.155975,368.481445 296.751770,372.127594 300.166260,375.506226 
	C307.614227,382.876038 314.952454,390.356995 322.419647,397.707123 
	C326.521210,401.744324 329.601898,402.061554 334.433258,398.962463 
	C340.308990,395.193451 346.078674,391.259155 352.493958,386.994049 
M152.999100,457.473785 
	C152.999100,454.727417 152.999100,451.981049 152.999100,449.329224 
	C147.249710,449.329224 142.333420,449.329224 137.420776,449.329224 
	C137.420776,454.701508 137.420776,459.738953 137.420776,464.663971 
	C142.763779,464.663971 147.679993,464.663971 152.999084,464.663971 
	C152.999084,462.366882 152.999084,460.401123 152.999100,457.473785 
M368.953766,418.818451 
	C368.480316,418.248016 368.019531,417.194885 367.531433,417.182098 
	C362.784576,417.057617 358.033112,417.107208 353.306000,417.107208 
	C353.306000,422.700409 353.306000,427.618225 353.306000,432.600983 
	C358.653870,432.600983 363.691071,432.600983 368.989136,432.600983 
	C368.989136,428.058350 368.989136,423.910217 368.953766,418.818451 
M177.001358,437.658630 
	C177.001358,441.273743 177.001358,444.888885 177.001358,448.623291 
	C182.606934,448.623291 187.642410,448.623291 192.707047,448.623291 
	C192.707047,443.326385 192.707047,438.408539 192.707047,433.018005 
	C188.139557,433.018005 183.831543,432.798279 179.578918,433.186096 
	C178.621094,433.273438 177.856552,435.480042 177.001358,437.658630 
M329.000977,446.615051 
	C329.000977,449.900818 329.000977,453.186554 329.000977,456.639679 
	C334.574860,456.639679 339.607574,456.639679 344.724243,456.639679 
	C344.724243,451.361053 344.724243,446.444183 344.724243,441.266571 
	C339.536865,441.266571 334.620422,441.266571 329.324982,441.266571 
	C329.213623,442.777649 329.107483,444.218018 329.000977,446.615051 
M435.387817,368.999023 
	C437.145050,368.999023 438.902313,368.999023 440.717102,368.999023 
	C440.717102,363.346710 440.717102,358.429474 440.717102,353.375305 
	C435.393921,353.375305 430.360809,353.375305 425.291138,353.375305 
	C425.291138,358.670380 425.291138,363.587891 425.291138,368.999115 
	C428.527618,368.999115 431.481476,368.999115 435.387817,368.999023 
M251.761459,368.989197 
	C256.033569,368.989197 260.305664,368.989197 264.587036,368.989197 
	C264.587036,363.317169 264.587036,358.279083 264.587036,353.329651 
	C259.251099,353.329651 254.333755,353.329651 249.021988,353.329651 
	C249.021988,357.946869 248.928650,362.247803 249.103180,366.537872 
	C249.136826,367.365051 250.219757,368.149597 251.761459,368.989197 
M393.010803,339.761505 
	C393.010803,344.033600 393.010803,348.305695 393.010803,352.587036 
	C398.682831,352.587036 403.720947,352.587036 408.670349,352.587036 
	C408.670349,347.250610 408.670349,342.332947 408.670349,337.021973 
	C404.052765,337.021973 399.752045,336.928680 395.462158,337.103210 
	C394.634979,337.136841 393.850433,338.219757 393.010803,339.761505 
M82.439102,344.999115 
	C84.524925,344.999115 86.610756,344.999115 88.700653,344.999115 
	C88.700653,339.311218 88.700653,334.394257 88.700653,329.390778 
	C83.359581,329.390778 78.326271,329.390778 73.305786,329.390778 
	C73.305786,334.701996 73.305786,339.618713 73.305786,344.999146 
	C76.228348,344.999146 78.852470,344.999146 82.439102,344.999115 
z"/>
<path fill="#DB8638" opacity="1.000000" stroke="none" 
	d="
M94.721512,151.740540 
	C88.951347,154.025360 83.609161,156.380478 78.083031,158.166397 
	C76.503830,158.676743 73.833092,158.151031 72.619965,157.047882 
	C67.325943,152.233841 62.235302,147.170517 57.366528,141.923340 
	C54.063412,138.363495 50.429653,136.540451 45.494709,136.935760 
	C41.551105,137.251663 37.562000,136.999542 33.246613,136.999542 
	C33.153847,135.052673 33.011097,133.444122 33.010357,131.835510 
	C32.996918,102.514145 33.073589,73.192375 32.909302,43.871933 
	C32.888451,40.150883 33.936737,38.615932 37.462925,37.064774 
	C44.878448,33.802704 50.969536,34.456432 57.649132,39.248882 
	C65.600357,44.953686 74.453629,49.385983 82.754005,54.626324 
	C86.487236,56.983250 89.962044,57.315674 94.061226,55.742603 
	C110.514305,49.428719 127.115616,43.494766 143.498535,37.007240 
	C150.910858,34.072014 158.345047,33.114429 166.268173,32.785229 
	C177.774719,32.307129 188.120728,34.408783 198.100098,40.308628 
	C206.813370,45.459942 216.360352,49.185436 225.195190,54.152401 
	C230.801178,57.304096 235.500366,57.022289 241.047119,54.077484 
	C253.674927,47.373302 266.549164,41.126656 279.417053,34.887505 
	C281.701874,33.779671 284.409180,33.316574 286.973053,33.047176 
	C304.421356,31.213806 320.954132,34.885658 337.081909,41.333717 
	C343.555054,43.921757 350.218018,46.146229 356.960785,47.895401 
	C359.751160,48.619259 363.329987,48.465099 365.940186,47.319870 
	C374.000946,43.783203 381.688690,39.402565 389.707703,35.759972 
	C391.585327,34.907063 394.519440,34.961369 396.416809,35.818008 
	C404.295349,39.375050 411.859131,43.634895 419.766479,47.119324 
	C422.418823,48.288116 425.939697,48.751541 428.738464,48.112827 
	C444.456757,44.525715 460.074921,40.500137 475.729950,36.635136 
	C477.317810,36.243118 478.923676,35.924099 480.800171,35.509575 
	C480.800171,72.051468 480.800171,108.164070 480.800171,144.999435 
	C479.181305,144.999435 477.594574,144.999435 476.007812,144.999435 
	C453.183807,144.999435 430.359314,145.066788 407.536499,144.902451 
	C405.067108,144.884674 402.007080,144.215454 400.238800,142.677887 
	C386.908875,131.087234 371.734253,127.306213 354.178802,128.737503 
	C338.787415,129.992355 323.211884,129.093445 307.719788,128.936920 
	C303.585724,128.895172 300.216919,129.910370 297.547638,133.114166 
	C296.698151,134.133759 295.545959,134.911362 294.751709,135.965088 
	C289.491577,142.943695 282.993378,146.614166 273.843628,145.198547 
	C271.668549,144.862015 268.793060,146.552460 266.811005,148.061111 
	C263.920868,150.261017 261.292664,152.935745 259.014099,155.777893 
	C255.579407,160.062134 251.403198,160.990631 246.034332,161.243912 
	C238.880310,161.581436 233.900970,159.373093 229.214325,154.078735 
	C222.711365,146.732529 215.639114,139.842072 208.350784,133.266129 
	C205.890213,131.046051 202.147141,129.718033 198.787735,129.120453 
	C187.645950,127.138550 178.194321,130.851562 169.255997,137.698807 
	C160.025208,144.770096 149.900696,150.665939 140.301437,157.271133 
	C137.856781,158.953278 136.149414,159.042374 133.717789,157.261444 
	C128.888718,153.724564 123.730469,150.640976 118.817039,147.214111 
	C115.496925,144.898483 112.189888,144.521957 108.475403,146.140305 
	C104.056755,148.065414 99.548851,149.785645 94.721512,151.740540 
M49.000767,111.556793 
	C49.000767,114.639046 49.000767,117.721291 49.000767,120.757927 
	C57.341309,120.757927 64.933731,120.757927 72.707710,120.757927 
	C72.707710,115.467369 72.707710,110.421417 72.707710,105.337708 
	C64.701180,105.337708 56.990742,105.337708 49.000782,105.337708 
	C49.000782,107.315025 49.000782,108.957130 49.000767,111.556793 
M328.995361,67.722565 
	C328.349976,66.821861 327.724457,65.155411 327.056091,65.138062 
	C319.807343,64.949852 312.551880,65.020447 305.374207,65.020447 
	C305.374207,70.703583 305.374207,75.750946 305.374207,80.757622 
	C313.342346,80.757622 320.934540,80.757622 328.998627,80.757622 
	C328.998627,76.582077 328.998627,72.632660 328.995361,67.722565 
M448.995392,115.723221 
	C448.350983,114.822311 447.744507,113.176079 447.056061,113.141075 
	C442.479309,112.908386 437.884979,113.020500 433.372803,113.020500 
	C433.372803,118.704422 433.372803,123.753403 433.372803,128.756165 
	C438.676453,128.756165 443.605530,128.756165 448.998627,128.756165 
	C448.998627,124.579193 448.998627,120.631454 448.995392,115.723221 
M235.401184,128.999237 
	C237.163162,128.999237 238.925156,128.999237 240.632751,128.999237 
	C240.632751,123.307579 240.632751,118.259064 240.632751,113.238541 
	C235.334991,113.238541 230.405930,113.238541 225.286163,113.238541 
	C225.286163,118.523895 225.286163,123.568748 225.286163,128.999252 
	C228.525421,128.999252 231.484421,128.999252 235.401184,128.999237 
M348.684692,104.998627 
	C352.632996,104.998627 356.581268,104.998627 360.714508,104.998627 
	C360.714508,99.477585 360.714508,94.432701 360.714508,89.333199 
	C355.379700,89.333199 350.334290,89.333199 345.003937,89.333199 
	C345.003937,93.798157 344.825806,97.946495 345.128448,102.059464 
	C345.204712,103.096237 346.819183,104.019829 348.684692,104.998627 
M209.808258,88.852348 
	C214.740326,88.852348 219.672394,88.852348 224.674927,88.852348 
	C224.674927,83.397163 224.674927,78.351669 224.674927,73.373260 
	C219.294144,73.373260 214.247208,73.373260 209.143341,73.373260 
	C209.143341,78.553909 209.143341,83.362610 209.808258,88.852348 
M105.864120,77.560089 
	C105.864120,80.820847 105.864120,84.081604 105.864120,87.558105 
	C111.410164,87.558105 116.418427,87.558105 121.530586,87.558105 
	C121.530586,82.207626 121.530586,77.191994 121.530586,72.082031 
	C116.261566,72.082031 111.359001,72.082031 106.143379,72.082031 
	C106.042625,73.708702 105.953468,75.148254 105.864120,77.560089 
M425.001373,68.684708 
	C425.001373,72.632996 425.001373,76.581291 425.001373,80.714493 
	C430.522430,80.714493 435.567322,80.714493 440.666809,80.714493 
	C440.666809,75.378052 440.666809,70.333847 440.666809,65.003937 
	C436.203735,65.003937 432.054474,64.825790 427.940552,65.128395 
	C426.903778,65.204659 425.980194,66.819176 425.001373,68.684708 
z"/>
<path fill="#000000" opacity="1.000000" stroke="none" 
	d="
M304.474091,216.492157 
	C296.685974,216.822159 289.238464,216.822159 281.395966,216.822159 
	C281.395966,211.748108 281.395966,206.717300 281.395966,201.340332 
	C289.027466,201.340332 296.712677,201.340332 304.814667,201.340332 
	C304.814667,206.335999 304.814667,211.249069 304.474091,216.492157 
z"/>
<path fill="#000000" opacity="1.000000" stroke="none" 
	d="
M416.931976,256.999634 
	C411.502106,256.999634 406.560394,256.999634 401.313477,256.999634 
	C401.313477,251.573059 401.313477,246.548111 401.313477,241.260406 
	C409.070740,241.260406 416.635712,241.260406 424.601562,241.260406 
	C424.601562,246.245041 424.601562,251.274658 424.601562,256.999634 
	C422.254974,256.999634 419.837585,256.999634 416.931976,256.999634 
z"/>
<path fill="#000000" opacity="1.000000" stroke="none" 
	d="
M88.891495,255.678406 
	C81.143814,256.556702 73.468826,256.965637 65.385071,257.396332 
	C65.385071,251.724258 65.385071,246.694275 65.385071,241.329559 
	C73.050034,241.329559 80.734703,241.329559 88.964180,241.329559 
	C88.964180,246.028305 88.964180,250.618668 88.891495,255.678406 
z"/>
<path fill="#000000" opacity="1.000000" stroke="none" 
	d="
M305.108521,234.321564 
	C312.856201,233.443268 320.531219,233.034332 328.614960,232.603638 
	C328.614960,238.276505 328.614960,243.303864 328.614960,248.670471 
	C320.949951,248.670471 313.265259,248.670471 305.035828,248.670471 
	C305.035828,243.971695 305.035828,239.381317 305.108521,234.321564 
z"/>
<path fill="#000000" opacity="1.000000" stroke="none" 
	d="
M169.000397,207.084320 
	C169.000427,204.970032 169.000427,203.332916 169.000427,201.352127 
	C177.004425,201.352127 184.688843,201.352127 192.688599,201.352127 
	C192.688599,206.432327 192.688599,211.458313 192.688599,216.743240 
	C184.920181,216.743240 177.353745,216.743240 169.000381,216.743240 
	C169.000381,213.702301 169.000381,210.631897 169.000397,207.084320 
z"/>
<path fill="#000000" opacity="1.000000" stroke="none" 
	d="
M396.013580,193.000381 
	C400.456512,193.000381 404.405060,193.000381 408.674438,193.000381 
	C408.674438,198.401337 408.674438,203.425842 408.674438,208.726685 
	C400.956879,208.726685 393.392517,208.726685 385.412720,208.726685 
	C385.412720,203.786713 385.412720,198.756912 385.412720,193.000381 
	C388.699310,193.000381 392.109253,193.000381 396.013580,193.000381 
z"/>
<path fill="#000000" opacity="1.000000" stroke="none" 
	d="
M98.335457,193.107025 
	C105.930122,193.035233 113.053741,193.035233 120.587830,193.035233 
	C120.587830,198.215927 120.587830,203.246262 120.587830,208.643219 
	C113.007416,208.643219 105.322250,208.643219 96.701859,208.643219 
	C97.093292,203.436356 97.478851,198.307587 98.335457,193.107025 
z"/>
<path fill="#000000" opacity="1.000000" stroke="none" 
	d="
M456.999481,262.126434 
	C456.999603,265.880676 456.999603,269.154022 456.999603,272.710266 
	C451.654724,272.710266 446.748077,272.710266 441.418701,272.710266 
	C441.418701,267.806183 441.418701,262.778931 441.418701,257.371948 
	C446.296356,257.371948 451.320404,257.371948 456.705414,257.371948 
	C456.802429,258.782501 456.900909,260.214050 456.999481,262.126434 
z"/>
<path fill="#000000" opacity="1.000000" stroke="none" 
	d="
M218.330048,249.107666 
	C223.263489,249.035492 227.726883,249.035492 232.594391,249.035492 
	C232.594391,254.222702 232.594391,259.249908 232.594391,264.642029 
	C227.672028,264.642029 222.648499,264.642029 216.698975,264.642029 
	C217.090347,259.429718 217.475174,254.304779 218.330048,249.107666 
z"/>
<path fill="#000000" opacity="1.000000" stroke="none" 
	d="
M144.892059,255.676697 
	C139.809769,256.547729 134.799759,256.949738 129.378494,257.384735 
	C129.378494,251.715988 129.378494,246.693237 129.378494,241.330475 
	C134.386902,241.330475 139.409286,241.330475 144.964371,241.330475 
	C144.964371,246.034775 144.964371,250.621216 144.892059,255.676697 
z"/>
<path fill="#020100" opacity="1.000000" stroke="none" 
	d="
M126.264015,442.247864 
	C124.167870,443.928741 122.099403,445.163971 120.570259,446.879852 
	C112.259514,456.205139 101.748024,458.420410 89.867249,457.081268 
	C86.026871,456.648407 83.219177,455.335571 81.480904,451.853821 
	C73.751945,436.372925 66.024849,420.890991 58.248650,405.433777 
	C56.166592,401.295135 56.859764,397.785248 60.102787,394.568420 
	C67.669395,387.063019 75.064171,379.378174 82.813377,372.067932 
	C84.566841,370.413849 87.475708,369.977722 89.866341,369.014771 
	C90.153343,368.899200 90.526299,368.990662 90.859230,368.996368 
	C112.226189,369.362396 105.323769,366.244995 120.202347,381.003326 
	C123.183205,383.960083 126.068748,385.361206 130.228607,385.069641 
	C134.868469,384.744415 139.551300,384.905151 144.211105,385.024231 
	C149.821182,385.167603 152.863159,388.127869 152.963715,393.717804 
	C153.098465,401.209106 153.416855,408.740326 152.785965,416.180573 
	C152.540359,419.077057 150.525009,422.450500 148.279770,424.433838 
	C141.300156,430.599243 133.824112,436.202667 126.264015,442.247864 
M136.995331,406.467102 
	C136.906204,404.723969 136.817093,402.980835 136.703064,400.750488 
	C130.461563,400.750488 124.264442,402.220581 119.345284,400.342804 
	C114.284927,398.411133 110.313721,393.378876 106.148102,389.407410 
	C99.558907,383.125336 94.354355,382.990692 87.996582,389.344666 
	C84.586937,392.752258 81.310371,396.308044 77.725922,399.520416 
	C75.362419,401.638550 74.997231,403.407776 76.523056,406.314484 
	C81.618332,416.020935 86.393059,425.895569 91.297081,435.702545 
	C94.471588,442.050873 99.452103,443.149811 105.126846,438.653351 
	C114.245178,431.428223 123.213142,424.008881 132.451431,416.941956 
	C135.795578,414.383820 137.821625,411.677887 136.995331,406.467102 
z"/>
<path fill="#030200" opacity="1.000000" stroke="none" 
	d="
M293.640198,408.353058 
	C297.086792,415.229584 300.435150,421.739838 303.595551,428.340027 
	C306.397888,434.192413 304.888550,438.528503 298.917908,440.799469 
	C278.097229,448.718597 257.224731,456.503204 236.325073,464.211853 
	C231.066498,466.151398 227.059479,464.259979 225.242142,458.935059 
	C219.925369,443.356659 214.739731,427.732239 209.664566,412.073364 
	C207.765411,406.213715 210.715668,401.799408 216.834686,401.009613 
	C237.454102,398.348083 258.086212,395.785034 278.707123,393.134979 
	C283.470520,392.522827 286.751770,394.351013 288.803284,398.638519 
	C290.310760,401.789124 291.904785,404.898285 293.640198,408.353058 
M270.796143,410.310547 
	C256.582092,412.135925 242.368057,413.961304 227.699005,415.845093 
	C231.305557,426.563263 234.610886,436.386230 238.038696,446.573212 
	C254.274139,440.471710 269.754456,434.653992 285.824036,428.614807 
	C283.196625,423.329895 280.622131,418.698517 278.574280,413.844940 
	C277.145874,410.459412 275.059845,409.327240 270.796143,410.310547 
z"/>
<path fill="#020100" opacity="1.000000" stroke="none" 
	d="
M443.856567,453.848175 
	C430.065338,458.433899 430.063660,458.435150 421.417694,446.897186 
	C415.531189,439.041565 409.607452,431.213318 403.780457,423.313690 
	C399.120270,416.995941 400.254181,412.492371 407.357056,408.917999 
	C421.913788,401.592651 436.481201,394.288239 451.070343,387.027679 
	C459.698273,382.733856 464.976685,386.025726 464.997162,395.685455 
	C465.027863,410.164642 464.915955,424.644775 465.051727,439.122803 
	C465.100891,444.362305 462.971375,447.606842 457.950775,449.147095 
	C453.344116,450.560394 448.805908,452.196930 443.856567,453.848175 
M424.338684,424.099915 
	C426.336243,426.761902 428.336487,429.421844 430.330841,432.086243 
	C436.572205,440.424408 436.853943,440.541565 446.471436,435.977325 
	C447.556274,435.462463 448.847076,433.941589 448.871674,432.860596 
	C449.067657,424.242554 448.981018,415.618103 448.981018,405.987366 
	C439.452240,410.753479 430.645294,415.158600 421.510315,419.727753 
	C422.531677,421.335815 423.222504,422.423462 424.338684,424.099915 
z"/>
<path fill="#030100" opacity="1.000000" stroke="none" 
	d="
M232.812851,359.469482 
	C233.296249,363.822449 231.401230,366.501648 228.127716,368.460693 
	C215.414398,376.069061 202.775070,383.803558 189.982422,391.275787 
	C183.171387,395.254120 177.137085,391.708466 177.030045,383.799011 
	C176.897110,373.973083 176.793930,364.136932 177.134293,354.321014 
	C177.223541,351.747620 178.416565,348.717163 180.115921,346.790192 
	C184.734146,341.553436 189.819214,336.716278 194.865540,331.873169 
	C198.717621,328.176239 202.810486,327.798737 206.427353,331.266998 
	C214.719879,339.218811 222.751953,347.443726 230.814316,355.632080 
	C231.706482,356.538147 232.109390,357.925964 232.812851,359.469482 
M193.001434,366.126923 
	C193.139465,367.350342 193.277496,368.573761 193.499680,370.542999 
	C199.870605,366.733215 205.637390,363.284698 211.365005,359.859619 
	C207.706589,355.934662 204.387970,352.374268 201.151718,348.902252 
	C194.713928,352.809113 191.617737,357.946320 193.001434,366.126923 
z"/>
<path fill="#030200" opacity="1.000000" stroke="none" 
	d="
M352.194092,387.195190 
	C346.078674,391.259155 340.308990,395.193451 334.433258,398.962463 
	C329.601898,402.061554 326.521210,401.744324 322.419647,397.707123 
	C314.952454,390.356995 307.614227,382.876038 300.166260,375.506226 
	C296.751770,372.127594 296.155975,368.481445 298.410278,364.215118 
	C300.738678,359.808624 302.833862,355.279480 305.125793,350.853058 
	C308.092560,345.123322 311.399567,343.788879 317.382202,346.137726 
	C329.597992,350.933685 341.745758,355.902740 353.954590,360.716614 
	C357.579132,362.145752 360.825958,364.109009 360.854156,368.315979 
	C360.891602,373.903717 362.890961,380.212860 356.628632,384.205475 
	C355.227356,385.098877 353.871002,386.062683 352.194092,387.195190 
M337.939178,377.436157 
	C339.366241,376.414093 340.793335,375.392059 343.170929,373.689209 
	C334.382660,370.196472 326.617676,367.051056 318.781128,364.095459 
	C318.064636,363.825226 316.224335,364.595062 316.068207,365.187988 
	C315.756805,366.370880 315.790405,368.154083 316.501282,369.002258 
	C318.733002,371.665039 321.343628,374.010498 323.810242,376.476074 
	C330.033875,382.696991 330.034485,382.696381 337.939178,377.436157 
z"/>
<path fill="#000000" opacity="1.000000" stroke="none" 
	d="
M152.999084,457.954590 
	C152.999084,460.401123 152.999084,462.366882 152.999084,464.663971 
	C147.679993,464.663971 142.763779,464.663971 137.420776,464.663971 
	C137.420776,459.738953 137.420776,454.701508 137.420776,449.329224 
	C142.333420,449.329224 147.249710,449.329224 152.999100,449.329224 
	C152.999100,451.981049 152.999100,454.727417 152.999084,457.954590 
z"/>
<path fill="#000000" opacity="1.000000" stroke="none" 
	d="
M368.971436,419.290253 
	C368.989136,423.910217 368.989136,428.058350 368.989136,432.600983 
	C363.691071,432.600983 358.653870,432.600983 353.306000,432.600983 
	C353.306000,427.618225 353.306000,422.700409 353.306000,417.107208 
	C358.033112,417.107208 362.784576,417.057617 367.531433,417.182098 
	C368.019531,417.194885 368.480316,418.248016 368.971436,419.290253 
z"/>
<path fill="#000000" opacity="1.000000" stroke="none" 
	d="
M177.002197,437.184845 
	C177.856552,435.480042 178.621094,433.273438 179.578918,433.186096 
	C183.831543,432.798279 188.139557,433.018005 192.707047,433.018005 
	C192.707047,438.408539 192.707047,443.326385 192.707047,448.623291 
	C187.642410,448.623291 182.606934,448.623291 177.001358,448.623291 
	C177.001358,444.888885 177.001358,441.273743 177.002197,437.184845 
z"/>
<path fill="#000000" opacity="1.000000" stroke="none" 
	d="
M329.001160,446.136719 
	C329.107483,444.218018 329.213623,442.777649 329.324982,441.266571 
	C334.620422,441.266571 339.536865,441.266571 344.724243,441.266571 
	C344.724243,446.444183 344.724243,451.361053 344.724243,456.639679 
	C339.607574,456.639679 334.574860,456.639679 329.000977,456.639679 
	C329.000977,453.186554 329.000977,449.900818 329.001160,446.136719 
z"/>
<path fill="#000000" opacity="1.000000" stroke="none" 
	d="
M434.911591,368.999084 
	C431.481476,368.999115 428.527618,368.999115 425.291138,368.999115 
	C425.291138,363.587891 425.291138,358.670380 425.291138,353.375305 
	C430.360809,353.375305 435.393921,353.375305 440.717102,353.375305 
	C440.717102,358.429474 440.717102,363.346710 440.717102,368.999023 
	C438.902313,368.999023 437.145050,368.999023 434.911591,368.999084 
z"/>
<path fill="#000000" opacity="1.000000" stroke="none" 
	d="
M251.290039,368.971497 
	C250.219757,368.149597 249.136826,367.365051 249.103180,366.537872 
	C248.928650,362.247803 249.021988,357.946869 249.021988,353.329651 
	C254.333755,353.329651 259.251099,353.329651 264.587036,353.329651 
	C264.587036,358.279083 264.587036,363.317169 264.587036,368.989197 
	C260.305664,368.989197 256.033569,368.989197 251.290039,368.971497 
z"/>
<path fill="#000000" opacity="1.000000" stroke="none" 
	d="
M393.028503,339.290070 
	C393.850433,338.219757 394.634979,337.136841 395.462158,337.103210 
	C399.752045,336.928680 404.052765,337.021973 408.670349,337.021973 
	C408.670349,342.332947 408.670349,347.250610 408.670349,352.587036 
	C403.720947,352.587036 398.682831,352.587036 393.010803,352.587036 
	C393.010803,348.305695 393.010803,344.033600 393.028503,339.290070 
z"/>
<path fill="#000000" opacity="1.000000" stroke="none" 
	d="
M81.957848,344.999146 
	C78.852470,344.999146 76.228348,344.999146 73.305786,344.999146 
	C73.305786,339.618713 73.305786,334.701996 73.305786,329.390778 
	C78.326271,329.390778 83.359581,329.390778 88.700653,329.390778 
	C88.700653,334.394257 88.700653,339.311218 88.700653,344.999115 
	C86.610756,344.999115 84.524925,344.999115 81.957848,344.999146 
z"/>
<path fill="#000000" opacity="1.000000" stroke="none" 
	d="
M49.000774,111.078018 
	C49.000782,108.957130 49.000782,107.315025 49.000782,105.337708 
	C56.990742,105.337708 64.701180,105.337708 72.707710,105.337708 
	C72.707710,110.421417 72.707710,115.467369 72.707710,120.757927 
	C64.933731,120.757927 57.341309,120.757927 49.000767,120.757927 
	C49.000767,117.721291 49.000767,114.639046 49.000774,111.078018 
z"/>
<path fill="#000000" opacity="1.000000" stroke="none" 
	d="
M328.997009,68.202896 
	C328.998627,72.632660 328.998627,76.582077 328.998627,80.757622 
	C320.934540,80.757622 313.342346,80.757622 305.374207,80.757622 
	C305.374207,75.750946 305.374207,70.703583 305.374207,65.020447 
	C312.551880,65.020447 319.807343,64.949852 327.056091,65.138062 
	C327.724457,65.155411 328.349976,66.821861 328.997009,68.202896 
z"/>
<path fill="#000000" opacity="1.000000" stroke="none" 
	d="
M448.997009,116.203468 
	C448.998627,120.631454 448.998627,124.579193 448.998627,128.756165 
	C443.605530,128.756165 438.676453,128.756165 433.372803,128.756165 
	C433.372803,123.753403 433.372803,118.704422 433.372803,113.020500 
	C437.884979,113.020500 442.479309,112.908386 447.056061,113.141075 
	C447.744507,113.176079 448.350983,114.822311 448.997009,116.203468 
z"/>
<path fill="#000000" opacity="1.000000" stroke="none" 
	d="
M234.922302,128.999237 
	C231.484421,128.999252 228.525421,128.999252 225.286163,128.999252 
	C225.286163,123.568748 225.286163,118.523895 225.286163,113.238541 
	C230.405930,113.238541 235.334991,113.238541 240.632751,113.238541 
	C240.632751,118.259064 240.632751,123.307579 240.632751,128.999237 
	C238.925156,128.999237 237.163162,128.999237 234.922302,128.999237 
z"/>
<path fill="#000000" opacity="1.000000" stroke="none" 
	d="
M348.205750,104.997032 
	C346.819183,104.019829 345.204712,103.096237 345.128448,102.059464 
	C344.825806,97.946495 345.003937,93.798157 345.003937,89.333199 
	C350.334290,89.333199 355.379700,89.333199 360.714508,89.333199 
	C360.714508,94.432701 360.714508,99.477585 360.714508,104.998627 
	C356.581268,104.998627 352.632996,104.998627 348.205750,104.997032 
z"/>
<path fill="#000000" opacity="1.000000" stroke="none" 
	d="
M209.475800,88.511826 
	C209.143341,83.362610 209.143341,78.553909 209.143341,73.373260 
	C214.247208,73.373260 219.294144,73.373260 224.674927,73.373260 
	C224.674927,78.351669 224.674927,83.397163 224.674927,88.852348 
	C219.672394,88.852348 214.740326,88.852348 209.475800,88.511826 
z"/>
<path fill="#050301" opacity="1.000000" stroke="none" 
	d="
M105.864212,77.073944 
	C105.953468,75.148254 106.042625,73.708702 106.143379,72.082031 
	C111.359001,72.082031 116.261566,72.082031 121.530586,72.082031 
	C121.530586,77.191994 121.530586,82.207626 121.530586,87.558105 
	C116.418427,87.558105 111.410164,87.558105 105.864120,87.558105 
	C105.864120,84.081604 105.864120,80.820847 105.864212,77.073944 
z"/>
<path fill="#000000" opacity="1.000000" stroke="none" 
	d="
M425.002991,68.205750 
	C425.980194,66.819176 426.903778,65.204659 427.940552,65.128395 
	C432.054474,64.825790 436.203735,65.003937 440.666809,65.003937 
	C440.666809,70.333847 440.666809,75.378052 440.666809,80.714493 
	C435.567322,80.714493 430.522430,80.714493 425.001373,80.714493 
	C425.001373,76.581291 425.001373,72.632996 425.002991,68.205750 
z"/>
<path fill="#A1590D" opacity="1.000000" stroke="none" 
	d="
M136.995392,406.918243 
	C137.821625,411.677887 135.795578,414.383820 132.451431,416.941956 
	C123.213142,424.008881 114.245178,431.428223 105.126846,438.653351 
	C99.452103,443.149811 94.471588,442.050873 91.297081,435.702545 
	C86.393059,425.895569 81.618332,416.020935 76.523056,406.314484 
	C74.997231,403.407776 75.362419,401.638550 77.725922,399.520416 
	C81.310371,396.308044 84.586937,392.752258 87.996582,389.344666 
	C94.354355,382.990692 99.558907,383.125336 106.148102,389.407410 
	C110.313721,393.378876 114.284927,398.411133 119.345284,400.342804 
	C124.264442,402.220581 130.461563,400.750488 136.703064,400.750488 
	C136.817093,402.980835 136.906204,404.723969 136.995392,406.918243 
z"/>
<path fill="#A0580D" opacity="1.000000" stroke="none" 
	d="
M271.223755,410.248169 
	C275.059845,409.327240 277.145874,410.459412 278.574280,413.844940 
	C280.622131,418.698517 283.196625,423.329895 285.824036,428.614807 
	C269.754456,434.653992 254.274139,440.471710 238.038696,446.573212 
	C234.610886,436.386230 231.305557,426.563263 227.699005,415.845093 
	C242.368057,413.961304 256.582092,412.135925 271.223755,410.248169 
z"/>
<path fill="#A0580D" opacity="1.000000" stroke="none" 
	d="
M424.126007,423.805511 
	C423.222504,422.423462 422.531677,421.335815 421.510315,419.727753 
	C430.645294,415.158600 439.452240,410.753479 448.981018,405.987366 
	C448.981018,415.618103 449.067657,424.242554 448.871674,432.860596 
	C448.847076,433.941589 447.556274,435.462463 446.471436,435.977325 
	C436.853943,440.541565 436.572205,440.424408 430.330841,432.086243 
	C428.336487,429.421844 426.336243,426.761902 424.126007,423.805511 
z"/>
<path fill="#9F580D" opacity="1.000000" stroke="none" 
	d="
M193.000946,365.684875 
	C191.617737,357.946320 194.713928,352.809113 201.151718,348.902252 
	C204.387970,352.374268 207.706589,355.934662 211.365005,359.859619 
	C205.637390,363.284698 199.870605,366.733215 193.499680,370.542999 
	C193.277496,368.573761 193.139465,367.350342 193.000946,365.684875 
z"/>
<path fill="#9E570D" opacity="1.000000" stroke="none" 
	d="
M337.635803,377.645996 
	C330.034485,382.696381 330.033875,382.696991 323.810242,376.476074 
	C321.343628,374.010498 318.733002,371.665039 316.501282,369.002258 
	C315.790405,368.154083 315.756805,366.370880 316.068207,365.187988 
	C316.224335,364.595062 318.064636,363.825226 318.781128,364.095459 
	C326.617676,367.051056 334.382660,370.196472 343.170929,373.689209 
	C340.793335,375.392059 339.366241,376.414093 337.635803,377.645996 
z"/>
</svg>