<svg version="1.1" id="Layer_1" xmlns="http://www.w3.org/2000/svg" xmlns:xlink="http://www.w3.org/1999/xlink" x="0px" y="0px"
	 width="100%" viewBox="0 0 512 512" enable-background="new 0 0 512 512" xml:space="preserve">
<path fill="#000000" opacity="1.000000" stroke="none" 
	d="
M211.,1.000001 
	C311.626984,1.000000 412.253937,1.000000 512.940430,1.000000 
	C512.940430,171.559647 512.940430,342.119324 512.940430,513.000000 
	C419.644257,513.000000 326.288177,513.000000 232.184036,512.636536 
	C232.116440,511.862427 232.763382,511.167633 233.482224,511.082947 
	C250.510712,509.076630 266.703247,504.044495 282.331207,497.222961 
	C315.065338,482.934723 342.441711,461.592926 363.538666,432.803436 
	C381.069977,408.879730 393.013092,382.230896 398.893982,352.934204 
	C404.552979,353.039368 409.783234,353.097565 415.471954,353.093079 
	C421.354004,352.647339 426.928314,352.937714 432.175049,351.763947 
	C454.237610,346.828278 472.766296,336.105469 487.336792,318.362396 
	C499.219666,303.892212 506.942200,287.620117 508.751495,269.262238 
	C511.043549,246.006470 506.835907,223.910660 493.121033,204.082092 
	C480.642487,186.041000 464.473083,172.956635 443.614655,166.545563 
	C433.744873,163.511993 423.135254,162.885544 412.408051,161.103256 
	C396.938995,160.269226 382.888550,163.916626 369.699707,170.813629 
	C363.313599,174.153168 357.314758,178.233231 351.004089,181.649536 
	C344.573303,171.697220 338.583710,161.856644 331.921631,152.494629 
	C317.889954,132.776382 303.664459,113.190704 289.202026,93.786491 
	C281.502991,83.456696 273.258850,73.523880 265.048859,63.586964 
	C257.323761,54.236992 249.357651,45.084782 241.429459,35.904396 
	C232.521637,25.589661 223.538483,15.339973 214.585358,5.064398 
	C213.398590,3.702321 212.195526,2.354450 211.000000,1.000001 
z"/>
<path fill="#7DD5F4" opacity="1.000000" stroke="none" 
	d="
M195.000000,1.000000 
	C197.370560,1.000000 199.741104,1.000000 202.589630,1.467710 
	C203.077225,171.458572 203.086975,340.981720 203.092438,510.504883 
	C203.092468,511.336578 203.032135,512.168274 203.000000,513.000000 
	C194.312439,513.000000 185.624863,513.000000 176.805313,512.665161 
	C174.506989,511.876709 172.341293,511.420013 170.174194,510.970154 
	C148.921951,506.558685 128.365524,500.292328 109.201591,489.734680 
	C85.413986,476.629761 64.860146,459.873596 47.943459,438.541718 
	C33.397739,420.199677 22.521063,399.964600 14.965010,377.880981 
	C10.061505,363.549774 7.321923,348.829193 5.829653,333.722839 
	C4.358450,318.829803 4.121809,303.987549 7.396291,289.508209 
	C13.521571,262.422943 24.662252,237.222885 37.928349,212.850983 
	C51.956593,187.078857 67.380585,162.203354 84.859428,138.683548 
	C105.881508,110.395927 127.104851,82.232765 149.103973,54.705334 
	C163.247177,37.007992 178.952255,20.559437 193.917572,3.516273 
	C194.490509,2.863774 194.648590,1.847016 195.000000,1.000000 
M146.256699,266.989349 
	C136.264435,266.973083 126.272179,266.942596 116.279922,266.944153 
	C103.998726,266.946075 98.261414,272.641632 98.248398,285.011017 
	C98.213364,318.319031 98.220284,351.627106 98.244644,384.935150 
	C98.252991,396.338226 104.004044,403.530457 113.193481,403.792603 
	C122.443542,404.056519 128.584412,396.681030 128.710419,384.994171 
	C128.796600,377.001160 128.812866,369.005280 128.692749,361.013214 
	C128.648010,358.036682 129.685913,356.759491 132.744858,356.915253 
	C136.066879,357.084381 139.404648,356.968781 142.735245,356.941132 
	C166.437439,356.744293 186.535599,338.351318 188.216827,316.324036 
	C190.353928,288.324036 169.635117,268.750732 146.256699,266.989349 
z"/>
<path fill="#4894FF" opacity="1.000000" stroke="none" 
	d="
M203.468658,513.000000 
	C203.032135,512.168274 203.092468,511.336578 203.092438,510.504883 
	C203.086975,340.981720 203.077225,171.458572 203.033813,1.467710 
	C205.370560,1.000000 207.741104,1.000000 210.555832,1.000001 
	C212.195526,2.354450 213.398590,3.702321 214.585358,5.064398 
	C223.538483,15.339973 232.521637,25.589661 241.429459,35.904396 
	C249.357651,45.084782 257.323761,54.236992 265.048859,63.586964 
	C273.258850,73.523880 281.502991,83.456696 289.202026,93.786491 
	C303.664459,113.190704 317.889954,132.776382 331.921631,152.494629 
	C338.583710,161.856644 344.573303,171.697220 350.935425,181.997314 
	C349.368134,184.493866 347.832489,186.416336 346.083313,188.119492 
	C293.132690,239.677780 315.608154,328.909821 386.692108,349.313171 
	C390.633698,350.444580 394.541656,351.693176 398.465271,352.887207 
	C393.013092,382.230896 381.069977,408.879730 363.538666,432.803436 
	C342.441711,461.592926 315.065338,482.934723 282.331207,497.222961 
	C266.703247,504.044495 250.510712,509.076630 233.482224,511.082947 
	C232.763382,511.167633 232.116440,511.862427 231.718002,512.636536 
	C222.645767,513.000000 213.291550,513.000000 203.468658,513.000000 
M248.715805,372.498993 
	C248.716232,356.510925 248.766174,340.522614 248.673935,324.535065 
	C248.656189,321.458221 248.980225,319.391663 252.876816,319.658905 
	C256.855042,319.931793 260.866699,319.711548 264.863739,319.717194 
	C275.971130,319.732880 278.703522,322.457916 278.715179,333.631165 
	C278.733917,351.617798 278.560303,369.607117 278.858490,387.588806 
	C278.918579,391.211212 279.991882,395.252228 281.876190,398.313477 
	C285.247040,403.789856 292.119080,405.591339 298.246124,403.656464 
	C304.612244,401.646088 308.648529,396.003357 308.692810,388.246124 
	C308.805023,368.594757 309.018036,348.936646 308.637238,329.291962 
	C308.258850,309.772034 295.832458,294.376068 277.203003,290.715881 
	C269.955078,289.291870 262.283447,289.644867 254.820862,289.831207 
	C250.134216,289.948212 248.429214,288.791992 248.601669,283.824707 
	C248.971237,273.178955 248.859161,262.508392 248.659622,251.853333 
	C248.484177,242.484589 242.060989,235.936264 233.556778,235.978622 
	C224.907181,236.021683 218.742477,242.495209 218.730820,251.955505 
	C218.674728,297.421661 218.676025,342.887909 218.728287,388.354065 
	C218.739059,397.728058 224.547516,404.024323 233.039886,404.278198 
	C241.820068,404.540710 248.198608,398.418579 248.649429,388.984406 
	C248.895599,383.833038 248.707611,378.660919 248.715805,372.498993 
z"/>
<path fill="#000000" opacity="1.000000" stroke="none" 
	d="
M194.,1.000000 
	C194.648590,1.847016 194.490509,2.863774 193.917572,3.516273 
	C178.952255,20.559437 163.247177,37.007992 149.103973,54.705334 
	C127.104851,82.232765 105.881508,110.395927 84.859428,138.683548 
	C67.380585,162.203354 51.956593,187.078857 37.928349,212.850983 
	C24.662252,237.222885 13.521571,262.422943 7.396291,289.508209 
	C4.121809,303.987549 4.358450,318.829803 5.829653,333.722839 
	C7.321923,348.829193 10.061505,363.549774 14.965010,377.880981 
	C22.521063,399.964600 33.397739,420.199677 47.943459,438.541718 
	C64.860146,459.873596 85.413986,476.629761 109.201591,489.734680 
	C128.365524,500.292328 148.921951,506.558685 170.174194,510.970154 
	C172.341293,511.420013 174.506989,511.876709 176.336670,512.665161 
	C117.695641,513.000000 59.391289,513.000000 1.043465,513.000000 
	C1.043465,342.447083 1.043465,171.894180 1.043465,1.000000 
	C65.353828,1.000000 129.708252,1.000000 194.531342,1.000000 
z"/>
<path fill="#BDE75F" opacity="1.000000" stroke="none" 
	d="
M398.893982,352.934204 
	C394.541656,351.693176 390.633698,350.444580 386.692108,349.313171 
	C315.608154,328.909821 293.132690,239.677780 346.083313,188.119492 
	C347.832489,186.416336 349.368134,184.493866 351.071960,182.325836 
	C357.314758,178.233231 363.313599,174.153168 369.699707,170.813629 
	C382.888550,163.916626 396.938995,160.269226 412.410217,161.561127 
	C412.866638,187.492798 412.855011,212.901382 412.893341,238.309921 
	C412.896576,240.443909 413.235870,242.577408 413.318665,244.895615 
	C412.774445,245.695984 412.330597,246.311874 411.602722,247.095612 
	C408.853149,249.914886 406.387512,252.566345 403.687439,255.469940 
	C400.680603,252.368927 398.169891,249.734619 395.610382,247.148605 
	C389.064789,240.535126 379.922058,239.863113 373.776276,245.516983 
	C367.441528,251.344681 367.196411,260.280304 373.481354,267.295380 
	C378.912689,273.357666 384.702301,279.097351 390.215637,285.088104 
	C397.638367,293.153534 402.716187,294.276398 412.783539,290.285278 
	C412.843262,310.001007 412.807007,329.238586 412.962616,348.474579 
	C412.975250,350.040375 414.299011,351.595612 415.013519,353.155731 
	C409.783234,353.097565 404.552979,353.039368 398.893982,352.934204 
z"/>
<path fill="#01CB75" opacity="1.000000" stroke="none" 
	d="
M413.419067,244.711136 
	C413.235870,242.577408 412.896576,240.443909 412.893341,238.309921 
	C412.855011,212.901382 412.866638,187.492798 412.863037,161.626343 
	C423.135254,162.885544 433.744873,163.511993 443.614655,166.545563 
	C464.473083,172.956635 480.642487,186.041000 493.121033,204.082092 
	C506.835907,223.910660 511.043549,246.006470 508.751495,269.262238 
	C506.942200,287.620117 499.219666,303.892212 487.336792,318.362396 
	C472.766296,336.105469 454.237610,346.828278 432.175049,351.763947 
	C426.928314,352.937714 421.354004,352.647339 415.471954,353.093079 
	C414.299011,351.595612 412.975250,350.040375 412.962616,348.474579 
	C412.807007,329.238586 412.843262,310.001007 412.866028,290.099609 
	C412.902161,289.435394 413.016632,289.044739 413.335785,288.936249 
	C426.605560,274.939392 439.622925,261.112427 452.478119,247.136307 
	C458.745819,240.322128 458.356049,231.250412 451.889069,225.308807 
	C445.565247,219.498703 436.375885,220.036118 430.042389,226.728226 
	C424.431671,232.656662 418.954956,238.711884 413.419067,244.711136 
z"/>
<path fill="#FEF4F4" opacity="1.000000" stroke="none" 
	d="
M146.723526,266.998108 
	C169.635117,268.750732 190.353928,288.324036 188.216827,316.324036 
	C186.535599,338.351318 166.437439,356.744293 142.735245,356.941132 
	C139.404648,356.968781 136.066879,357.084381 132.744858,356.915253 
	C129.685913,356.759491 128.648010,358.036682 128.692749,361.013214 
	C128.812866,369.005280 128.796600,377.001160 128.710419,384.994171 
	C128.584412,396.681030 122.443542,404.056519 113.193481,403.792603 
	C104.004044,403.530457 98.252991,396.338226 98.244644,384.935150 
	C98.220284,351.627106 98.213364,318.319031 98.248398,285.011017 
	C98.261414,272.641632 103.998726,266.946075 116.279922,266.944153 
	C126.272179,266.942596 136.264435,266.973083 146.723526,266.998108 
M151.820953,299.461395 
	C144.721375,295.176819 136.993744,297.268829 129.473007,297.260284 
	C129.060287,302.416931 128.647202,307.573578 128.236526,312.730377 
	C128.223389,312.895325 128.234848,313.062225 128.234848,313.228210 
	C128.234848,327.114349 128.234863,327.114349 141.938828,326.948944 
	C149.621140,326.856201 154.883102,323.572601 157.332779,317.342621 
	C159.726212,311.255676 158.044769,305.282196 151.820953,299.461395 
z"/>
<path fill="#F4EEEA" opacity="1.000000" stroke="none" 
	d="
M248.715622,372.998566 
	C248.707611,378.660919 248.895599,383.833038 248.649429,388.984406 
	C248.198608,398.418579 241.820068,404.540710 233.039886,404.278198 
	C224.547516,404.024323 218.739059,397.728058 218.728287,388.354065 
	C218.676025,342.887909 218.674728,297.421661 218.730820,251.955505 
	C218.742477,242.495209 224.907181,236.021683 233.556778,235.978622 
	C242.060989,235.936264 248.484177,242.484589 248.659622,251.853333 
	C248.859161,262.508392 248.971237,273.178955 248.601669,283.824707 
	C248.429214,288.791992 250.134216,289.948212 254.820862,289.831207 
	C262.283447,289.644867 269.955078,289.291870 277.203003,290.715881 
	C295.832458,294.376068 308.258850,309.772034 308.637238,329.291962 
	C309.018036,348.936646 308.805023,368.594757 308.692810,388.246124 
	C308.648529,396.003357 304.612244,401.646088 298.246124,403.656464 
	C292.119080,405.591339 285.247040,403.789856 281.876190,398.313477 
	C279.991882,395.252228 278.918579,391.211212 278.858490,387.588806 
	C278.560303,369.607117 278.733917,351.617798 278.715179,333.631165 
	C278.703522,322.457916 275.971130,319.732880 264.863739,319.717194 
	C260.866699,319.711548 256.855042,319.931793 252.876816,319.658905 
	C248.980225,319.391663 248.656189,321.458221 248.673935,324.535065 
	C248.766174,340.522614 248.716232,356.510925 248.715622,372.998566 
z"/>
<path fill="#F4EFE9" opacity="1.000000" stroke="none" 
	d="
M413.318665,244.895615 
	C418.954956,238.711884 424.431671,232.656662 430.042389,226.728226 
	C436.375885,220.036118 445.565247,219.498703 451.889069,225.308807 
	C458.356049,231.250412 458.745819,240.322128 452.478119,247.136307 
	C439.622925,261.112427 426.605560,274.939392 413.331299,288.464722 
	C413.005524,276.279022 413.052551,264.455902 412.951324,252.634079 
	C412.935028,250.729080 412.258209,248.829727 411.886719,246.927765 
	C412.330597,246.311874 412.774445,245.695984 413.318665,244.895615 
z"/>
<path fill="#FEF4F3" opacity="1.000000" stroke="none" 
	d="
M411.602722,247.095612 
	C412.258209,248.829727 412.935028,250.729080 412.951324,252.634079 
	C413.052551,264.455902 413.005524,276.279022 413.012146,288.573242 
	C413.016632,289.044739 412.902161,289.435394 412.819702,289.621063 
	C402.716187,294.276398 397.638367,293.153534 390.215637,285.088104 
	C384.702301,279.097351 378.912689,273.357666 373.481354,267.295380 
	C367.196411,260.280304 367.441528,251.344681 373.776276,245.516983 
	C379.922058,239.863113 389.064789,240.535126 395.610382,247.148605 
	C398.169891,249.734619 400.680603,252.368927 403.687439,255.469940 
	C406.387512,252.566345 408.853149,249.914886 411.602722,247.095612 
z"/>
<path fill="#80D6F4" opacity="1.000000" stroke="none" 
	d="
M152.124054,299.688049 
	C158.044769,305.282196 159.726212,311.255676 157.332779,317.342621 
	C154.883102,323.572601 149.621140,326.856201 141.938828,326.948944 
	C128.234863,327.114349 128.234848,327.114349 128.234848,313.228210 
	C128.234848,313.062225 128.223389,312.895325 128.236526,312.730377 
	C128.647202,307.573578 129.060287,302.416931 129.473007,297.260284 
	C136.993744,297.268829 144.721375,295.176819 152.124054,299.688049 
z"/>
</svg>